Graphik-MediumItalic.ufo
<glyph name="exclam" format="2">
  <advance width="305"/>
  <unicode hex="0021"/>
  <outline>
    <contour>
      <point x="96" y="215" type="line"/>
      <point x="157" y="715" type="line"/>
      <point x="292" y="715" type="line"/>
      <point x="193" y="215" type="line"/>
    </contour>
    <contour>
      <point x="124" y="-7" type="curve" smooth="yes"/>
      <point x="79" y="-7"/>
      <point x="45" y="27"/>
      <point x="45" y="70" type="curve" smooth="yes"/>
      <point x="45" y="114"/>
      <point x="79" y="148"/>
      <point x="124" y="148" type="curve" smooth="yes"/>
      <point x="168" y="148"/>
      <point x="204" y="114"/>
      <point x="204" y="71" type="curve" smooth="yes"/>
      <point x="204" y="27"/>
      <point x="168" y="-7"/>
    </contour>
  </outline>
</glyph>
<glyph name="quotedbl" format="2">
  <advance width="409"/>
  <unicode hex="0022"/>
  <outline>
    <contour>
      <point x="102" y="458" type="line"/>
      <point x="123" y="715" type="line"/>
      <point x="244" y="715" type="line"/>
      <point x="188" y="458" type="line"/>
    </contour>
    <contour>
      <point x="284" y="458" type="line"/>
      <point x="306" y="715" type="line"/>
      <point x="427" y="715" type="line"/>
      <point x="370" y="458" type="line"/>
    </contour>
  </outline>
</glyph>
<glyph name="numbersign" format="2">
  <advance width="529"/>
  <unicode hex="0023"/>
  <outline>
    <contour>
      <point x="253" y="99" type="line"/>
      <point x="292" y="266" type="line"/>
      <point x="209" y="266" type="line"/>
      <point x="170" y="99" type="line"/>
      <point x="81" y="99" type="line"/>
      <point x="120" y="266" type="line"/>
      <point x="37" y="266" type="line"/>
      <point x="53" y="364" type="line"/>
      <point x="143" y="364" type="line"/>
      <point x="169" y="474" type="line"/>
      <point x="85" y="474" type="line"/>
      <point x="99" y="569" type="line"/>
      <point x="192" y="569" type="line"/>
      <point x="227" y="715" type="line"/>
      <point x="315" y="715" type="line"/>
      <point x="281" y="569" type="line"/>
      <point x="364" y="569" type="line"/>
      <point x="399" y="715" type="line"/>
      <point x="488" y="715" type="line"/>
      <point x="453" y="569" type="line"/>
      <point x="537" y="569" type="line"/>
      <point x="523" y="474" type="line"/>
      <point x="430" y="474" type="line"/>
      <point x="404" y="364" type="line"/>
      <point x="491" y="364" type="line"/>
      <point x="475" y="266" type="line"/>
      <point x="381" y="266" type="line"/>
      <point x="342" y="99" type="line"/>
    </contour>
    <contour>
      <point x="258" y="474" type="line"/>
      <point x="232" y="364" type="line"/>
      <point x="315" y="364" type="line"/>
      <point x="341" y="474" type="line"/>
    </contour>
  </outline>
</glyph>
<glyph name="dollar" format="2">
  <advance width="627"/>
  <unicode hex="0024"/>
  <outline>
    <contour>
      <point x="307" y="-10" type="curve" smooth="yes"/>
      <point x="304" y="-10" type="line"/>
      <point x="284" y="-135" type="line"/>
      <point x="218" y="-135" type="line"/>
      <point x="238" y="-5" type="line"/>
      <point x="106" y="16"/>
      <point x="26" y="101"/>
      <point x="25" y="221" type="curve"/>
      <point x="148" y="221" type="line"/>
      <point x="150" y="161"/>
      <point x="182" y="109"/>
      <point x="254" y="92" type="curve"/>
      <point x="290" y="318" type="line"/>
      <point x="161" y="354"/>
      <point x="95" y="405"/>
      <point x="95" y="512" type="curve" smooth="yes"/>
      <point x="95" y="634"/>
      <point x="204" y="722"/>
      <point x="354" y="724" type="curve"/>
      <point x="368" y="813" type="line"/>
      <point x="434" y="813" type="line"/>
      <point x="419" y="719" type="line"/>
      <point x="529" y="703"/>
      <point x="606" y="639"/>
      <point x="611" y="519" type="curve"/>
      <point x="492" y="519" type="line"/>
      <point x="487" y="580"/>
      <point x="453" y="611"/>
      <point x="404" y="623" type="curve"/>
      <point x="371" y="413" type="line"/>
      <point x="503" y="375"/>
      <point x="576" y="327"/>
      <point x="576" y="218" type="curve" smooth="yes"/>
      <point x="576" y="79"/>
      <point x="469" y="-10"/>
    </contour>
    <contour>
      <point x="453" y="202" type="curve" smooth="yes"/>
      <point x="453" y="249"/>
      <point x="430" y="275"/>
      <point x="353" y="300" type="curve"/>
      <point x="319" y="86" type="line"/>
      <point x="406" y="89"/>
      <point x="453" y="132"/>
    </contour>
    <contour>
      <point x="215" y="525" type="curve" smooth="yes"/>
      <point x="215" y="482"/>
      <point x="234" y="457"/>
      <point x="308" y="432" type="curve"/>
      <point x="339" y="629" type="line"/>
      <point x="260" y="626"/>
      <point x="215" y="583"/>
    </contour>
  </outline>
</glyph>
<glyph name="percent" format="2">
  <advance width="801"/>
  <unicode hex="0025"/>
  <outline>
    <contour>
      <point x="165" y="532" type="curve" smooth="yes"/>
      <point x="165" y="493"/>
      <point x="181" y="455"/>
      <point x="235" y="455" type="curve" smooth="yes"/>
      <point x="287" y="456"/>
      <point x="317" y="504"/>
      <point x="317" y="564" type="curve" smooth="yes"/>
      <point x="317" y="603"/>
      <point x="300" y="643"/>
      <point x="249" y="643" type="curve" smooth="yes"/>
      <point x="192" y="643"/>
      <point x="165" y="592"/>
    </contour>
    <contour>
      <point x="232" y="375" type="curve" smooth="yes"/>
      <point x="137" y="375"/>
      <point x="67" y="439"/>
      <point x="67" y="533" type="curve" smooth="yes"/>
      <point x="67" y="635"/>
      <point x="146" y="722"/>
      <point x="253" y="722" type="curve" smooth="yes"/>
      <point x="348" y="722"/>
      <point x="415" y="656"/>
      <point x="415" y="562" type="curve" smooth="yes"/>
      <point x="415" y="462"/>
      <point x="337" y="375"/>
    </contour>
    <contour>
      <point x="96" y="0" type="line"/>
      <point x="654" y="715" type="line"/>
      <point x="741" y="715" type="line"/>
      <point x="183" y="0" type="line"/>
    </contour>
    <contour>
      <point x="518" y="147" type="curve" smooth="yes"/>
      <point x="518" y="108"/>
      <point x="534" y="70"/>
      <point x="588" y="70" type="curve" smooth="yes"/>
      <point x="640" y="71"/>
      <point x="670" y="119"/>
      <point x="670" y="179" type="curve" smooth="yes"/>
      <point x="670" y="217"/>
      <point x="653" y="258"/>
      <point x="602" y="258" type="curve" smooth="yes"/>
      <point x="545" y="258"/>
      <point x="518" y="207"/>
    </contour>
    <contour>
      <point x="585" y="-10" type="curve" smooth="yes"/>
      <point x="490" y="-10"/>
      <point x="420" y="54"/>
      <point x="420" y="148" type="curve" smooth="yes"/>
      <point x="420" y="249"/>
      <point x="499" y="337"/>
      <point x="606" y="337" type="curve" smooth="yes"/>
      <point x="701" y="337"/>
      <point x="768" y="271"/>
      <point x="768" y="177" type="curve" smooth="yes"/>
      <point x="768" y="77"/>
      <point x="690" y="-10"/>
    </contour>
  </outline>
</glyph>
<glyph name="ampersand" format="2">
  <advance width="712"/>
  <unicode hex="0026"/>
  <outline>
    <contour>
      <point x="638" y="0" type="line"/>
      <point x="494" y="0" type="line"/>
      <point x="445" y="73" type="line"/>
      <point x="400" y="30"/>
      <point x="332" y="-7"/>
      <point x="248" y="-8" type="curve" smooth="yes"/>
      <point x="141" y="-8"/>
      <point x="30" y="41"/>
      <point x="30" y="181" type="curve" smooth="yes"/>
      <point x="30" y="302"/>
      <point x="120" y="368"/>
      <point x="226" y="409" type="curve"/>
      <point x="201" y="450"/>
      <point x="187" y="495"/>
      <point x="187" y="534" type="curve" smooth="yes"/>
      <point x="187" y="651"/>
      <point x="278" y="721"/>
      <point x="389" y="721" type="curve" smooth="yes"/>
      <point x="480" y="721"/>
      <point x="564" y="670"/>
      <point x="564" y="570" type="curve" smooth="yes"/>
      <point x="564" y="466"/>
      <point x="481" y="417"/>
      <point x="391" y="379" type="curve"/>
      <point x="491" y="226" type="line"/>
      <point x="584" y="370" type="line"/>
      <point x="696" y="370" type="line"/>
      <point x="546" y="141" type="line"/>
    </contour>
    <contour>
      <point x="159" y="193" type="curve" smooth="yes"/>
      <point x="159" y="128"/>
      <point x="201" y="90"/>
      <point x="268" y="90" type="curve" smooth="yes"/>
      <point x="313" y="90"/>
      <point x="360" y="112"/>
      <point x="395" y="149" type="curve"/>
      <point x="271" y="336" type="line"/>
      <point x="213" y="312"/>
      <point x="159" y="275"/>
    </contour>
    <contour>
      <point x="386" y="632" type="curve" smooth="yes"/>
      <point x="339" y="632"/>
      <point x="305" y="598"/>
      <point x="305" y="541" type="curve" smooth="yes"/>
      <point x="305" y="512"/>
      <point x="319" y="481"/>
      <point x="343" y="444" type="curve"/>
      <point x="397" y="467"/>
      <point x="454" y="494"/>
      <point x="454" y="563" type="curve" smooth="yes"/>
      <point x="454" y="599"/>
      <point x="432" y="632"/>
    </contour>
  </outline>
</glyph>
<glyph name="quotesingle" format="2">
  <advance width="229"/>
  <unicode hex="0027"/>
  <outline>
    <contour>
      <point x="102" y="458" type="line"/>
      <point x="123" y="715" type="line"/>
      <point x="247" y="715" type="line"/>
      <point x="191" y="458" type="line"/>
    </contour>
  </outline>
</glyph>
<glyph name="parenleft" format="2">
  <advance width="335"/>
  <unicode hex="0028"/>
  <outline>
    <contour>
      <point x="149" y="-148" type="line"/>
      <point x="89" y="-59"/>
      <point x="44" y="57"/>
      <point x="44" y="205" type="curve" smooth="yes"/>
      <point x="44" y="437"/>
      <point x="143" y="628"/>
      <point x="292" y="774" type="curve"/>
      <point x="405" y="774" type="line"/>
      <point x="258" y="611"/>
      <point x="163" y="434"/>
      <point x="163" y="200" type="curve" smooth="yes"/>
      <point x="163" y="65"/>
      <point x="197" y="-51"/>
      <point x="252" y="-148" type="curve"/>
    </contour>
  </outline>
</glyph>
<glyph name="parenright" format="2">
  <advance width="335"/>
  <unicode hex="0029"/>
  <outline>
    <contour>
      <point x="200" y="776" type="line"/>
      <point x="260" y="687"/>
      <point x="305" y="571"/>
      <point x="305" y="423" type="curve" smooth="yes"/>
      <point x="305" y="191"/>
      <point x="207" y="0"/>
      <point x="57" y="-146" type="curve"/>
      <point x="-56" y="-146" type="line"/>
      <point x="91" y="17"/>
      <point x="186" y="194"/>
      <point x="186" y="428" type="curve" smooth="yes"/>
      <point x="186" y="563"/>
      <point x="152" y="679"/>
      <point x="97" y="776" type="curve"/>
    </contour>
  </outline>
</glyph>
<glyph name="asterisk" format="2">
  <advance width="429"/>
  <unicode hex="002A"/>
  <outline>
    <contour>
      <point x="170" y="400" type="line"/>
      <point x="102" y="459" type="line"/>
      <point x="202" y="555" type="line"/>
      <point x="85" y="585" type="line"/>
      <point x="127" y="672" type="line"/>
      <point x="233" y="616" type="line"/>
      <point x="240" y="743" type="line"/>
      <point x="340" y="743" type="line"/>
      <point x="306" y="612" type="line"/>
      <point x="428" y="654" type="line"/>
      <point x="441" y="564" type="line"/>
      <point x="316" y="549" type="line"/>
      <point x="386" y="442" type="line"/>
      <point x="301" y="392" type="line"/>
      <point x="252" y="513" type="line"/>
    </contour>
  </outline>
</glyph>
<glyph name="plus" format="2">
  <advance width="539"/>
  <unicode hex="002B"/>
  <outline>
    <contour>
      <point x="192" y="96" type="line"/>
      <point x="223" y="294" type="line"/>
      <point x="40" y="294" type="line"/>
      <point x="55" y="388" type="line"/>
      <point x="238" y="388" type="line"/>
      <point x="269" y="586" type="line"/>
      <point x="370" y="586" type="line"/>
      <point x="339" y="388" type="line"/>
      <point x="521" y="388" type="line"/>
      <point x="506" y="294" type="line"/>
      <point x="324" y="294" type="line"/>
      <point x="293" y="96" type="line"/>
    </contour>
  </outline>
</glyph>
<glyph name="comma" format="2">
  <advance width="292"/>
  <unicode hex="002C"/>
  <outline>
    <contour>
      <point x="55" y="-123" type="line"/>
      <point x="-14" y="-89" type="line"/>
      <point x="99" y="147" type="line"/>
      <point x="207" y="101" type="line"/>
    </contour>
  </outline>
</glyph>
<glyph name="hyphen" format="2">
  <advance width="353"/>
  <unicode hex="002D"/>
  <outline>
    <contour>
      <point x="50" y="229" type="line"/>
      <point x="66" y="329" type="line"/>
      <point x="306" y="329" type="line"/>
      <point x="290" y="229" type="line"/>
    </contour>
  </outline>
</glyph>
<glyph name="period" format="2">
  <advance width="289"/>
  <unicode hex="002E"/>
  <outline>
    <contour>
      <point x="113" y="-7" type="curve" smooth="yes"/>
      <point x="68" y="-7"/>
      <point x="34" y="27"/>
      <point x="34" y="71" type="curve" smooth="yes"/>
      <point x="34" y="115"/>
      <point x="67" y="150"/>
      <point x="112" y="150" type="curve" smooth="yes"/>
      <point x="157" y="150"/>
      <point x="193" y="115"/>
      <point x="193" y="71" type="curve" smooth="yes"/>
      <point x="193" y="27"/>
      <point x="158" y="-7"/>
    </contour>
  </outline>
</glyph>
<glyph name="zero" format="2">
  <advance width="701"/>
  <unicode hex="0030"/>
  <outline>
    <contour>
      <point x="330" y="-10" type="curve" smooth="yes"/>
      <point x="150" y="-10"/>
      <point x="59" y="107"/>
      <point x="58" y="271" type="curve" smooth="yes"/>
      <point x="58" y="299"/>
      <point x="60" y="329"/>
      <point x="65" y="357" type="curve" smooth="yes"/>
      <point x="70" y="391" type="line" smooth="yes"/>
      <point x="104" y="600"/>
      <point x="230" y="725"/>
      <point x="404" y="725" type="curve" smooth="yes"/>
      <point x="580" y="725"/>
      <point x="671" y="606"/>
      <point x="671" y="440" type="curve" smooth="yes"/>
      <point x="671" y="414"/>
      <point x="669" y="384"/>
      <point x="664" y="356" type="curve" smooth="yes"/>
      <point x="659" y="322" type="line" smooth="yes"/>
      <point x="626" y="115"/>
      <point x="507" y="-10"/>
    </contour>
    <contour>
      <point x="336" y="96" type="curve" smooth="yes"/>
      <point x="440" y="96"/>
      <point x="502" y="178"/>
      <point x="527" y="333" type="curve" smooth="yes"/>
      <point x="532" y="366" type="line" smooth="yes"/>
      <point x="536" y="391"/>
      <point x="539" y="419"/>
      <point x="539" y="444" type="curve" smooth="yes"/>
      <point x="539" y="534"/>
      <point x="508" y="621"/>
      <point x="399" y="621" type="curve" smooth="yes"/>
      <point x="297" y="621"/>
      <point x="228" y="537"/>
      <point x="203" y="384" type="curve" smooth="yes"/>
      <point x="198" y="350" type="line" smooth="yes"/>
      <point x="194" y="324"/>
      <point x="190" y="295"/>
      <point x="190" y="268" type="curve" smooth="yes"/>
      <point x="190" y="181"/>
      <point x="221" y="96"/>
    </contour>
  </outline>
</glyph>
<glyph name="one" format="2">
  <advance width="419"/>
  <unicode hex="0031"/>
  <outline>
    <contour>
      <point x="141" y="0" type="line"/>
      <point x="233" y="582" type="line"/>
      <point x="66" y="478" type="line"/>
      <point x="85" y="598" type="line"/>
      <point x="269" y="715" type="line"/>
      <point x="388" y="715" type="line"/>
      <point x="275" y="0" type="line"/>
    </contour>
  </outline>
</glyph>
<glyph name="two" format="2">
  <advance width="578"/>
  <unicode hex="0032"/>
  <outline>
    <contour>
      <point x="-35" y="0" type="line"/>
      <point x="-31" y="24" type="line"/>
      <point x="292" y="307" type="line" smooth="yes"/>
      <point x="363" y="369"/>
      <point x="429" y="438"/>
      <point x="429" y="523" type="curve" smooth="yes"/>
      <point x="429" y="576"/>
      <point x="397" y="621"/>
      <point x="333" y="621" type="curve" smooth="yes"/>
      <point x="266" y="622"/>
      <point x="213" y="587"/>
      <point x="188" y="479" type="curve"/>
      <point x="65" y="479" type="line"/>
      <point x="89" y="646"/>
      <point x="199" y="725"/>
      <point x="343" y="725" type="curve" smooth="yes"/>
      <point x="466" y="725"/>
      <point x="563" y="656"/>
      <point x="563" y="530" type="curve" smooth="yes"/>
      <point x="563" y="414"/>
      <point x="482" y="334"/>
      <point x="386" y="253" type="curve" smooth="yes"/>
      <point x="208" y="103" type="line"/>
      <point x="505" y="103" type="line"/>
      <point x="490" y="0" type="line"/>
    </contour>
  </outline>
</glyph>
<glyph name="three" format="2">
  <advance width="623"/>
  <unicode hex="0033"/>
  <outline>
    <contour>
      <point x="288" y="-10" type="curve" smooth="yes"/>
      <point x="129" y="-10"/>
      <point x="26" y="73"/>
      <point x="26" y="221" type="curve"/>
      <point x="149" y="221" type="line"/>
      <point x="150" y="148"/>
      <point x="188" y="90"/>
      <point x="287" y="90" type="curve" smooth="yes"/>
      <point x="374" y="90"/>
      <point x="428" y="133"/>
      <point x="428" y="222" type="curve" smooth="yes"/>
      <point x="428" y="283"/>
      <point x="392" y="323"/>
      <point x="310" y="323" type="curve" smooth="yes"/>
      <point x="263" y="323" type="line"/>
      <point x="278" y="418" type="line"/>
      <point x="341" y="418" type="line" smooth="yes"/>
      <point x="408" y="418"/>
      <point x="460" y="450"/>
      <point x="460" y="529" type="curve" smooth="yes"/>
      <point x="461" y="590"/>
      <point x="421" y="624"/>
      <point x="358" y="624" type="curve" smooth="yes"/>
      <point x="284" y="624"/>
      <point x="231" y="584"/>
      <point x="213" y="506" type="curve"/>
      <point x="95" y="506" type="line"/>
      <point x="114" y="637"/>
      <point x="220" y="725"/>
      <point x="366" y="725" type="curve" smooth="yes"/>
      <point x="478" y="725"/>
      <point x="589" y="671"/>
      <point x="589" y="541" type="curve" smooth="yes"/>
      <point x="589" y="459"/>
      <point x="539" y="394"/>
      <point x="452" y="370" type="curve"/>
      <point x="522" y="349"/>
      <point x="563" y="295"/>
      <point x="563" y="220" type="curve" smooth="yes"/>
      <point x="563" y="72"/>
      <point x="441" y="-10"/>
    </contour>
  </outline>
</glyph>
<glyph name="four" format="2">
  <advance width="641"/>
  <unicode hex="0034"/>
  <outline>
    <contour>
      <point x="343" y="0" type="line"/>
      <point x="365" y="145" type="line"/>
      <point x="12" y="145" type="line"/>
      <point x="20" y="192" type="line"/>
      <point x="418" y="715" type="line"/>
      <point x="585" y="715" type="line"/>
      <point x="510" y="244" type="line"/>
      <point x="607" y="244" type="line"/>
      <point x="590" y="145" type="line"/>
      <point x="494" y="145" type="line"/>
      <point x="472" y="0" type="line"/>
    </contour>
    <contour>
      <point x="172" y="244" type="line"/>
      <point x="383" y="244" type="line"/>
      <point x="440" y="607" type="line"/>
    </contour>
  </outline>
</glyph>
<glyph name="five" format="2">
  <advance width="604"/>
  <unicode hex="0035"/>
  <outline>
    <contour>
      <point x="271" y="-10" type="curve" smooth="yes"/>
      <point x="136" y="-10"/>
      <point x="29" y="58"/>
      <point x="26" y="205" type="curve"/>
      <point x="152" y="205" type="line"/>
      <point x="156" y="137"/>
      <point x="191" y="93"/>
      <point x="272" y="93" type="curve" smooth="yes"/>
      <point x="363" y="93"/>
      <point x="417" y="157"/>
      <point x="418" y="258" type="curve" smooth="yes"/>
      <point x="418" y="330"/>
      <point x="377" y="379"/>
      <point x="295" y="379" type="curve" smooth="yes"/>
      <point x="227" y="379"/>
      <point x="182" y="352"/>
      <point x="147" y="317" type="curve"/>
      <point x="81" y="317" type="line"/>
      <point x="149" y="715" type="line"/>
      <point x="582" y="715" type="line"/>
      <point x="565" y="610" type="line"/>
      <point x="234" y="610" type="line"/>
      <point x="203" y="420" type="line"/>
      <point x="235" y="450"/>
      <point x="285" y="476"/>
      <point x="353" y="476" type="curve" smooth="yes"/>
      <point x="473" y="476"/>
      <point x="554" y="397"/>
      <point x="553" y="268" type="curve" smooth="yes"/>
      <point x="553" y="105"/>
      <point x="441" y="-10"/>
    </contour>
  </outline>
</glyph>
<glyph name="six" format="2">
  <advance width="641"/>
  <unicode hex="0036"/>
  <outline>
    <contour>
      <point x="313" y="-10" type="curve" smooth="yes"/>
      <point x="148" y="-10"/>
      <point x="54" y="80"/>
      <point x="55" y="249" type="curve" smooth="yes"/>
      <point x="55" y="279"/>
      <point x="58" y="311"/>
      <point x="63" y="344" type="curve" smooth="yes"/>
      <point x="68" y="373" type="line" smooth="yes"/>
      <point x="97" y="554"/>
      <point x="198" y="725"/>
      <point x="400" y="725" type="curve" smooth="yes"/>
      <point x="529" y="725"/>
      <point x="615" y="661"/>
      <point x="621" y="536" type="curve"/>
      <point x="496" y="536" type="line"/>
      <point x="491" y="588"/>
      <point x="465" y="622"/>
      <point x="395" y="622" type="curve" smooth="yes"/>
      <point x="276" y="622"/>
      <point x="223" y="505"/>
      <point x="200" y="380" type="curve"/>
      <point x="240" y="432"/>
      <point x="299" y="466"/>
      <point x="378" y="466" type="curve" smooth="yes"/>
      <point x="495" y="466"/>
      <point x="591" y="388"/>
      <point x="591" y="259" type="curve" smooth="yes"/>
      <point x="591" y="101"/>
      <point x="474" y="-10"/>
    </contour>
    <contour>
      <point x="186" y="216" type="curve" smooth="yes"/>
      <point x="186" y="147"/>
      <point x="226" y="88"/>
      <point x="314" y="88" type="curve" smooth="yes"/>
      <point x="401" y="88"/>
      <point x="458" y="160"/>
      <point x="458" y="252" type="curve" smooth="yes"/>
      <point x="458" y="317"/>
      <point x="420" y="374"/>
      <point x="334" y="374" type="curve" smooth="yes"/>
      <point x="249" y="374"/>
      <point x="186" y="305"/>
    </contour>
  </outline>
</glyph>
<glyph name="seven" format="2">
  <advance width="545"/>
  <unicode hex="0037"/>
  <outline>
    <contour>
      <point x="78" y="0" type="line"/>
      <point x="408" y="607" type="line"/>
      <point x="80" y="607" type="line"/>
      <point x="97" y="715" type="line"/>
      <point x="597" y="715" type="line"/>
      <point x="594" y="699" type="line"/>
      <point x="216" y="0" type="line"/>
    </contour>
  </outline>
</glyph>
<glyph name="eight" format="2">
  <advance width="627"/>
  <unicode hex="0038"/>
  <outline>
    <contour>
      <point x="296" y="-10" type="curve" smooth="yes"/>
      <point x="166" y="-10"/>
      <point x="38" y="54"/>
      <point x="38" y="187" type="curve" smooth="yes"/>
      <point x="38" y="292"/>
      <point x="105" y="361"/>
      <point x="201" y="390" type="curve"/>
      <point x="148" y="415"/>
      <point x="115" y="465"/>
      <point x="115" y="522" type="curve" smooth="yes"/>
      <point x="115" y="648"/>
      <point x="231" y="725"/>
      <point x="366" y="725" type="curve" smooth="yes"/>
      <point x="476" y="725"/>
      <point x="594" y="664"/>
      <point x="594" y="542" type="curve" smooth="yes"/>
      <point x="594" y="456"/>
      <point x="542" y="405"/>
      <point x="464" y="379" type="curve"/>
      <point x="533" y="351"/>
      <point x="574" y="290"/>
      <point x="574" y="219" type="curve" smooth="yes"/>
      <point x="574" y="69"/>
      <point x="450" y="-10"/>
    </contour>
    <contour>
      <point x="173" y="205" type="curve" smooth="yes"/>
      <point x="173" y="134"/>
      <point x="228" y="90"/>
      <point x="302" y="90" type="curve" smooth="yes"/>
      <point x="384" y="90"/>
      <point x="442" y="138"/>
      <point x="442" y="224" type="curve" smooth="yes"/>
      <point x="442" y="293"/>
      <point x="389" y="336"/>
      <point x="319" y="336" type="curve" smooth="yes"/>
      <point x="237" y="336"/>
      <point x="173" y="291"/>
    </contour>
    <contour>
      <point x="241" y="519" type="curve" smooth="yes"/>
      <point x="241" y="465"/>
      <point x="284" y="423"/>
      <point x="351" y="423" type="curve" smooth="yes"/>
      <point x="410" y="423"/>
      <point x="467" y="455"/>
      <point x="467" y="531" type="curve" smooth="yes"/>
      <point x="467" y="587"/>
      <point x="424" y="629"/>
      <point x="360" y="629" type="curve" smooth="yes"/>
      <point x="297" y="629"/>
      <point x="241" y="593"/>
    </contour>
  </outline>
</glyph>
<glyph name="nine" format="2">
  <advance width="642"/>
  <unicode hex="0039"/>
  <outline>
    <contour>
      <point x="273" y="-9" type="curve" smooth="yes"/>
      <point x="148" y="-9"/>
      <point x="45" y="47"/>
      <point x="36" y="186" type="curve"/>
      <point x="162" y="186" type="line"/>
      <point x="172" y="117"/>
      <point x="213" y="94"/>
      <point x="280" y="94" type="curve" smooth="yes"/>
      <point x="377" y="94"/>
      <point x="440" y="174"/>
      <point x="467" y="331" type="curve"/>
      <point x="429" y="281"/>
      <point x="369" y="249"/>
      <point x="290" y="249" type="curve" smooth="yes"/>
      <point x="178" y="249"/>
      <point x="77" y="318"/>
      <point x="77" y="454" type="curve" smooth="yes"/>
      <point x="77" y="614"/>
      <point x="196" y="726"/>
      <point x="360" y="726" type="curve" smooth="yes"/>
      <point x="521" y="726"/>
      <point x="611" y="632"/>
      <point x="612" y="467" type="curve" smooth="yes"/>
      <point x="612" y="437"/>
      <point x="610" y="405"/>
      <point x="604" y="371" type="curve" smooth="yes"/>
      <point x="599" y="335" type="line"/>
      <point x="561" y="103"/>
      <point x="450" y="-9"/>
    </contour>
    <contour>
      <point x="209" y="463" type="curve" smooth="yes"/>
      <point x="209" y="392"/>
      <point x="248" y="342"/>
      <point x="322" y="342" type="curve" smooth="yes"/>
      <point x="410" y="342"/>
      <point x="481" y="395"/>
      <point x="481" y="499" type="curve" smooth="yes"/>
      <point x="481" y="566"/>
      <point x="445" y="627"/>
      <point x="357" y="627" type="curve" smooth="yes"/>
      <point x="270" y="627"/>
      <point x="209" y="559"/>
    </contour>
  </outline>
</glyph>
<glyph name="colon" format="2">
  <advance width="297"/>
  <unicode hex="003A"/>
  <outline>
    <contour>
      <point x="116" y="-7" type="curve" smooth="yes"/>
      <point x="72" y="-7"/>
      <point x="37" y="27"/>
      <point x="37" y="71" type="curve" smooth="yes"/>
      <point x="37" y="115"/>
      <point x="71" y="150"/>
      <point x="115" y="150" type="curve" smooth="yes"/>
      <point x="160" y="150"/>
      <point x="196" y="115"/>
      <point x="196" y="71" type="curve" smooth="yes"/>
      <point x="196" y="27"/>
      <point x="161" y="-7"/>
    </contour>
    <contour>
      <point x="163" y="285" type="curve" smooth="yes"/>
      <point x="119" y="285"/>
      <point x="84" y="320"/>
      <point x="84" y="364" type="curve" smooth="yes"/>
      <point x="84" y="408"/>
      <point x="118" y="442"/>
      <point x="162" y="442" type="curve" smooth="yes"/>
      <point x="207" y="442"/>
      <point x="244" y="408"/>
      <point x="244" y="364" type="curve" smooth="yes"/>
      <point x="244" y="320"/>
      <point x="208" y="285"/>
    </contour>
  </outline>
</glyph>
<glyph name="semicolon" format="2">
  <advance width="303"/>
  <unicode hex="003B"/>
  <outline>
    <contour>
      <point x="44" y="-123" type="line"/>
      <point x="-25" y="-89" type="line"/>
      <point x="88" y="147" type="line"/>
      <point x="196" y="101" type="line"/>
    </contour>
    <contour>
      <point x="177" y="285" type="curve" smooth="yes"/>
      <point x="133" y="285"/>
      <point x="98" y="320"/>
      <point x="98" y="364" type="curve" smooth="yes"/>
      <point x="98" y="408"/>
      <point x="132" y="442"/>
      <point x="176" y="442" type="curve" smooth="yes"/>
      <point x="221" y="442"/>
      <point x="257" y="408"/>
      <point x="257" y="364" type="curve" smooth="yes"/>
      <point x="257" y="320"/>
      <point x="222" y="285"/>
    </contour>
  </outline>
</glyph>
<glyph name="less" format="2">
  <advance width="507"/>
  <unicode hex="003C"/>
  <outline>
    <contour>
      <point x="418" y="81" type="line"/>
      <point x="55" y="314" type="line"/>
      <point x="59" y="340" type="line"/>
      <point x="494" y="563" type="line"/>
      <point x="476" y="448" type="line"/>
      <point x="221" y="323" type="line"/>
      <point x="435" y="189" type="line"/>
    </contour>
  </outline>
</glyph>
<glyph name="greater" format="2">
  <advance width="507"/>
  <unicode hex="003E"/>
  <outline>
    <contour>
      <point x="106" y="564" type="line"/>
      <point x="469" y="331" type="line"/>
      <point x="465" y="305" type="line"/>
      <point x="31" y="81" type="line"/>
      <point x="48" y="198" type="line"/>
      <point x="304" y="323" type="line"/>
      <point x="89" y="457" type="line"/>
    </contour>
  </outline>
</glyph>
<glyph name="question" format="2">
  <advance width="515"/>
  <unicode hex="003F"/>
  <outline>
    <contour>
      <point x="166" y="215" type="line"/>
      <point x="172" y="254" type="line" smooth="yes"/>
      <point x="186" y="344"/>
      <point x="250" y="390"/>
      <point x="304" y="431" type="curve" smooth="yes"/>
      <point x="353" y="467"/>
      <point x="389" y="495"/>
      <point x="389" y="551" type="curve" smooth="yes"/>
      <point x="389" y="597"/>
      <point x="358" y="625"/>
      <point x="303" y="625" type="curve" smooth="yes"/>
      <point x="244" y="625"/>
      <point x="198" y="587"/>
      <point x="185" y="512" type="curve"/>
      <point x="68" y="512" type="line"/>
      <point x="86" y="651"/>
      <point x="183" y="725"/>
      <point x="310" y="724" type="curve" smooth="yes"/>
      <point x="447" y="724"/>
      <point x="516" y="648"/>
      <point x="516" y="557" type="curve" smooth="yes"/>
      <point x="516" y="464"/>
      <point x="459" y="418"/>
      <point x="397" y="373" type="curve" smooth="yes"/>
      <point x="347" y="336"/>
      <point x="291" y="305"/>
      <point x="281" y="241" type="curve" smooth="yes"/>
      <point x="277" y="215" type="line"/>
    </contour>
    <contour>
      <point x="203" y="-7" type="curve" smooth="yes"/>
      <point x="158" y="-7"/>
      <point x="124" y="27"/>
      <point x="124" y="70" type="curve" smooth="yes"/>
      <point x="124" y="114"/>
      <point x="158" y="149"/>
      <point x="203" y="149" type="curve" smooth="yes"/>
      <point x="247" y="149"/>
      <point x="283" y="114"/>
      <point x="283" y="71" type="curve" smooth="yes"/>
      <point x="283" y="27"/>
      <point x="247" y="-7"/>
    </contour>
  </outline>
</glyph>
<glyph name="at" format="2">
  <advance width="916"/>
  <unicode hex="0040"/>
  <outline>
    <contour>
      <point x="685" y="460" type="line"/>
      <point x="644" y="200" type="line" smooth="yes"/>
      <point x="637" y="150"/>
      <point x="652" y="126"/>
      <point x="689" y="126" type="curve" smooth="yes"/>
      <point x="745" y="126"/>
      <point x="807" y="183"/>
      <point x="807" y="323" type="curve" smooth="yes"/>
      <point x="807" y="501"/>
      <point x="684" y="622"/>
      <point x="479" y="622" type="curve" smooth="yes"/>
      <point x="276" y="622"/>
      <point x="122" y="475"/>
      <point x="122" y="257" type="curve" smooth="yes"/>
      <point x="122" y="72"/>
      <point x="238" y="-84"/>
      <point x="465" y="-84" type="curve" smooth="yes"/>
      <point x="576" y="-84"/>
      <point x="651" y="-51"/>
      <point x="709" y="0" type="curve"/>
      <point x="791" y="0" type="line"/>
      <point x="735" y="-90"/>
      <point x="611" y="-151"/>
      <point x="463" y="-151" type="curve" smooth="yes"/>
      <point x="195" y="-151"/>
      <point x="42" y="38"/>
      <point x="42" y="257" type="curve" smooth="yes"/>
      <point x="42" y="509"/>
      <point x="245" y="689"/>
      <point x="479" y="689" type="curve" smooth="yes"/>
      <point x="717" y="689"/>
      <point x="882" y="535"/>
      <point x="882" y="324" type="curve" smooth="yes"/>
      <point x="882" y="132"/>
      <point x="769" y="61"/>
      <point x="677" y="61" type="curve" smooth="yes"/>
      <point x="598" y="61"/>
      <point x="561" y="95"/>
      <point x="550" y="145" type="curve"/>
      <point x="523" y="93"/>
      <point x="476" y="56"/>
      <point x="406" y="56" type="curve" smooth="yes"/>
      <point x="311" y="56"/>
      <point x="248" y="120"/>
      <point x="248" y="229" type="curve" smooth="yes"/>
      <point x="248" y="368"/>
      <point x="337" y="468"/>
      <point x="452" y="468" type="curve" smooth="yes"/>
      <point x="520" y="468"/>
      <point x="554" y="437"/>
      <point x="567" y="403" type="curve"/>
      <point x="576" y="460" type="line"/>
    </contour>
    <contour>
      <point x="437" y="141" type="curve" smooth="yes"/>
      <point x="495" y="141"/>
      <point x="550" y="202"/>
      <point x="550" y="293" type="curve" smooth="yes"/>
      <point x="550" y="351"/>
      <point x="517" y="382"/>
      <point x="468" y="382" type="curve" smooth="yes"/>
      <point x="407" y="382"/>
      <point x="358" y="326"/>
      <point x="359" y="231" type="curve" smooth="yes"/>
      <point x="359" y="173"/>
      <point x="391" y="141"/>
    </contour>
  </outline>
</glyph>
<glyph name="B" format="2">
  <advance width="645"/>
  <unicode hex="0042"/>
  <outline>
    <contour>
      <point x="40" y="0" type="line"/>
      <point x="153" y="715" type="line"/>
      <point x="390" y="715" type="line" smooth="yes"/>
      <point x="535" y="715"/>
      <point x="608" y="656"/>
      <point x="607" y="545" type="curve" smooth="yes"/>
      <point x="607" y="454"/>
      <point x="559" y="396"/>
      <point x="470" y="371" type="curve"/>
      <point x="547" y="353"/>
      <point x="592" y="303"/>
      <point x="593" y="217" type="curve" smooth="yes"/>
      <point x="593" y="85"/>
      <point x="490" y="0"/>
      <point x="332" y="0" type="curve" smooth="yes"/>
    </contour>
    <contour>
      <point x="184" y="95" type="line"/>
      <point x="320" y="95" type="line" smooth="yes"/>
      <point x="416" y="95"/>
      <point x="463" y="148"/>
      <point x="463" y="223" type="curve" smooth="yes"/>
      <point x="463" y="289"/>
      <point x="426" y="324"/>
      <point x="333" y="324" type="curve" smooth="yes"/>
      <point x="221" y="324" type="line"/>
    </contour>
    <contour>
      <point x="235" y="414" type="line"/>
      <point x="346" y="414" type="line" smooth="yes"/>
      <point x="438" y="414"/>
      <point x="482" y="455"/>
      <point x="482" y="532" type="curve" smooth="yes"/>
      <point x="482" y="593"/>
      <point x="449" y="620"/>
      <point x="373" y="620" type="curve" smooth="yes"/>
      <point x="268" y="620" type="line"/>
    </contour>
  </outline>
</glyph>
<glyph name="D" format="2">
  <advance width="718"/>
  <unicode hex="0044"/>
  <outline>
    <contour>
      <point x="40" y="0" type="line"/>
      <point x="153" y="715" type="line"/>
      <point x="349" y="715" type="line" smooth="yes"/>
      <point x="588" y="715"/>
      <point x="694" y="591"/>
      <point x="695" y="410" type="curve" smooth="yes"/>
      <point x="695" y="170"/>
      <point x="542" y="0"/>
      <point x="281" y="0" type="curve" smooth="yes"/>
    </contour>
    <contour>
      <point x="190" y="105" type="line"/>
      <point x="279" y="105" type="line" smooth="yes"/>
      <point x="456" y="105"/>
      <point x="557" y="217"/>
      <point x="557" y="406" type="curve" smooth="yes"/>
      <point x="557" y="528"/>
      <point x="496" y="611"/>
      <point x="345" y="611" type="curve" smooth="yes"/>
      <point x="270" y="611" type="line"/>
    </contour>
  </outline>
</glyph>
<glyph name="F" format="2">
  <advance width="566"/>
  <unicode hex="0046"/>
  <outline>
    <contour>
      <point x="40" y="0" type="line"/>
      <point x="153" y="715" type="line"/>
      <point x="596" y="715" type="line"/>
      <point x="579" y="609" type="line"/>
      <point x="269" y="609" type="line"/>
      <point x="236" y="396" type="line"/>
      <point x="479" y="396" type="line"/>
      <point x="463" y="293" type="line"/>
      <point x="219" y="293" type="line"/>
      <point x="173" y="0" type="line"/>
    </contour>
  </outline>
</glyph>
<glyph name="J" format="2">
  <advance width="443"/>
  <unicode hex="004A"/>
  <outline>
    <contour>
      <point x="126" y="-9" type="curve" smooth="yes"/>
      <point x="53" y="-9"/>
      <point x="18" y="7"/>
      <point x="-4" y="19" type="curve"/>
      <point x="12" y="121" type="line"/>
      <point x="37" y="110"/>
      <point x="66" y="98"/>
      <point x="110" y="98" type="curve" smooth="yes"/>
      <point x="174" y="98"/>
      <point x="214" y="130"/>
      <point x="226" y="209" type="curve" smooth="yes"/>
      <point x="306" y="715" type="line"/>
      <point x="440" y="715" type="line"/>
      <point x="358" y="201" type="line" smooth="yes"/>
      <point x="335" y="55"/>
      <point x="247" y="-9"/>
    </contour>
  </outline>
</glyph>
<glyph name="K" format="2">
  <advance width="659"/>
  <unicode hex="004B"/>
  <outline>
    <contour>
      <point x="40" y="0" type="line"/>
      <point x="153" y="715" type="line"/>
      <point x="286" y="715" type="line"/>
      <point x="235" y="395" type="line"/>
      <point x="560" y="715" type="line"/>
      <point x="708" y="715" type="line"/>
      <point x="354" y="371" type="line"/>
      <point x="603" y="0" type="line"/>
      <point x="457" y="0" type="line"/>
      <point x="227" y="344" type="line"/>
      <point x="173" y="0" type="line"/>
    </contour>
  </outline>
</glyph>
<glyph name="M" format="2">
  <advance width="889"/>
  <unicode hex="004D"/>
  <outline>
    <contour>
      <point x="40" y="0" type="line"/>
      <point x="153" y="715" type="line"/>
      <point x="326" y="715" type="line"/>
      <point x="437" y="228" type="line"/>
      <point x="698" y="715" type="line"/>
      <point x="879" y="715" type="line"/>
      <point x="766" y="0" type="line"/>
      <point x="633" y="0" type="line"/>
      <point x="718" y="541" type="line"/>
      <point x="420" y="0" type="line"/>
      <point x="377" y="0" type="line"/>
      <point x="246" y="541" type="line"/>
      <point x="160" y="0" type="line"/>
    </contour>
  </outline>
</glyph>
<glyph name="N" format="2">
  <advance width="745"/>
  <unicode hex="004E"/>
  <outline>
    <contour>
      <point x="40" y="0" type="line"/>
      <point x="153" y="715" type="line"/>
      <point x="312" y="715" type="line"/>
      <point x="530" y="198" type="line"/>
      <point x="612" y="715" type="line"/>
      <point x="734" y="715" type="line"/>
      <point x="621" y="0" type="line"/>
      <point x="483" y="0" type="line"/>
      <point x="248" y="548" type="line"/>
      <point x="162" y="0" type="line"/>
    </contour>
  </outline>
</glyph>
<glyph name="O" format="2">
  <advance width="814"/>
  <unicode hex="004F"/>
  <outline>
    <contour>
      <point x="785" y="405" type="curve" smooth="yes"/>
      <point x="785" y="163"/>
      <point x="618" y="-10"/>
      <point x="393" y="-10" type="curve" smooth="yes"/>
      <point x="198" y="-10"/>
      <point x="59" y="117"/>
      <point x="59" y="308" type="curve" smooth="yes"/>
      <point x="59" y="544"/>
      <point x="226" y="725"/>
      <point x="452" y="725" type="curve" smooth="yes"/>
      <point x="655" y="725"/>
      <point x="785" y="591"/>
    </contour>
    <contour>
      <point x="647" y="402" type="curve" smooth="yes"/>
      <point x="647" y="522"/>
      <point x="580" y="618"/>
      <point x="449" y="619" type="curve" smooth="yes"/>
      <point x="291" y="619"/>
      <point x="197" y="475"/>
      <point x="197" y="311" type="curve" smooth="yes"/>
      <point x="197" y="179"/>
      <point x="277" y="96"/>
      <point x="399" y="96" type="curve" smooth="yes"/>
      <point x="551" y="96"/>
      <point x="647" y="232"/>
    </contour>
  </outline>
</glyph>
<glyph name="P" format="2">
  <advance width="609"/>
  <unicode hex="0050"/>
  <outline>
    <contour>
      <point x="40" y="0" type="line"/>
      <point x="153" y="715" type="line"/>
      <point x="375" y="715" type="line" smooth="yes"/>
      <point x="521" y="715"/>
      <point x="612" y="647"/>
      <point x="612" y="522" type="curve" smooth="yes"/>
      <point x="612" y="346"/>
      <point x="484" y="272"/>
      <point x="329" y="272" type="curve" smooth="yes"/>
      <point x="216" y="272" type="line"/>
      <point x="173" y="0" type="line"/>
    </contour>
    <contour>
      <point x="231" y="368" type="line"/>
      <point x="329" y="368" type="line" smooth="yes"/>
      <point x="431" y="368"/>
      <point x="483" y="420"/>
      <point x="483" y="512" type="curve" smooth="yes"/>
      <point x="483" y="581"/>
      <point x="443" y="613"/>
      <point x="360" y="613" type="curve" smooth="yes"/>
      <point x="270" y="613" type="line"/>
    </contour>
  </outline>
</glyph>
<glyph name="Q" format="2">
  <advance width="814"/>
  <unicode hex="0051"/>
  <outline>
    <contour>
      <point x="393" y="-11" type="curve" smooth="yes"/>
      <point x="198" y="-11"/>
      <point x="59" y="116"/>
      <point x="59" y="307" type="curve" smooth="yes"/>
      <point x="59" y="543"/>
      <point x="226" y="723"/>
      <point x="452" y="723" type="curve" smooth="yes"/>
      <point x="655" y="723"/>
      <point x="785" y="590"/>
      <point x="785" y="404" type="curve" smooth="yes"/>
      <point x="785" y="264"/>
      <point x="729" y="147"/>
      <point x="638" y="74" type="curve"/>
      <point x="713" y="-14" type="line"/>
      <point x="626" y="-90" type="line"/>
      <point x="537" y="15" type="line"/>
      <point x="493" y="-2"/>
      <point x="444" y="-11"/>
    </contour>
    <contour>
      <point x="399" y="93" type="curve" smooth="yes"/>
      <point x="422" y="93"/>
      <point x="443" y="96"/>
      <point x="463" y="102" type="curve"/>
      <point x="402" y="175" type="line"/>
      <point x="489" y="251" type="line"/>
      <point x="563" y="163" type="line"/>
      <point x="616" y="219"/>
      <point x="647" y="304"/>
      <point x="647" y="401" type="curve" smooth="yes"/>
      <point x="647" y="520"/>
      <point x="580" y="618"/>
      <point x="449" y="618" type="curve" smooth="yes"/>
      <point x="291" y="618"/>
      <point x="197" y="474"/>
      <point x="197" y="310" type="curve" smooth="yes"/>
      <point x="197" y="179"/>
      <point x="277" y="93"/>
    </contour>
  </outline>
</glyph>
<glyph name="S" format="2">
  <advance width="635"/>
  <unicode hex="0053"/>
  <outline>
    <contour>
      <point x="306" y="-10" type="curve" smooth="yes"/>
      <point x="120" y="-10"/>
      <point x="26" y="91"/>
      <point x="26" y="222" type="curve"/>
      <point x="154" y="222" type="line"/>
      <point x="157" y="154"/>
      <point x="199" y="90"/>
      <point x="311" y="90" type="curve" smooth="yes"/>
      <point x="400" y="89"/>
      <point x="449" y="133"/>
      <point x="449" y="204" type="curve" smooth="yes"/>
      <point x="449" y="257"/>
      <point x="419" y="283"/>
      <point x="316" y="311" type="curve" smooth="yes"/>
      <point x="166" y="349"/>
      <point x="97" y="397"/>
      <point x="97" y="511" type="curve" smooth="yes"/>
      <point x="97" y="629"/>
      <point x="195" y="724"/>
      <point x="355" y="724" type="curve" smooth="yes"/>
      <point x="506" y="724"/>
      <point x="601" y="654"/>
      <point x="602" y="517" type="curve"/>
      <point x="480" y="517" type="line"/>
      <point x="473" y="596"/>
      <point x="423" y="624"/>
      <point x="348" y="624" type="curve" smooth="yes"/>
      <point x="264" y="624"/>
      <point x="225" y="581"/>
      <point x="225" y="523" type="curve" smooth="yes"/>
      <point x="225" y="476"/>
      <point x="253" y="453"/>
      <point x="359" y="424" type="curve" smooth="yes"/>
      <point x="508" y="384"/>
      <point x="580" y="335"/>
      <point x="580" y="221" type="curve" smooth="yes"/>
      <point x="580" y="87"/>
      <point x="479" y="-10"/>
    </contour>
  </outline>
</glyph>
<glyph name="T" format="2">
  <advance width="583"/>
  <unicode hex="0054"/>
  <outline>
    <contour>
      <point x="182" y="0" type="line"/>
      <point x="278" y="610" type="line"/>
      <point x="79" y="610" type="line"/>
      <point x="96" y="715" type="line"/>
      <point x="628" y="715" type="line"/>
      <point x="610" y="610" type="line"/>
      <point x="412" y="610" type="line"/>
      <point x="316" y="0" type="line"/>
    </contour>
  </outline>
</glyph>
<glyph name="X" format="2">
  <advance width="653"/>
  <unicode hex="0058"/>
  <outline>
    <contour>
      <point x="-22" y="0" type="line"/>
      <point x="264" y="374" type="line"/>
      <point x="107" y="715" type="line"/>
      <point x="248" y="715" type="line"/>
      <point x="363" y="458" type="line"/>
      <point x="551" y="715" type="line"/>
      <point x="689" y="715" type="line"/>
      <point x="426" y="363" type="line"/>
      <point x="594" y="0" type="line"/>
      <point x="450" y="0" type="line"/>
      <point x="325" y="281" type="line"/>
      <point x="117" y="0" type="line"/>
    </contour>
  </outline>
</glyph>
<glyph name="bracketright" format="2">
  <advance width="419"/>
  <unicode hex="005D"/>
  <outline>
    <contour>
      <point x="-24" y="-148" type="line"/>
      <point x="-9" y="-57" type="line"/>
      <point x="125" y="-57" type="line"/>
      <point x="242" y="685" type="line"/>
      <point x="108" y="685" type="line"/>
      <point x="122" y="776" type="line"/>
      <point x="378" y="776" type="line"/>
      <point x="232" y="-148" type="line"/>
    </contour>
  </outline>
</glyph>
<glyph name="asciicircum" format="2">
  <advance width="516"/>
  <unicode hex="005E"/>
  <outline>
    <contour>
      <point x="57" y="402" type="line"/>
      <point x="270" y="715" type="line"/>
      <point x="383" y="715" type="line"/>
      <point x="502" y="402" type="line"/>
      <point x="394" y="402" type="line"/>
      <point x="312" y="615" type="line"/>
      <point x="169" y="402" type="line"/>
    </contour>
  </outline>
</glyph>
<glyph name="underscore" format="2">
  <advance width="410"/>
  <unicode hex="005F"/>
  <outline>
    <contour>
      <point x="-68" y="-159" type="line"/>
      <point x="-56" y="-85" type="line"/>
      <point x="355" y="-85" type="line"/>
      <point x="343" y="-159" type="line"/>
    </contour>
  </outline>
</glyph>
<glyph name="grave" format="2">
  <advance width="400"/>
  <unicode hex="0060"/>
  <outline>
    <contour>
      <point x="218" y="601" type="line"/>
      <point x="129" y="756" type="line"/>
      <point x="261" y="756" type="line"/>
      <point x="305" y="601" type="line"/>
    </contour>
  </outline>
</glyph>
<glyph name="b" format="2">
  <advance width="633"/>
  <unicode hex="0062"/>
  <outline>
    <contour>
      <point x="342" y="-10" type="curve" smooth="yes"/>
      <point x="244" y="-10"/>
      <point x="188" y="40"/>
      <point x="165" y="92" type="curve"/>
      <point x="151" y="0" type="line"/>
      <point x="29" y="0" type="line"/>
      <point x="151" y="765" type="line"/>
      <point x="271" y="765" type="line"/>
      <point x="220" y="439" type="line"/>
      <point x="255" y="495"/>
      <point x="320" y="534"/>
      <point x="398" y="534" type="curve" smooth="yes"/>
      <point x="514" y="534"/>
      <point x="599" y="449"/>
      <point x="599" y="306" type="curve" smooth="yes"/>
      <point x="599" y="125"/>
      <point x="498" y="-10"/>
    </contour>
    <contour>
      <point x="319" y="84" type="curve" smooth="yes"/>
      <point x="416" y="84"/>
      <point x="473" y="174"/>
      <point x="473" y="297" type="curve" smooth="yes"/>
      <point x="473" y="389"/>
      <point x="429" y="440"/>
      <point x="356" y="440" type="curve" smooth="yes"/>
      <point x="259" y="440"/>
      <point x="185" y="356"/>
      <point x="185" y="225" type="curve" smooth="yes"/>
      <point x="185" y="137"/>
      <point x="235" y="84"/>
    </contour>
  </outline>
</glyph>
<glyph name="f" format="2">
  <advance width="354"/>
  <unicode hex="0066"/>
  <outline>
    <contour>
      <point x="44" y="432" type="line"/>
      <point x="58" y="523" type="line"/>
      <point x="129" y="523" type="line"/>
      <point x="143" y="611" type="line" smooth="yes"/>
      <point x="161" y="720"/>
      <point x="236" y="771"/>
      <point x="333" y="771" type="curve" smooth="yes"/>
      <point x="373" y="771"/>
      <point x="393" y="766"/>
      <point x="411" y="758" type="curve"/>
      <point x="397" y="666" type="line"/>
      <point x="383" y="672"/>
      <point x="367" y="676"/>
      <point x="345" y="676" type="curve" smooth="yes"/>
      <point x="296" y="676"/>
      <point x="271" y="648"/>
      <point x="263" y="603" type="curve" smooth="yes"/>
      <point x="250" y="523" type="line"/>
      <point x="370" y="523" type="line"/>
      <point x="355" y="432" type="line"/>
      <point x="236" y="432" type="line"/>
      <point x="167" y="0" type="line"/>
      <point x="47" y="0" type="line"/>
      <point x="115" y="432" type="line"/>
    </contour>
  </outline>
</glyph>
<glyph name="h" format="2">
  <advance width="604"/>
  <unicode hex="0068"/>
  <outline>
    <contour>
      <point x="30" y="0" type="line"/>
      <point x="151" y="765" type="line"/>
      <point x="271" y="765" type="line"/>
      <point x="219" y="434" type="line"/>
      <point x="252" y="487"/>
      <point x="309" y="534"/>
      <point x="394" y="534" type="curve" smooth="yes"/>
      <point x="499" y="534"/>
      <point x="570" y="472"/>
      <point x="545" y="314" type="curve" smooth="yes"/>
      <point x="495" y="0" type="line"/>
      <point x="374" y="0" type="line"/>
      <point x="424" y="320" type="line" smooth="yes"/>
      <point x="437" y="397"/>
      <point x="410" y="434"/>
      <point x="347" y="434" type="curve" smooth="yes"/>
      <point x="272" y="434"/>
      <point x="211" y="385"/>
      <point x="198" y="298" type="curve" smooth="yes"/>
      <point x="151" y="0" type="line"/>
    </contour>
  </outline>
</glyph>
<glyph name="j" format="2">
  <advance width="271"/>
  <unicode hex="006A"/>
  <outline>
    <contour>
      <point x="-68" y="-187" type="curve"/>
      <point x="-54" y="-95" type="line"/>
      <point x="0" y="-92"/>
      <point x="22" y="-68"/>
      <point x="29" y="-23" type="curve" smooth="yes"/>
      <point x="116" y="523" type="line"/>
      <point x="236" y="523" type="line"/>
      <point x="148" y="-33" type="line" smooth="yes"/>
      <point x="134" y="-127"/>
      <point x="78" y="-191"/>
    </contour>
    <contour>
      <point x="198" y="609" type="curve" smooth="yes"/>
      <point x="158" y="609"/>
      <point x="127" y="639"/>
      <point x="127" y="678" type="curve" smooth="yes"/>
      <point x="127" y="717"/>
      <point x="159" y="748"/>
      <point x="199" y="748" type="curve" smooth="yes"/>
      <point x="239" y="748"/>
      <point x="270" y="718"/>
      <point x="270" y="679" type="curve" smooth="yes"/>
      <point x="270" y="640"/>
      <point x="238" y="609"/>
    </contour>
  </outline>
</glyph>
<glyph name="l" format="2">
  <advance width="271"/>
  <unicode hex="006C"/>
  <outline>
    <contour>
      <point x="33" y="0" type="line"/>
      <point x="154" y="765" type="line"/>
      <point x="275" y="765" type="line"/>
      <point x="154" y="0" type="line"/>
    </contour>
  </outline>
</glyph>
<glyph name="m" format="2">
  <advance width="909"/>
  <unicode hex="006D"/>
  <outline>
    <contour>
      <point x="30" y="0" type="line"/>
      <point x="87" y="361" type="line" smooth="yes"/>
      <point x="98" y="434"/>
      <point x="101" y="478"/>
      <point x="103" y="523" type="curve"/>
      <point x="219" y="523" type="line"/>
      <point x="219" y="495"/>
      <point x="218" y="463"/>
      <point x="214" y="429" type="curve"/>
      <point x="250" y="490"/>
      <point x="311" y="534"/>
      <point x="383" y="534" type="curve" smooth="yes"/>
      <point x="455" y="534"/>
      <point x="507" y="501"/>
      <point x="523" y="427" type="curve"/>
      <point x="571" y="505"/>
      <point x="640" y="534"/>
      <point x="703" y="534" type="curve" smooth="yes"/>
      <point x="803" y="534"/>
      <point x="875" y="473"/>
      <point x="850" y="318" type="curve" smooth="yes"/>
      <point x="800" y="0" type="line"/>
      <point x="679" y="0" type="line"/>
      <point x="729" y="317" type="line" smooth="yes"/>
      <point x="742" y="397"/>
      <point x="717" y="434"/>
      <point x="656" y="434" type="curve" smooth="yes"/>
      <point x="597" y="434"/>
      <point x="537" y="393"/>
      <point x="523" y="306" type="curve" smooth="yes"/>
      <point x="475" y="0" type="line"/>
      <point x="355" y="0" type="line"/>
      <point x="405" y="321" type="line" smooth="yes"/>
      <point x="417" y="396"/>
      <point x="391" y="434"/>
      <point x="331" y="434" type="curve" smooth="yes"/>
      <point x="269" y="434"/>
      <point x="212" y="389"/>
      <point x="199" y="306" type="curve" smooth="yes"/>
      <point x="151" y="0" type="line"/>
    </contour>
  </outline>
</glyph>
<glyph name="n" format="2">
  <advance width="604"/>
  <unicode hex="006E"/>
  <outline>
    <contour>
      <point x="30" y="0" type="line"/>
      <point x="87" y="361" type="line" smooth="yes"/>
      <point x="98" y="434"/>
      <point x="101" y="478"/>
      <point x="103" y="523" type="curve"/>
      <point x="219" y="523" type="line"/>
      <point x="219" y="495"/>
      <point x="217" y="458"/>
      <point x="213" y="425" type="curve"/>
      <point x="250" y="486"/>
      <point x="309" y="534"/>
      <point x="394" y="534" type="curve" smooth="yes"/>
      <point x="499" y="534"/>
      <point x="570" y="472"/>
      <point x="545" y="314" type="curve" smooth="yes"/>
      <point x="495" y="0" type="line"/>
      <point x="374" y="0" type="line"/>
      <point x="424" y="320" type="line" smooth="yes"/>
      <point x="437" y="397"/>
      <point x="410" y="434"/>
      <point x="347" y="434" type="curve" smooth="yes"/>
      <point x="272" y="434"/>
      <point x="211" y="385"/>
      <point x="198" y="298" type="curve" smooth="yes"/>
      <point x="151" y="0" type="line"/>
    </contour>
  </outline>
</glyph>
<glyph name="p" format="2">
  <advance width="633"/>
  <unicode hex="0070"/>
  <outline>
    <contour>
      <point x="398" y="534" type="curve" smooth="yes"/>
      <point x="514" y="534"/>
      <point x="599" y="449"/>
      <point x="599" y="306" type="curve" smooth="yes"/>
      <point x="599" y="125"/>
      <point x="499" y="-10"/>
      <point x="342" y="-10" type="curve" smooth="yes"/>
      <point x="244" y="-10"/>
      <point x="188" y="40"/>
      <point x="165" y="92" type="curve"/>
      <point x="122" y="-179" type="line"/>
      <point x="1" y="-179" type="line"/>
      <point x="87" y="361" type="line" smooth="yes"/>
      <point x="98" y="434"/>
      <point x="101" y="478"/>
      <point x="103" y="523" type="curve"/>
      <point x="219" y="523" type="line"/>
      <point x="219" y="496"/>
      <point x="217" y="461"/>
      <point x="214" y="429" type="curve"/>
      <point x="252" y="494"/>
      <point x="319" y="534"/>
    </contour>
    <contour>
      <point x="319" y="84" type="curve" smooth="yes"/>
      <point x="416" y="84"/>
      <point x="473" y="174"/>
      <point x="473" y="297" type="curve" smooth="yes"/>
      <point x="473" y="389"/>
      <point x="429" y="440"/>
      <point x="356" y="440" type="curve" smooth="yes"/>
      <point x="259" y="440"/>
      <point x="185" y="356"/>
      <point x="185" y="225" type="curve" smooth="yes"/>
      <point x="185" y="137"/>
      <point x="235" y="84"/>
    </contour>
  </outline>
</glyph>
<glyph name="q" format="2">
  <advance width="633"/>
  <unicode hex="0071"/>
  <outline>
    <contour>
      <point x="370" y="-179" type="line"/>
      <point x="411" y="77" type="line"/>
      <point x="374" y="23"/>
      <point x="321" y="-10"/>
      <point x="243" y="-10" type="curve" smooth="yes"/>
      <point x="120" y="-10"/>
      <point x="33" y="75"/>
      <point x="33" y="220" type="curve" smooth="yes"/>
      <point x="33" y="400"/>
      <point x="139" y="534"/>
      <point x="300" y="534" type="curve" smooth="yes"/>
      <point x="392" y="534"/>
      <point x="443" y="489"/>
      <point x="467" y="437" type="curve"/>
      <point x="481" y="523" type="line"/>
      <point x="602" y="523" type="line"/>
      <point x="491" y="-179" type="line"/>
    </contour>
    <contour>
      <point x="280" y="84" type="curve" smooth="yes"/>
      <point x="375" y="84"/>
      <point x="447" y="161"/>
      <point x="447" y="301" type="curve" smooth="yes"/>
      <point x="447" y="388"/>
      <point x="395" y="440"/>
      <point x="319" y="440" type="curve" smooth="yes"/>
      <point x="219" y="440"/>
      <point x="159" y="351"/>
      <point x="159" y="227" type="curve" smooth="yes"/>
      <point x="159" y="138"/>
      <point x="203" y="84"/>
    </contour>
  </outline>
</glyph>
<glyph name="r" format="2">
  <advance width="396"/>
  <unicode hex="0072"/>
  <outline>
    <contour>
      <point x="30" y="0" type="line"/>
      <point x="87" y="361" type="line" smooth="yes"/>
      <point x="98" y="434"/>
      <point x="101" y="478"/>
      <point x="102" y="523" type="curve"/>
      <point x="218" y="523" type="line"/>
      <point x="218" y="495"/>
      <point x="216" y="455"/>
      <point x="212" y="414" type="curve"/>
      <point x="255" y="489"/>
      <point x="306" y="530"/>
      <point x="404" y="531" type="curve"/>
      <point x="386" y="418" type="line"/>
      <point x="279" y="417"/>
      <point x="210" y="377"/>
      <point x="191" y="256" type="curve" smooth="yes"/>
      <point x="151" y="0" type="line"/>
    </contour>
  </outline>
</glyph>
<glyph name="w" format="2">
  <advance width="792"/>
  <unicode hex="0077"/>
  <outline>
    <contour>
      <point x="129" y="0" type="line"/>
      <point x="58" y="523" type="line"/>
      <point x="183" y="523" type="line"/>
      <point x="222" y="141" type="line"/>
      <point x="390" y="523" type="line"/>
      <point x="491" y="523" type="line"/>
      <point x="533" y="141" type="line"/>
      <point x="695" y="523" type="line"/>
      <point x="816" y="523" type="line"/>
      <point x="574" y="0" type="line"/>
      <point x="451" y="0" type="line"/>
      <point x="412" y="356" type="line"/>
      <point x="253" y="0" type="line"/>
    </contour>
  </outline>
</glyph>
<glyph name="x" format="2">
  <advance width="529"/>
  <unicode hex="0078"/>
  <outline>
    <contour>
      <point x="-32" y="0" type="line"/>
      <point x="190" y="274" type="line"/>
      <point x="62" y="523" type="line"/>
      <point x="196" y="523" type="line"/>
      <point x="279" y="356" type="line"/>
      <point x="411" y="523" type="line"/>
      <point x="542" y="523" type="line"/>
      <point x="335" y="270" type="line"/>
      <point x="476" y="0" type="line"/>
      <point x="341" y="0" type="line"/>
      <point x="250" y="188" type="line"/>
      <point x="99" y="0" type="line"/>
    </contour>
  </outline>
</glyph>
<glyph name="z" format="2">
  <advance width="487"/>
  <unicode hex="007A"/>
  <outline>
    <contour>
      <point x="-25" y="0" type="line"/>
      <point x="-23" y="14" type="line"/>
      <point x="309" y="428" type="line"/>
      <point x="68" y="428" type="line"/>
      <point x="82" y="523" type="line"/>
      <point x="505" y="523" type="line"/>
      <point x="502" y="506" type="line"/>
      <point x="173" y="97" type="line"/>
      <point x="433" y="97" type="line"/>
      <point x="417" y="0" type="line"/>
    </contour>
  </outline>
</glyph>
<glyph name="braceleft" format="2">
  <advance width="396"/>
  <unicode hex="007B"/>
  <outline>
    <contour>
      <point x="288" y="-147" type="line"/>
      <point x="122" y="-141"/>
      <point x="51" y="-62"/>
      <point x="101" y="83" type="curve" smooth="yes"/>
      <point x="132" y="169" type="line" smooth="yes"/>
      <point x="153" y="230"/>
      <point x="132" y="274"/>
      <point x="39" y="278" type="curve"/>
      <point x="52" y="364" type="line"/>
      <point x="145" y="362"/>
      <point x="179" y="397"/>
      <point x="177" y="466" type="curve" smooth="yes"/>
      <point x="175" y="563" type="line" smooth="yes"/>
      <point x="172" y="725"/>
      <point x="257" y="780"/>
      <point x="435" y="778" type="curve"/>
      <point x="420" y="689" type="line"/>
      <point x="322" y="687"/>
      <point x="291" y="657"/>
      <point x="291" y="559" type="curve" smooth="yes"/>
      <point x="291" y="460" type="line" smooth="yes"/>
      <point x="291" y="374"/>
      <point x="244" y="331"/>
      <point x="172" y="315" type="curve"/>
      <point x="243" y="296"/>
      <point x="271" y="242"/>
      <point x="244" y="160" type="curve" smooth="yes"/>
      <point x="216" y="76" type="line" smooth="yes"/>
      <point x="184" y="-19"/>
      <point x="210" y="-52"/>
      <point x="302" y="-58" type="curve"/>
    </contour>
  </outline>
</glyph>
<glyph name="braceright" format="2">
  <advance width="396"/>
  <unicode hex="007D"/>
  <outline>
    <contour>
      <point x="122" y="778" type="line"/>
      <point x="289" y="772"/>
      <point x="358" y="693"/>
      <point x="309" y="548" type="curve" smooth="yes"/>
      <point x="279" y="461" type="line" smooth="yes"/>
      <point x="258" y="401"/>
      <point x="279" y="356"/>
      <point x="371" y="348" type="curve"/>
      <point x="359" y="262" type="line"/>
      <point x="265" y="268"/>
      <point x="233" y="236"/>
      <point x="234" y="166" type="curve" smooth="yes"/>
      <point x="236" y="68" type="line" smooth="yes"/>
      <point x="238" y="-94"/>
      <point x="153" y="-149"/>
      <point x="-24" y="-147" type="curve"/>
      <point x="-10" y="-58" type="line"/>
      <point x="89" y="-56"/>
      <point x="120" y="-26"/>
      <point x="119" y="72" type="curve" smooth="yes"/>
      <point x="119" y="176" type="line" smooth="yes"/>
      <point x="119" y="264"/>
      <point x="168" y="302"/>
      <point x="239" y="314" type="curve"/>
      <point x="167" y="335"/>
      <point x="139" y="392"/>
      <point x="165" y="466" type="curve" smooth="yes"/>
      <point x="194" y="555" type="line" smooth="yes"/>
      <point x="226" y="650"/>
      <point x="201" y="683"/>
      <point x="108" y="689" type="curve"/>
    </contour>
  </outline>
</glyph>
<glyph name="asciitilde" format="2">
  <advance width="474"/>
  <unicode hex="007E"/>
  <outline>
    <contour>
      <point x="33" y="220" type="line"/>
      <point x="51" y="329"/>
      <point x="107" y="375"/>
      <point x="166" y="375" type="curve" smooth="yes"/>
      <point x="234" y="375"/>
      <point x="278" y="327"/>
      <point x="312" y="327" type="curve" smooth="yes"/>
      <point x="335" y="327"/>
      <point x="357" y="344"/>
      <point x="363" y="377" type="curve"/>
      <point x="449" y="377" type="line"/>
      <point x="433" y="270"/>
      <point x="374" y="221"/>
      <point x="317" y="221" type="curve" smooth="yes"/>
      <point x="246" y="221"/>
      <point x="203" y="270"/>
      <point x="169" y="270" type="curve" smooth="yes"/>
      <point x="145" y="270"/>
      <point x="126" y="252"/>
      <point x="119" y="220" type="curve"/>
    </contour>
  </outline>
</glyph>
<glyph name="exclamdown" format="2">
  <advance width="306"/>
  <unicode hex="00A1"/>
  <outline>
    <contour>
      <point x="220" y="383" type="line"/>
      <point x="159" y="-117" type="line"/>
      <point x="24" y="-117" type="line"/>
      <point x="123" y="383" type="line"/>
    </contour>
    <contour>
      <point x="191" y="605" type="curve" smooth="yes"/>
      <point x="236" y="605"/>
      <point x="270" y="571"/>
      <point x="270" y="528" type="curve" smooth="yes"/>
      <point x="270" y="484"/>
      <point x="236" y="449"/>
      <point x="191" y="449" type="curve" smooth="yes"/>
      <point x="147" y="449"/>
      <point x="111" y="484"/>
      <point x="111" y="527" type="curve" smooth="yes"/>
      <point x="111" y="571"/>
      <point x="147" y="605"/>
    </contour>
  </outline>
</glyph>
<glyph name="cent" format="2">
  <advance width="575"/>
  <unicode hex="00A2"/>
  <outline>
    <contour>
      <point x="204" y="-135" type="line"/>
      <point x="224" y="-4" type="line"/>
      <point x="107" y="18"/>
      <point x="32" y="102"/>
      <point x="32" y="226" type="curve" smooth="yes"/>
      <point x="32" y="411"/>
      <point x="157" y="527"/>
      <point x="310" y="533" type="curve"/>
      <point x="325" y="629" type="line"/>
      <point x="392" y="629" type="line"/>
      <point x="376" y="529" type="line"/>
      <point x="474" y="513"/>
      <point x="543" y="451"/>
      <point x="550" y="337" type="curve"/>
      <point x="438" y="337" type="line"/>
      <point x="434" y="395"/>
      <point x="405" y="424"/>
      <point x="361" y="435" type="curve"/>
      <point x="305" y="80" type="line"/>
      <point x="365" y="84"/>
      <point x="416" y="115"/>
      <point x="432" y="193" type="curve"/>
      <point x="540" y="193" type="line"/>
      <point x="520" y="58"/>
      <point x="416" y="-9"/>
      <point x="291" y="-10" type="curve"/>
      <point x="271" y="-135" type="line"/>
    </contour>
    <contour>
      <point x="152" y="226" type="curve" smooth="yes"/>
      <point x="152" y="150"/>
      <point x="182" y="104"/>
      <point x="239" y="87" type="curve"/>
      <point x="295" y="439" type="line"/>
      <point x="213" y="428"/>
      <point x="152" y="354"/>
    </contour>
  </outline>
</glyph>
<glyph name="sterling" format="2">
  <advance width="620"/>
  <unicode hex="00A3"/>
  <outline>
    <contour>
      <point x="50" y="304" type="line"/>
      <point x="63" y="389" type="line"/>
      <point x="125" y="389" type="line"/>
      <point x="123" y="415"/>
      <point x="121" y="443"/>
      <point x="121" y="471" type="curve" smooth="yes"/>
      <point x="121" y="616"/>
      <point x="214" y="724"/>
      <point x="380" y="724" type="curve" smooth="yes"/>
      <point x="514" y="724"/>
      <point x="606" y="662"/>
      <point x="606" y="515" type="curve"/>
      <point x="480" y="515" type="line"/>
      <point x="477" y="579"/>
      <point x="452" y="621"/>
      <point x="377" y="621" type="curve" smooth="yes"/>
      <point x="280" y="621"/>
      <point x="250" y="546"/>
      <point x="250" y="460" type="curve" smooth="yes"/>
      <point x="250" y="435"/>
      <point x="250" y="412"/>
      <point x="251" y="389" type="curve"/>
      <point x="452" y="389" type="line"/>
      <point x="438" y="304" type="line"/>
      <point x="255" y="304" type="line"/>
      <point x="256" y="290"/>
      <point x="256" y="275"/>
      <point x="256" y="259" type="curve" smooth="yes"/>
      <point x="256" y="214"/>
      <point x="248" y="175"/>
      <point x="227" y="138" type="curve"/>
      <point x="282" y="122"/>
      <point x="334" y="98"/>
      <point x="372" y="98" type="curve" smooth="yes"/>
      <point x="415" y="98"/>
      <point x="446" y="118"/>
      <point x="455" y="173" type="curve"/>
      <point x="572" y="173" type="line"/>
      <point x="557" y="66"/>
      <point x="495" y="-9"/>
      <point x="378" y="-9" type="curve" smooth="yes"/>
      <point x="288" y="-9"/>
      <point x="211" y="50"/>
      <point x="157" y="50" type="curve" smooth="yes"/>
      <point x="121" y="50"/>
      <point x="102" y="26"/>
      <point x="97" y="0" type="curve"/>
      <point x="-6" y="0" type="line"/>
      <point x="3" y="62"/>
      <point x="43" y="127"/>
      <point x="112" y="145" type="curve"/>
      <point x="129" y="175"/>
      <point x="137" y="209"/>
      <point x="137" y="251" type="curve" smooth="yes"/>
      <point x="137" y="267"/>
      <point x="136" y="285"/>
      <point x="134" y="304" type="curve"/>
    </contour>
  </outline>
</glyph>
<glyph name="yen" format="2">
  <advance width="604"/>
  <unicode hex="00A5"/>
  <outline>
    <contour>
      <point x="79" y="286" type="line"/>
      <point x="88" y="349" type="line"/>
      <point x="237" y="349" type="line"/>
      <point x="92" y="715" type="line"/>
      <point x="233" y="715" type="line"/>
      <point x="334" y="427" type="line"/>
      <point x="522" y="715" type="line"/>
      <point x="653" y="715" type="line"/>
      <point x="402" y="349" type="line"/>
      <point x="552" y="349" type="line"/>
      <point x="542" y="286" type="line"/>
      <point x="376" y="286" type="line"/>
      <point x="366" y="219" type="line"/>
      <point x="530" y="219" type="line"/>
      <point x="521" y="155" type="line"/>
      <point x="356" y="155" type="line"/>
      <point x="331" y="0" type="line"/>
      <point x="199" y="0" type="line"/>
      <point x="223" y="155" type="line"/>
      <point x="57" y="155" type="line"/>
      <point x="67" y="219" type="line"/>
      <point x="233" y="219" type="line"/>
      <point x="244" y="286" type="line"/>
    </contour>
  </outline>
</glyph>
<glyph name="brokenbar" format="2">
  <advance width="259"/>
  <unicode hex="00A6"/>
  <outline>
    <contour>
      <point x="99" y="-148" type="line"/>
      <point x="99" y="299" type="line"/>
      <point x="189" y="299" type="line"/>
      <point x="189" y="-148" type="line"/>
    </contour>
    <contour>
      <point x="99" y="369" type="line"/>
      <point x="99" y="776" type="line"/>
      <point x="189" y="776" type="line"/>
      <point x="189" y="369" type="line"/>
    </contour>
  </outline>
</glyph>
<glyph name="section" format="2">
  <advance width="565"/>
  <unicode hex="00A7"/>
  <outline>
    <contour>
      <point x="234" y="-137" type="curve" smooth="yes"/>
      <point x="127" y="-137"/>
      <point x="32" y="-86"/>
      <point x="35" y="34" type="curve"/>
      <point x="151" y="34" type="line"/>
      <point x="152" y="-17"/>
      <point x="178" y="-47"/>
      <point x="241" y="-47" type="curve" smooth="yes"/>
      <point x="288" y="-47"/>
      <point x="328" y="-20"/>
      <point x="328" y="30" type="curve" smooth="yes"/>
      <point x="328" y="67"/>
      <point x="301" y="90"/>
      <point x="210" y="122" type="curve" smooth="yes"/>
      <point x="105" y="158"/>
      <point x="36" y="202"/>
      <point x="36" y="294" type="curve" smooth="yes"/>
      <point x="36" y="377"/>
      <point x="96" y="423"/>
      <point x="171" y="442" type="curve"/>
      <point x="146" y="468"/>
      <point x="133" y="497"/>
      <point x="133" y="541" type="curve" smooth="yes"/>
      <point x="133" y="658"/>
      <point x="230" y="724"/>
      <point x="346" y="724" type="curve" smooth="yes"/>
      <point x="452" y="724"/>
      <point x="532" y="676"/>
      <point x="535" y="557" type="curve"/>
      <point x="418" y="557" type="line"/>
      <point x="417" y="608"/>
      <point x="393" y="633"/>
      <point x="338" y="634" type="curve" smooth="yes"/>
      <point x="289" y="634"/>
      <point x="250" y="611"/>
      <point x="250" y="557" type="curve" smooth="yes"/>
      <point x="250" y="519"/>
      <point x="275" y="497"/>
      <point x="359" y="467" type="curve" smooth="yes"/>
      <point x="464" y="432"/>
      <point x="537" y="387"/>
      <point x="537" y="290" type="curve" smooth="yes"/>
      <point x="537" y="208"/>
      <point x="481" y="168"/>
      <point x="405" y="146" type="curve"/>
      <point x="430" y="122"/>
      <point x="446" y="85"/>
      <point x="446" y="46" type="curve" smooth="yes"/>
      <point x="446" y="-75"/>
      <point x="349" y="-137"/>
    </contour>
    <contour>
      <point x="334" y="196" type="line"/>
      <point x="373" y="204"/>
      <point x="416" y="222"/>
      <point x="416" y="272" type="curve" smooth="yes"/>
      <point x="416" y="311"/>
      <point x="382" y="335"/>
      <point x="321" y="359" type="curve" smooth="yes"/>
      <point x="239" y="390" type="line"/>
      <point x="202" y="385"/>
      <point x="158" y="362"/>
      <point x="158" y="313" type="curve" smooth="yes"/>
      <point x="158" y="276"/>
      <point x="186" y="254"/>
      <point x="251" y="229" type="curve" smooth="yes"/>
    </contour>
  </outline>
</glyph>
<glyph name="dieresis" format="2">
  <advance width="400"/>
  <unicode hex="00A8"/>
  <outline>
    <contour>
      <point x="166" y="613" type="curve" smooth="yes"/>
      <point x="129" y="613"/>
      <point x="100" y="641"/>
      <point x="100" y="677" type="curve" smooth="yes"/>
      <point x="100" y="713"/>
      <point x="130" y="743"/>
      <point x="167" y="743" type="curve" smooth="yes"/>
      <point x="203" y="743"/>
      <point x="232" y="714"/>
      <point x="232" y="678" type="curve" smooth="yes"/>
      <point x="232" y="643"/>
      <point x="202" y="613"/>
    </contour>
    <contour>
      <point x="363" y="613" type="curve" smooth="yes"/>
      <point x="327" y="613"/>
      <point x="298" y="641"/>
      <point x="298" y="677" type="curve" smooth="yes"/>
      <point x="298" y="713"/>
      <point x="328" y="743"/>
      <point x="364" y="743" type="curve" smooth="yes"/>
      <point x="401" y="743"/>
      <point x="429" y="714"/>
      <point x="429" y="678" type="curve" smooth="yes"/>
      <point x="429" y="643"/>
      <point x="400" y="613"/>
    </contour>
  </outline>
</glyph>
<glyph name="copyright" format="2">
  <advance width="843"/>
  <unicode hex="00A9"/>
  <outline>
    <contour>
      <point x="437" y="153" type="curve" smooth="yes"/>
      <point x="307" y="153"/>
      <point x="237" y="232"/>
      <point x="237" y="353" type="curve" smooth="yes"/>
      <point x="237" y="361" type="line" smooth="yes"/>
      <point x="237" y="482"/>
      <point x="321" y="562"/>
      <point x="435" y="562" type="curve" smooth="yes"/>
      <point x="531" y="562"/>
      <point x="603" y="515"/>
      <point x="612" y="416" type="curve"/>
      <point x="515" y="416" type="line"/>
      <point x="509" y="462"/>
      <point x="483" y="486"/>
      <point x="435" y="486" type="curve" smooth="yes"/>
      <point x="374" y="486"/>
      <point x="336" y="442"/>
      <point x="336" y="361" type="curve" smooth="yes"/>
      <point x="336" y="354" type="line" smooth="yes"/>
      <point x="336" y="274"/>
      <point x="372" y="230"/>
      <point x="436" y="230" type="curve" smooth="yes"/>
      <point x="483" y="230"/>
      <point x="517" y="253"/>
      <point x="524" y="304" type="curve"/>
      <point x="616" y="304" type="line"/>
      <point x="607" y="204"/>
      <point x="535" y="153"/>
    </contour>
    <contour>
      <point x="432" y="32" type="curve" smooth="yes"/>
      <point x="605" y="32"/>
      <point x="753" y="165"/>
      <point x="753" y="359" type="curve" smooth="yes"/>
      <point x="753" y="550"/>
      <point x="610" y="683"/>
      <point x="434" y="683" type="curve" smooth="yes"/>
      <point x="257" y="683"/>
      <point x="113" y="549"/>
      <point x="113" y="357" type="curve" smooth="yes"/>
      <point x="113" y="163"/>
      <point x="262" y="32"/>
    </contour>
    <contour>
      <point x="432" y="-13" type="curve" smooth="yes"/>
      <point x="226" y="-13"/>
      <point x="60" y="147"/>
      <point x="60" y="357" type="curve" smooth="yes"/>
      <point x="60" y="564"/>
      <point x="225" y="728"/>
      <point x="434" y="728" type="curve" smooth="yes"/>
      <point x="646" y="728"/>
      <point x="807" y="565"/>
      <point x="807" y="359" type="curve" smooth="yes"/>
      <point x="807" y="148"/>
      <point x="642" y="-13"/>
    </contour>
  </outline>
</glyph>
<glyph name="ordfeminine" format="2">
  <advance width="444"/>
  <unicode hex="00AA"/>
  <outline>
    <contour>
      <point x="183" y="289" type="curve" smooth="yes"/>
      <point x="105" y="289"/>
      <point x="53" y="334"/>
      <point x="53" y="404" type="curve" smooth="yes"/>
      <point x="53" y="510"/>
      <point x="144" y="545"/>
      <point x="271" y="545" type="curve" smooth="yes"/>
      <point x="333" y="545" type="line"/>
      <point x="337" y="566" type="line" smooth="yes"/>
      <point x="344" y="616"/>
      <point x="330" y="643"/>
      <point x="276" y="643" type="curve" smooth="yes"/>
      <point x="232" y="643"/>
      <point x="208" y="622"/>
      <point x="199" y="584" type="curve"/>
      <point x="94" y="584" type="line"/>
      <point x="113" y="685"/>
      <point x="195" y="724"/>
      <point x="283" y="724" type="curve" smooth="yes"/>
      <point x="399" y="724"/>
      <point x="462" y="674"/>
      <point x="442" y="551" type="curve" smooth="yes"/>
      <point x="423" y="426" type="line" smooth="yes"/>
      <point x="414" y="372"/>
      <point x="413" y="333"/>
      <point x="417" y="298" type="curve"/>
      <point x="312" y="298" type="line"/>
      <point x="309" y="318"/>
      <point x="309" y="335"/>
      <point x="310" y="352" type="curve"/>
      <point x="281" y="312"/>
      <point x="239" y="289"/>
    </contour>
    <contour>
      <point x="219" y="367" type="curve" smooth="yes"/>
      <point x="271" y="367"/>
      <point x="309" y="391"/>
      <point x="318" y="445" type="curve" smooth="yes"/>
      <point x="324" y="481" type="line"/>
      <point x="267" y="481" type="line" smooth="yes"/>
      <point x="194" y="481"/>
      <point x="161" y="462"/>
      <point x="161" y="416" type="curve" smooth="yes"/>
      <point x="161" y="387"/>
      <point x="181" y="367"/>
    </contour>
  </outline>
</glyph>
<glyph name="guillemotleft" format="2">
  <advance width="492"/>
  <unicode hex="00AB"/>
  <outline>
    <contour>
      <point x="147" y="78" type="line"/>
      <point x="47" y="263" type="line"/>
      <point x="200" y="444" type="line"/>
      <point x="298" y="444" type="line"/>
      <point x="147" y="260" type="line"/>
      <point x="240" y="78" type="line"/>
    </contour>
    <contour>
      <point x="325" y="78" type="line"/>
      <point x="226" y="263" type="line"/>
      <point x="379" y="444" type="line"/>
      <point x="477" y="444" type="line"/>
      <point x="326" y="259" type="line"/>
      <point x="418" y="78" type="line"/>
    </contour>
  </outline>
</glyph>
<glyph name="registered" format="2">
  <advance width="515"/>
  <unicode hex="00AE"/>
  <outline>
    <contour>
      <point x="213" y="396" type="line"/>
      <point x="213" y="615" type="line"/>
      <point x="295" y="615" type="line" smooth="yes"/>
      <point x="349" y="615"/>
      <point x="381" y="593"/>
      <point x="381" y="547" type="curve" smooth="yes"/>
      <point x="381" y="546" type="line" smooth="yes"/>
      <point x="381" y="514"/>
      <point x="364" y="496"/>
      <point x="340" y="487" type="curve"/>
      <point x="394" y="396" type="line"/>
      <point x="336" y="396" type="line"/>
      <point x="288" y="477" type="line"/>
      <point x="269" y="477" type="line"/>
      <point x="269" y="396" type="line"/>
    </contour>
    <contour>
      <point x="269" y="515" type="line"/>
      <point x="292" y="515" type="line" smooth="yes"/>
      <point x="315" y="515"/>
      <point x="326" y="524"/>
      <point x="326" y="543" type="curve" smooth="yes"/>
      <point x="326" y="544" type="line" smooth="yes"/>
      <point x="326" y="565"/>
      <point x="314" y="572"/>
      <point x="292" y="572" type="curve" smooth="yes"/>
      <point x="269" y="572" type="line"/>
    </contour>
    <contour>
      <point x="292" y="319" type="curve" smooth="yes"/>
      <point x="396" y="319"/>
      <point x="476" y="394"/>
      <point x="476" y="503" type="curve" smooth="yes"/>
      <point x="476" y="612"/>
      <point x="399" y="687"/>
      <point x="292" y="687" type="curve" smooth="yes"/>
      <point x="186" y="687"/>
      <point x="109" y="611"/>
      <point x="109" y="502" type="curve" smooth="yes"/>
      <point x="109" y="392"/>
      <point x="190" y="319"/>
    </contour>
    <contour>
      <point x="292" y="281" type="curve" smooth="yes"/>
      <point x="168" y="281"/>
      <point x="67" y="377"/>
      <point x="67" y="502" type="curve" smooth="yes"/>
      <point x="67" y="625"/>
      <point x="167" y="725"/>
      <point x="292" y="725" type="curve" smooth="yes"/>
      <point x="420" y="725"/>
      <point x="517" y="626"/>
      <point x="517" y="503" type="curve" smooth="yes"/>
      <point x="517" y="378"/>
      <point x="418" y="281"/>
    </contour>
  </outline>
</glyph>
<glyph name="macron" format="2">
  <advance width="400"/>
  <unicode hex="00AF"/>
  <outline>
    <contour>
      <point x="118" y="634" type="line"/>
      <point x="130" y="712" type="line"/>
      <point x="410" y="712" type="line"/>
      <point x="398" y="634" type="line"/>
    </contour>
  </outline>
</glyph>
<glyph name="degree" format="2">
  <advance width="437"/>
  <unicode hex="00B0"/>
  <outline>
    <contour>
      <point x="262" y="459" type="curve" smooth="yes"/>
      <point x="315" y="459"/>
      <point x="353" y="500"/>
      <point x="353" y="562" type="curve" smooth="yes"/>
      <point x="353" y="618"/>
      <point x="317" y="661"/>
      <point x="265" y="661" type="curve" smooth="yes"/>
      <point x="211" y="661"/>
      <point x="171" y="619"/>
      <point x="171" y="557" type="curve" smooth="yes"/>
      <point x="171" y="502"/>
      <point x="209" y="459"/>
    </contour>
    <contour>
      <point x="261" y="396" type="curve" smooth="yes"/>
      <point x="168" y="396"/>
      <point x="94" y="468"/>
      <point x="94" y="555" type="curve" smooth="yes"/>
      <point x="94" y="650"/>
      <point x="169" y="724"/>
      <point x="267" y="724" type="curve" smooth="yes"/>
      <point x="359" y="724"/>
      <point x="432" y="653"/>
      <point x="432" y="563" type="curve" smooth="yes"/>
      <point x="432" y="471"/>
      <point x="357" y="396"/>
    </contour>
  </outline>
</glyph>
<glyph name="plusminus" format="2">
  <advance width="539"/>
  <unicode hex="00B1"/>
  <outline>
    <contour>
      <point x="201" y="157" type="line"/>
      <point x="229" y="332" type="line"/>
      <point x="47" y="332" type="line"/>
      <point x="61" y="426" type="line"/>
      <point x="244" y="426" type="line"/>
      <point x="272" y="602" type="line"/>
      <point x="373" y="602" type="line"/>
      <point x="345" y="426" type="line"/>
      <point x="527" y="426" type="line"/>
      <point x="513" y="332" type="line"/>
      <point x="330" y="332" type="line"/>
      <point x="302" y="157" type="line"/>
    </contour>
    <contour>
      <point x="-5" y="0" type="line"/>
      <point x="8" y="89" type="line"/>
      <point x="475" y="89" type="line"/>
      <point x="462" y="0" type="line"/>
    </contour>
  </outline>
</glyph>
<glyph name="acute" format="2">
  <advance width="400"/>
  <unicode hex="00B4"/>
  <outline>
    <contour>
      <point x="200" y="601" type="line"/>
      <point x="277" y="756" type="line"/>
      <point x="413" y="756" type="line"/>
      <point x="291" y="601" type="line"/>
    </contour>
  </outline>
</glyph>
<glyph name="paragraph" format="2">
  <advance width="573"/>
  <unicode hex="00B6"/>
  <outline>
    <contour>
      <point x="210" y="-100" type="line"/>
      <point x="279" y="339" type="line"/>
      <point x="276" y="339" type="line" smooth="yes"/>
      <point x="160" y="339"/>
      <point x="77" y="396"/>
      <point x="77" y="505" type="curve" smooth="yes"/>
      <point x="77" y="644"/>
      <point x="184" y="715"/>
      <point x="317" y="715" type="curve" smooth="yes"/>
      <point x="560" y="715" type="line"/>
      <point x="431" y="-100" type="line"/>
      <point x="359" y="-100" type="line"/>
      <point x="479" y="655" type="line"/>
      <point x="400" y="655" type="line"/>
      <point x="281" y="-100" type="line"/>
    </contour>
  </outline>
</glyph>
<glyph name="periodcentered" format="2">
  <advance width="289"/>
  <unicode hex="00B7"/>
  <outline>
    <contour>
      <point x="153" y="248" type="curve" smooth="yes"/>
      <point x="109" y="248"/>
      <point x="74" y="283"/>
      <point x="74" y="327" type="curve" smooth="yes"/>
      <point x="74" y="371"/>
      <point x="108" y="405"/>
      <point x="152" y="405" type="curve" smooth="yes"/>
      <point x="197" y="405"/>
      <point x="233" y="371"/>
      <point x="233" y="327" type="curve" smooth="yes"/>
      <point x="233" y="283"/>
      <point x="198" y="248"/>
    </contour>
  </outline>
</glyph>
<glyph name="cedilla" format="2">
  <advance width="400"/>
  <unicode hex="00B8"/>
  <outline>
    <contour>
      <point x="141" y="-219" type="curve" smooth="yes"/>
      <point x="85" y="-219"/>
      <point x="37" y="-191"/>
      <point x="32" y="-131" type="curve"/>
      <point x="99" y="-131" type="line"/>
      <point x="101" y="-149"/>
      <point x="114" y="-164"/>
      <point x="138" y="-164" type="curve" smooth="yes"/>
      <point x="157" y="-164"/>
      <point x="176" y="-154"/>
      <point x="176" y="-128" type="curve" smooth="yes"/>
      <point x="176" y="-109"/>
      <point x="162" y="-98"/>
      <point x="142" y="-98" type="curve" smooth="yes"/>
      <point x="129" y="-98"/>
      <point x="121" y="-102"/>
      <point x="115" y="-106" type="curve"/>
      <point x="85" y="-73" type="line"/>
      <point x="142" y="0" type="line"/>
      <point x="203" y="0" type="line"/>
      <point x="164" y="-50" type="line"/>
      <point x="209" y="-46"/>
      <point x="252" y="-72"/>
      <point x="252" y="-125" type="curve" smooth="yes"/>
      <point x="252" y="-187"/>
      <point x="205" y="-219"/>
    </contour>
  </outline>
</glyph>
<glyph name="onesuperior" format="2">
  <advance width="253"/>
  <unicode hex="00B9"/>
  <outline>
    <contour>
      <point x="119" y="360" type="line"/>
      <point x="160" y="623" type="line"/>
      <point x="71" y="572" type="line"/>
      <point x="83" y="652" type="line"/>
      <point x="187" y="715" type="line"/>
      <point x="269" y="715" type="line"/>
      <point x="212" y="360" type="line"/>
    </contour>
  </outline>
</glyph>
<glyph name="ordmasculine" format="2">
  <advance width="504"/>
  <unicode hex="00BA"/>
  <outline>
    <contour>
      <point x="268" y="289" type="curve" smooth="yes"/>
      <point x="146" y="289"/>
      <point x="71" y="364"/>
      <point x="71" y="475" type="curve" smooth="yes"/>
      <point x="71" y="620"/>
      <point x="177" y="724"/>
      <point x="308" y="724" type="curve" smooth="yes"/>
      <point x="433" y="724"/>
      <point x="505" y="647"/>
      <point x="505" y="536" type="curve" smooth="yes"/>
      <point x="505" y="390"/>
      <point x="401" y="289"/>
    </contour>
    <contour>
      <point x="275" y="373" type="curve" smooth="yes"/>
      <point x="351" y="373"/>
      <point x="394" y="445"/>
      <point x="394" y="536" type="curve" smooth="yes"/>
      <point x="394" y="600"/>
      <point x="364" y="639"/>
      <point x="301" y="639" type="curve" smooth="yes"/>
      <point x="228" y="639"/>
      <point x="182" y="569"/>
      <point x="182" y="475" type="curve" smooth="yes"/>
      <point x="182" y="412"/>
      <point x="212" y="373"/>
    </contour>
  </outline>
</glyph>
<glyph name="guillemotright" format="2">
  <advance width="492"/>
  <unicode hex="00BB"/>
  <outline>
    <contour>
      <point x="343" y="444" type="line"/>
      <point x="444" y="259" type="line"/>
      <point x="291" y="78" type="line"/>
      <point x="193" y="78" type="line"/>
      <point x="344" y="262" type="line"/>
      <point x="250" y="444" type="line"/>
    </contour>
    <contour>
      <point x="165" y="444" type="line"/>
      <point x="264" y="259" type="line"/>
      <point x="112" y="78" type="line"/>
      <point x="13" y="78" type="line"/>
      <point x="164" y="263" type="line"/>
      <point x="72" y="444" type="line"/>
    </contour>
  </outline>
</glyph>
<glyph name="onequarter" format="2">
  <advance width="730"/>
  <unicode hex="00BC"/>
  <outline>
    <contour>
      <point x="122" y="360" type="line"/>
      <point x="163" y="623" type="line"/>
      <point x="74" y="572" type="line"/>
      <point x="86" y="652" type="line"/>
      <point x="190" y="715" type="line"/>
      <point x="272" y="715" type="line"/>
      <point x="215" y="360" type="line"/>
    </contour>
    <contour>
      <point x="32" y="0" type="line"/>
      <point x="635" y="715" type="line"/>
      <point x="714" y="715" type="line"/>
      <point x="112" y="0" type="line"/>
    </contour>
    <contour>
      <point x="529" y="0" type="line"/>
      <point x="540" y="69" type="line"/>
      <point x="362" y="69" type="line"/>
      <point x="368" y="103" type="line"/>
      <point x="562" y="355" type="line"/>
      <point x="675" y="355" type="line"/>
      <point x="640" y="133" type="line"/>
      <point x="687" y="133" type="line"/>
      <point x="676" y="69" type="line"/>
      <point x="630" y="69" type="line"/>
      <point x="619" y="0" type="line"/>
    </contour>
    <contour>
      <point x="464" y="133" type="line"/>
      <point x="553" y="133" type="line"/>
      <point x="576" y="286" type="line"/>
    </contour>
  </outline>
</glyph>
<glyph name="onehalf" format="2">
  <advance width="743"/>
  <unicode hex="00BD"/>
  <outline>
    <contour>
      <point x="19" y="0" type="line"/>
      <point x="622" y="715" type="line"/>
      <point x="701" y="715" type="line"/>
      <point x="99" y="0" type="line"/>
    </contour>
    <contour>
      <point x="122" y="360" type="line"/>
      <point x="163" y="623" type="line"/>
      <point x="74" y="572" type="line"/>
      <point x="86" y="652" type="line"/>
      <point x="190" y="715" type="line"/>
      <point x="272" y="715" type="line"/>
      <point x="215" y="360" type="line"/>
    </contour>
    <contour>
      <point x="391" y="0" type="line"/>
      <point x="394" y="14" type="line"/>
      <point x="542" y="146" type="line" smooth="yes"/>
      <point x="586" y="184"/>
      <point x="619" y="215"/>
      <point x="619" y="251" type="curve" smooth="yes"/>
      <point x="619" y="277"/>
      <point x="602" y="290"/>
      <point x="580" y="290" type="curve" smooth="yes"/>
      <point x="552" y="290"/>
      <point x="531" y="273"/>
      <point x="521" y="229" type="curve"/>
      <point x="436" y="229" type="line"/>
      <point x="449" y="314"/>
      <point x="509" y="360"/>
      <point x="586" y="360" type="curve" smooth="yes"/>
      <point x="651" y="360"/>
      <point x="711" y="331"/>
      <point x="711" y="257" type="curve" smooth="yes"/>
      <point x="711" y="203"/>
      <point x="675" y="170"/>
      <point x="611" y="115" type="curve" smooth="yes"/>
      <point x="557" y="68" type="line"/>
      <point x="684" y="68" type="line"/>
      <point x="673" y="0" type="line"/>
    </contour>
  </outline>
</glyph>
<glyph name="threequarters" format="2">
  <advance width="762"/>
  <unicode hex="00BE"/>
  <outline>
    <contour>
      <point x="198" y="354" type="curve" smooth="yes"/>
      <point x="120" y="354"/>
      <point x="56" y="386"/>
      <point x="55" y="474" type="curve"/>
      <point x="140" y="474" type="line"/>
      <point x="141" y="442"/>
      <point x="158" y="420"/>
      <point x="196" y="420" type="curve" smooth="yes"/>
      <point x="223" y="420"/>
      <point x="252" y="435"/>
      <point x="252" y="471" type="curve" smooth="yes"/>
      <point x="252" y="499"/>
      <point x="234" y="512"/>
      <point x="201" y="512" type="curve" smooth="yes"/>
      <point x="176" y="512" type="line"/>
      <point x="184" y="570" type="line"/>
      <point x="214" y="570" type="line" smooth="yes"/>
      <point x="247" y="570"/>
      <point x="268" y="585"/>
      <point x="268" y="614" type="curve" smooth="yes"/>
      <point x="268" y="638"/>
      <point x="256" y="653"/>
      <point x="225" y="653" type="curve" smooth="yes"/>
      <point x="195" y="653"/>
      <point x="173" y="636"/>
      <point x="166" y="605" type="curve"/>
      <point x="84" y="605" type="line"/>
      <point x="93" y="677"/>
      <point x="152" y="720"/>
      <point x="231" y="720" type="curve" smooth="yes"/>
      <point x="295" y="720"/>
      <point x="356" y="696"/>
      <point x="356" y="625" type="curve" smooth="yes"/>
      <point x="356" y="584"/>
      <point x="329" y="554"/>
      <point x="286" y="541" type="curve"/>
      <point x="319" y="534"/>
      <point x="345" y="510"/>
      <point x="345" y="465" type="curve" smooth="yes"/>
      <point x="345" y="392"/>
      <point x="276" y="354"/>
    </contour>
    <contour>
      <point x="78" y="0" type="line"/>
      <point x="681" y="715" type="line"/>
      <point x="760" y="715" type="line"/>
      <point x="158" y="0" type="line"/>
    </contour>
    <contour>
      <point x="561" y="0" type="line"/>
      <point x="572" y="69" type="line"/>
      <point x="394" y="69" type="line"/>
      <point x="400" y="103" type="line"/>
      <point x="594" y="355" type="line"/>
      <point x="707" y="355" type="line"/>
      <point x="672" y="133" type="line"/>
      <point x="719" y="133" type="line"/>
      <point x="708" y="69" type="line"/>
      <point x="662" y="69" type="line"/>
      <point x="651" y="0" type="line"/>
    </contour>
    <contour>
      <point x="496" y="133" type="line"/>
      <point x="585" y="133" type="line"/>
      <point x="608" y="286" type="line"/>
    </contour>
  </outline>
</glyph>
<glyph name="questiondown" format="2">
  <advance width="515"/>
  <unicode hex="00BF"/>
  <outline>
    <contour>
      <point x="357" y="383" type="line"/>
      <point x="351" y="344" type="line" smooth="yes"/>
      <point x="337" y="254"/>
      <point x="273" y="208"/>
      <point x="219" y="167" type="curve" smooth="yes"/>
      <point x="170" y="131"/>
      <point x="134" y="103"/>
      <point x="134" y="47" type="curve" smooth="yes"/>
      <point x="134" y="1"/>
      <point x="165" y="-27"/>
      <point x="220" y="-27" type="curve" smooth="yes"/>
      <point x="279" y="-27"/>
      <point x="325" y="11"/>
      <point x="338" y="86" type="curve"/>
      <point x="455" y="86" type="line"/>
      <point x="437" y="-53"/>
      <point x="340" y="-127"/>
      <point x="213" y="-126" type="curve" smooth="yes"/>
      <point x="76" y="-126"/>
      <point x="7" y="-50"/>
      <point x="7" y="41" type="curve" smooth="yes"/>
      <point x="7" y="134"/>
      <point x="64" y="180"/>
      <point x="126" y="225" type="curve" smooth="yes"/>
      <point x="176" y="262"/>
      <point x="232" y="293"/>
      <point x="242" y="357" type="curve" smooth="yes"/>
      <point x="246" y="383" type="line"/>
    </contour>
    <contour>
      <point x="320" y="605" type="curve" smooth="yes"/>
      <point x="365" y="605"/>
      <point x="399" y="571"/>
      <point x="399" y="528" type="curve" smooth="yes"/>
      <point x="399" y="484"/>
      <point x="365" y="449"/>
      <point x="320" y="449" type="curve" smooth="yes"/>
      <point x="276" y="449"/>
      <point x="240" y="484"/>
      <point x="240" y="527" type="curve" smooth="yes"/>
      <point x="240" y="571"/>
      <point x="276" y="605"/>
    </contour>
  </outline>
</glyph>
<glyph name="Acircumflex" format="2">
  <advance width="685"/>
  <unicode hex="00C2"/>
  <outline>
    <contour>
      <point x="490" y="0" type="line"/>
      <point x="461" y="177" type="line"/>
      <point x="188" y="177" type="line"/>
      <point x="104" y="0" type="line"/>
      <point x="-24" y="0" type="line"/>
      <point x="328" y="715" type="line"/>
      <point x="502" y="715" type="line"/>
      <point x="625" y="0" type="line"/>
    </contour>
    <contour>
      <point x="393" y="606" type="line"/>
      <point x="234" y="274" type="line"/>
      <point x="446" y="274" type="line"/>
    </contour>
    <contour>
      <point x="250" y="766" type="line"/>
      <point x="376" y="901" type="line"/>
      <point x="481" y="901" type="line"/>
      <point x="573" y="766" type="line"/>
      <point x="488" y="766" type="line"/>
      <point x="421" y="821" type="line"/>
      <point x="339" y="766" type="line"/>
    </contour>
  </outline>
</glyph>
<glyph name="Atilde" format="2">
  <advance width="685"/>
  <unicode hex="00C3"/>
  <outline>
    <contour>
      <point x="490" y="0" type="line"/>
      <point x="461" y="177" type="line"/>
      <point x="188" y="177" type="line"/>
      <point x="104" y="0" type="line"/>
      <point x="-24" y="0" type="line"/>
      <point x="328" y="715" type="line"/>
      <point x="502" y="715" type="line"/>
      <point x="625" y="0" type="line"/>
    </contour>
    <contour>
      <point x="393" y="606" type="line"/>
      <point x="234" y="274" type="line"/>
      <point x="446" y="274" type="line"/>
    </contour>
    <contour>
      <point x="483" y="768" type="curve" smooth="yes"/>
      <point x="432" y="768"/>
      <point x="398" y="807"/>
      <point x="369" y="807" type="curve" smooth="yes"/>
      <point x="351" y="807"/>
      <point x="333" y="792"/>
      <point x="327" y="767" type="curve"/>
      <point x="250" y="767" type="line"/>
      <point x="266" y="853"/>
      <point x="312" y="898"/>
      <point x="368" y="898" type="curve" smooth="yes"/>
      <point x="418" y="898"/>
      <point x="452" y="858"/>
      <point x="483" y="858" type="curve" smooth="yes"/>
      <point x="501" y="858"/>
      <point x="517" y="873"/>
      <point x="524" y="898" type="curve"/>
      <point x="600" y="898" type="line"/>
      <point x="584" y="813"/>
      <point x="537" y="768"/>
    </contour>
  </outline>
</glyph>
<glyph name="Adieresis" format="2">
  <advance width="685"/>
  <unicode hex="00C4"/>
  <outline>
    <contour>
      <point x="490" y="0" type="line"/>
      <point x="461" y="177" type="line"/>
      <point x="188" y="177" type="line"/>
      <point x="104" y="0" type="line"/>
      <point x="-24" y="0" type="line"/>
      <point x="328" y="715" type="line"/>
      <point x="502" y="715" type="line"/>
      <point x="625" y="0" type="line"/>
    </contour>
    <contour>
      <point x="393" y="606" type="line"/>
      <point x="234" y="274" type="line"/>
      <point x="446" y="274" type="line"/>
    </contour>
    <contour>
      <point x="528" y="777" type="curve" smooth="yes"/>
      <point x="492" y="777"/>
      <point x="462" y="805"/>
      <point x="462" y="841" type="curve" smooth="yes"/>
      <point x="462" y="877"/>
      <point x="492" y="907"/>
      <point x="529" y="907" type="curve" smooth="yes"/>
      <point x="565" y="907"/>
      <point x="594" y="878"/>
      <point x="594" y="842" type="curve" smooth="yes"/>
      <point x="594" y="807"/>
      <point x="564" y="777"/>
    </contour>
    <contour>
      <point x="317" y="777" type="curve" smooth="yes"/>
      <point x="281" y="777"/>
      <point x="251" y="805"/>
      <point x="251" y="841" type="curve" smooth="yes"/>
      <point x="251" y="877"/>
      <point x="282" y="907"/>
      <point x="318" y="907" type="curve" smooth="yes"/>
      <point x="354" y="907"/>
      <point x="383" y="878"/>
      <point x="383" y="842" type="curve" smooth="yes"/>
      <point x="383" y="807"/>
      <point x="353" y="777"/>
    </contour>
  </outline>
</glyph>
<glyph name="Aring" format="2">
  <advance width="685"/>
  <unicode hex="00C5"/>
  <outline>
    <contour>
      <point x="490" y="0" type="line"/>
      <point x="461" y="177" type="line"/>
      <point x="188" y="177" type="line"/>
      <point x="104" y="0" type="line"/>
      <point x="-24" y="0" type="line"/>
      <point x="328" y="715" type="line"/>
      <point x="502" y="715" type="line"/>
      <point x="625" y="0" type="line"/>
    </contour>
    <contour>
      <point x="421" y="753" type="curve" smooth="yes"/>
      <point x="359" y="753"/>
      <point x="310" y="801"/>
      <point x="310" y="860" type="curve" smooth="yes"/>
      <point x="310" y="922"/>
      <point x="362" y="971"/>
      <point x="423" y="971" type="curve" smooth="yes"/>
      <point x="485" y="971"/>
      <point x="534" y="923"/>
      <point x="534" y="863" type="curve" smooth="yes"/>
      <point x="534" y="802"/>
      <point x="482" y="753"/>
    </contour>
    <contour>
      <point x="393" y="606" type="line"/>
      <point x="234" y="274" type="line"/>
      <point x="446" y="274" type="line"/>
    </contour>
    <contour>
      <point x="421" y="807" type="curve" smooth="yes"/>
      <point x="450" y="807"/>
      <point x="472" y="830"/>
      <point x="472" y="863" type="curve" smooth="yes"/>
      <point x="472" y="895"/>
      <point x="453" y="917"/>
      <point x="423" y="917" type="curve" smooth="yes"/>
      <point x="394" y="917"/>
      <point x="372" y="894"/>
      <point x="372" y="860" type="curve" smooth="yes"/>
      <point x="372" y="829"/>
      <point x="391" y="807"/>
    </contour>
  </outline>
</glyph>
<glyph name="Ccedilla" format="2">
  <advance width="741"/>
  <unicode hex="00C7"/>
  <outline>
    <contour>
      <point x="306" y="-219" type="curve" smooth="yes"/>
      <point x="250" y="-219"/>
      <point x="202" y="-191"/>
      <point x="197" y="-131" type="curve"/>
      <point x="264" y="-131" type="line"/>
      <point x="266" y="-149"/>
      <point x="279" y="-164"/>
      <point x="303" y="-164" type="curve" smooth="yes"/>
      <point x="322" y="-164"/>
      <point x="341" y="-154"/>
      <point x="341" y="-128" type="curve" smooth="yes"/>
      <point x="341" y="-109"/>
      <point x="327" y="-98"/>
      <point x="307" y="-98" type="curve" smooth="yes"/>
      <point x="294" y="-98"/>
      <point x="286" y="-102"/>
      <point x="280" y="-106" type="curve"/>
      <point x="250" y="-73" type="line"/>
      <point x="305" y="-2" type="line"/>
      <point x="151" y="26"/>
      <point x="59" y="135"/>
      <point x="59" y="303" type="curve" smooth="yes"/>
      <point x="59" y="542"/>
      <point x="213" y="726"/>
      <point x="446" y="726" type="curve" smooth="yes"/>
      <point x="607" y="726"/>
      <point x="722" y="642"/>
      <point x="731" y="476" type="curve"/>
      <point x="601" y="476" type="line"/>
      <point x="587" y="570"/>
      <point x="540" y="621"/>
      <point x="442" y="621" type="curve" smooth="yes"/>
      <point x="286" y="621"/>
      <point x="198" y="480"/>
      <point x="198" y="307" type="curve" smooth="yes"/>
      <point x="197" y="177"/>
      <point x="259" y="96"/>
      <point x="390" y="96" type="curve" smooth="yes"/>
      <point x="488" y="96"/>
      <point x="554" y="155"/>
      <point x="582" y="249" type="curve"/>
      <point x="712" y="249" type="line"/>
      <point x="678" y="85"/>
      <point x="549" y="-10"/>
      <point x="389" y="-10" type="curve" smooth="yes"/>
      <point x="379" y="-10"/>
      <point x="375" y="-10"/>
      <point x="361" y="-9" type="curve"/>
      <point x="329" y="-50" type="line"/>
      <point x="374" y="-46"/>
      <point x="417" y="-72"/>
      <point x="417" y="-125" type="curve" smooth="yes"/>
      <point x="417" y="-187"/>
      <point x="370" y="-219"/>
    </contour>
  </outline>
</glyph>
<glyph name="Ecircumflex" format="2">
  <advance width="588"/>
  <unicode hex="00CA"/>
  <outline>
    <contour>
      <point x="213" y="766" type="line"/>
      <point x="339" y="901" type="line"/>
      <point x="444" y="901" type="line"/>
      <point x="536" y="766" type="line"/>
      <point x="451" y="766" type="line"/>
      <point x="384" y="821" type="line"/>
      <point x="302" y="766" type="line"/>
    </contour>
    <contour>
      <point x="40" y="0" type="line"/>
      <point x="153" y="715" type="line"/>
      <point x="597" y="715" type="line"/>
      <point x="580" y="610" type="line"/>
      <point x="269" y="610" type="line"/>
      <point x="238" y="414" type="line"/>
      <point x="490" y="414" type="line"/>
      <point x="475" y="314" type="line"/>
      <point x="223" y="314" type="line"/>
      <point x="189" y="105" type="line"/>
      <point x="521" y="105" type="line"/>
      <point x="504" y="0" type="line"/>
    </contour>
  </outline>
</glyph>
<glyph name="Edieresis" format="2">
  <advance width="588"/>
  <unicode hex="00CB"/>
  <outline>
    <contour>
      <point x="40" y="0" type="line"/>
      <point x="153" y="715" type="line"/>
      <point x="597" y="715" type="line"/>
      <point x="580" y="610" type="line"/>
      <point x="269" y="610" type="line"/>
      <point x="238" y="414" type="line"/>
      <point x="490" y="414" type="line"/>
      <point x="475" y="314" type="line"/>
      <point x="223" y="314" type="line"/>
      <point x="189" y="105" type="line"/>
      <point x="521" y="105" type="line"/>
      <point x="504" y="0" type="line"/>
    </contour>
    <contour>
      <point x="281" y="777" type="curve" smooth="yes"/>
      <point x="245" y="777"/>
      <point x="215" y="805"/>
      <point x="215" y="841" type="curve" smooth="yes"/>
      <point x="215" y="877"/>
      <point x="246" y="907"/>
      <point x="282" y="907" type="curve" smooth="yes"/>
      <point x="318" y="907"/>
      <point x="347" y="878"/>
      <point x="347" y="842" type="curve" smooth="yes"/>
      <point x="347" y="807"/>
      <point x="317" y="777"/>
    </contour>
    <contour>
      <point x="492" y="777" type="curve" smooth="yes"/>
      <point x="456" y="777"/>
      <point x="426" y="805"/>
      <point x="426" y="841" type="curve" smooth="yes"/>
      <point x="426" y="877"/>
      <point x="456" y="907"/>
      <point x="493" y="907" type="curve" smooth="yes"/>
      <point x="529" y="907"/>
      <point x="558" y="878"/>
      <point x="558" y="842" type="curve" smooth="yes"/>
      <point x="558" y="807"/>
      <point x="528" y="777"/>
    </contour>
  </outline>
</glyph>
<glyph name="Icircumflex" format="2">
  <advance width="308"/>
  <unicode hex="00CE"/>
  <outline>
    <contour>
      <point x="44" y="0" type="line"/>
      <point x="157" y="715" type="line"/>
      <point x="291" y="715" type="line"/>
      <point x="178" y="0" type="line"/>
    </contour>
    <contour>
      <point x="67" y="766" type="line"/>
      <point x="193" y="901" type="line"/>
      <point x="298" y="901" type="line"/>
      <point x="390" y="766" type="line"/>
      <point x="305" y="766" type="line"/>
      <point x="238" y="821" type="line"/>
      <point x="156" y="766" type="line"/>
    </contour>
  </outline>
</glyph>
<glyph name="Idieresis" format="2">
  <advance width="308"/>
  <unicode hex="00CF"/>
  <outline>
    <contour>
      <point x="44" y="0" type="line"/>
      <point x="157" y="715" type="line"/>
      <point x="291" y="715" type="line"/>
      <point x="178" y="0" type="line"/>
    </contour>
    <contour>
      <point x="138" y="777" type="curve" smooth="yes"/>
      <point x="102" y="777"/>
      <point x="72" y="805"/>
      <point x="72" y="841" type="curve" smooth="yes"/>
      <point x="72" y="877"/>
      <point x="103" y="907"/>
      <point x="139" y="907" type="curve" smooth="yes"/>
      <point x="175" y="907"/>
      <point x="204" y="878"/>
      <point x="204" y="842" type="curve" smooth="yes"/>
      <point x="204" y="807"/>
      <point x="174" y="777"/>
    </contour>
    <contour>
      <point x="349" y="777" type="curve" smooth="yes"/>
      <point x="313" y="777"/>
      <point x="283" y="805"/>
      <point x="283" y="841" type="curve" smooth="yes"/>
      <point x="283" y="877"/>
      <point x="313" y="907"/>
      <point x="350" y="907" type="curve" smooth="yes"/>
      <point x="386" y="907"/>
      <point x="415" y="878"/>
      <point x="415" y="842" type="curve" smooth="yes"/>
      <point x="415" y="807"/>
      <point x="385" y="777"/>
    </contour>
  </outline>
</glyph>
<glyph name="Eth" format="2">
  <advance width="737"/>
  <unicode hex="00D0"/>
  <outline>
    <contour>
      <point x="39" y="311" type="line"/>
      <point x="54" y="406" type="line"/>
      <point x="123" y="406" type="line"/>
      <point x="172" y="715" type="line"/>
      <point x="369" y="715" type="line" smooth="yes"/>
      <point x="607" y="715"/>
      <point x="714" y="591"/>
      <point x="714" y="410" type="curve" smooth="yes"/>
      <point x="714" y="170"/>
      <point x="562" y="0"/>
      <point x="300" y="0" type="curve" smooth="yes"/>
      <point x="59" y="0" type="line"/>
      <point x="108" y="311" type="line"/>
    </contour>
    <contour>
      <point x="208" y="105" type="line"/>
      <point x="299" y="105" type="line" smooth="yes"/>
      <point x="475" y="105"/>
      <point x="577" y="217"/>
      <point x="577" y="406" type="curve" smooth="yes"/>
      <point x="577" y="528"/>
      <point x="516" y="611"/>
      <point x="365" y="611" type="curve" smooth="yes"/>
      <point x="288" y="611" type="line"/>
      <point x="255" y="406" type="line"/>
      <point x="428" y="406" type="line"/>
      <point x="413" y="311" type="line"/>
      <point x="240" y="311" type="line"/>
    </contour>
  </outline>
</glyph>
<glyph name="Ntilde" format="2">
  <advance width="745"/>
  <unicode hex="00D1"/>
  <outline>
    <contour>
      <point x="526" y="768" type="curve" smooth="yes"/>
      <point x="475" y="768"/>
      <point x="441" y="807"/>
      <point x="412" y="807" type="curve" smooth="yes"/>
      <point x="394" y="807"/>
      <point x="376" y="792"/>
      <point x="370" y="767" type="curve"/>
      <point x="293" y="767" type="line"/>
      <point x="309" y="853"/>
      <point x="355" y="898"/>
      <point x="411" y="898" type="curve" smooth="yes"/>
      <point x="461" y="898"/>
      <point x="495" y="858"/>
      <point x="526" y="858" type="curve" smooth="yes"/>
      <point x="544" y="858"/>
      <point x="560" y="873"/>
      <point x="567" y="898" type="curve"/>
      <point x="643" y="898" type="line"/>
      <point x="627" y="813"/>
      <point x="580" y="768"/>
    </contour>
    <contour>
      <point x="40" y="0" type="line"/>
      <point x="153" y="715" type="line"/>
      <point x="312" y="715" type="line"/>
      <point x="530" y="198" type="line"/>
      <point x="612" y="715" type="line"/>
      <point x="734" y="715" type="line"/>
      <point x="621" y="0" type="line"/>
      <point x="483" y="0" type="line"/>
      <point x="248" y="548" type="line"/>
      <point x="162" y="0" type="line"/>
    </contour>
  </outline>
</glyph>
<glyph name="Otilde" format="2">
  <advance width="814"/>
  <unicode hex="00D5"/>
  <outline>
    <contour>
      <point x="533" y="768" type="curve" smooth="yes"/>
      <point x="482" y="768"/>
      <point x="448" y="807"/>
      <point x="419" y="807" type="curve" smooth="yes"/>
      <point x="401" y="807"/>
      <point x="383" y="792"/>
      <point x="377" y="767" type="curve"/>
      <point x="300" y="767" type="line"/>
      <point x="316" y="853"/>
      <point x="362" y="898"/>
      <point x="418" y="898" type="curve" smooth="yes"/>
      <point x="468" y="898"/>
      <point x="502" y="858"/>
      <point x="533" y="858" type="curve" smooth="yes"/>
      <point x="551" y="858"/>
      <point x="567" y="873"/>
      <point x="574" y="898" type="curve"/>
      <point x="650" y="898" type="line"/>
      <point x="634" y="813"/>
      <point x="587" y="768"/>
    </contour>
    <contour>
      <point x="785" y="405" type="curve" smooth="yes"/>
      <point x="785" y="163"/>
      <point x="618" y="-10"/>
      <point x="393" y="-10" type="curve" smooth="yes"/>
      <point x="198" y="-10"/>
      <point x="59" y="117"/>
      <point x="59" y="308" type="curve" smooth="yes"/>
      <point x="59" y="544"/>
      <point x="226" y="725"/>
      <point x="452" y="725" type="curve" smooth="yes"/>
      <point x="655" y="725"/>
      <point x="785" y="591"/>
    </contour>
    <contour>
      <point x="647" y="402" type="curve" smooth="yes"/>
      <point x="647" y="522"/>
      <point x="580" y="618"/>
      <point x="449" y="619" type="curve" smooth="yes"/>
      <point x="291" y="619"/>
      <point x="197" y="475"/>
      <point x="197" y="311" type="curve" smooth="yes"/>
      <point x="197" y="179"/>
      <point x="277" y="96"/>
      <point x="399" y="96" type="curve" smooth="yes"/>
      <point x="551" y="96"/>
      <point x="647" y="232"/>
    </contour>
  </outline>
</glyph>
<glyph name="Odieresis" format="2">
  <advance width="814"/>
  <unicode hex="00D6"/>
  <outline>
    <contour>
      <point x="373" y="777" type="curve" smooth="yes"/>
      <point x="337" y="777"/>
      <point x="307" y="805"/>
      <point x="307" y="841" type="curve" smooth="yes"/>
      <point x="307" y="877"/>
      <point x="338" y="907"/>
      <point x="374" y="907" type="curve" smooth="yes"/>
      <point x="410" y="907"/>
      <point x="439" y="878"/>
      <point x="439" y="842" type="curve" smooth="yes"/>
      <point x="439" y="807"/>
      <point x="409" y="777"/>
    </contour>
    <contour>
      <point x="584" y="777" type="curve" smooth="yes"/>
      <point x="548" y="777"/>
      <point x="518" y="805"/>
      <point x="518" y="841" type="curve" smooth="yes"/>
      <point x="518" y="877"/>
      <point x="548" y="907"/>
      <point x="585" y="907" type="curve" smooth="yes"/>
      <point x="621" y="907"/>
      <point x="650" y="878"/>
      <point x="650" y="842" type="curve" smooth="yes"/>
      <point x="650" y="807"/>
      <point x="620" y="777"/>
    </contour>
    <contour>
      <point x="785" y="405" type="curve" smooth="yes"/>
      <point x="785" y="163"/>
      <point x="618" y="-10"/>
      <point x="393" y="-10" type="curve" smooth="yes"/>
      <point x="198" y="-10"/>
      <point x="59" y="117"/>
      <point x="59" y="308" type="curve" smooth="yes"/>
      <point x="59" y="544"/>
      <point x="226" y="725"/>
      <point x="452" y="725" type="curve" smooth="yes"/>
      <point x="655" y="725"/>
      <point x="785" y="591"/>
    </contour>
    <contour>
      <point x="647" y="402" type="curve" smooth="yes"/>
      <point x="647" y="522"/>
      <point x="580" y="618"/>
      <point x="449" y="619" type="curve" smooth="yes"/>
      <point x="291" y="619"/>
      <point x="197" y="475"/>
      <point x="197" y="311" type="curve" smooth="yes"/>
      <point x="197" y="179"/>
      <point x="277" y="96"/>
      <point x="399" y="96" type="curve" smooth="yes"/>
      <point x="551" y="96"/>
      <point x="647" y="232"/>
    </contour>
  </outline>
</glyph>
<glyph name="multiply" format="2">
  <advance width="509"/>
  <unicode hex="00D7"/>
  <outline>
    <contour>
      <point x="84" y="115" type="line"/>
      <point x="25" y="183" type="line"/>
      <point x="198" y="336" type="line"/>
      <point x="66" y="489" type="line"/>
      <point x="138" y="555" type="line"/>
      <point x="271" y="401" type="line"/>
      <point x="444" y="554" type="line"/>
      <point x="504" y="486" type="line"/>
      <point x="330" y="332" type="line"/>
      <point x="463" y="179" type="line"/>
      <point x="390" y="114" type="line"/>
      <point x="257" y="267" type="line"/>
    </contour>
  </outline>
</glyph>
<glyph name="Oslash" format="2">
  <advance width="814"/>
  <unicode hex="00D8"/>
  <outline>
    <contour>
      <point x="80" y="-33" type="line"/>
      <point x="32" y="18" type="line"/>
      <point x="123" y="111" type="line"/>
      <point x="82" y="163"/>
      <point x="59" y="230"/>
      <point x="59" y="308" type="curve" smooth="yes"/>
      <point x="59" y="544"/>
      <point x="226" y="724"/>
      <point x="452" y="724" type="curve" smooth="yes"/>
      <point x="536" y="724"/>
      <point x="607" y="701"/>
      <point x="662" y="661" type="curve"/>
      <point x="741" y="741" type="line"/>
      <point x="789" y="691" type="line"/>
      <point x="713" y="613" type="line"/>
      <point x="759" y="559"/>
      <point x="785" y="487"/>
      <point x="785" y="405" type="curve" smooth="yes"/>
      <point x="785" y="163"/>
      <point x="618" y="-10"/>
      <point x="393" y="-10" type="curve" smooth="yes"/>
      <point x="305" y="-10"/>
      <point x="230" y="16"/>
      <point x="172" y="61" type="curve"/>
    </contour>
    <contour>
      <point x="649" y="402" type="curve" smooth="yes"/>
      <point x="649" y="448"/>
      <point x="640" y="488"/>
      <point x="623" y="522" type="curve"/>
      <point x="256" y="146" type="line"/>
      <point x="291" y="113"/>
      <point x="340" y="96"/>
      <point x="399" y="96" type="curve" smooth="yes"/>
      <point x="551" y="96"/>
      <point x="649" y="230"/>
    </contour>
    <contour>
      <point x="195" y="311" type="curve" smooth="yes"/>
      <point x="195" y="270"/>
      <point x="202" y="234"/>
      <point x="215" y="205" type="curve"/>
      <point x="580" y="576" type="line"/>
      <point x="547" y="603"/>
      <point x="503" y="619"/>
      <point x="449" y="619" type="curve" smooth="yes"/>
      <point x="291" y="619"/>
      <point x="195" y="477"/>
    </contour>
  </outline>
</glyph>
<glyph name="Ugrave" format="2">
  <advance width="723"/>
  <unicode hex="00D9"/>
  <outline>
    <contour>
      <point x="395" y="766" type="line"/>
      <point x="312" y="901" type="line"/>
      <point x="446" y="901" type="line"/>
      <point x="483" y="766" type="line"/>
    </contour>
    <contour>
      <point x="342" y="-10" type="curve" smooth="yes"/>
      <point x="148" y="-10"/>
      <point x="47" y="92"/>
      <point x="80" y="293" type="curve" smooth="yes"/>
      <point x="147" y="715" type="line"/>
      <point x="281" y="715" type="line"/>
      <point x="213" y="290" type="line" smooth="yes"/>
      <point x="191" y="153"/>
      <point x="236" y="97"/>
      <point x="346" y="97" type="curve" smooth="yes"/>
      <point x="443" y="97"/>
      <point x="493" y="148"/>
      <point x="513" y="272" type="curve" smooth="yes"/>
      <point x="584" y="715" type="line"/>
      <point x="718" y="715" type="line"/>
      <point x="645" y="258" type="line" smooth="yes"/>
      <point x="618" y="87"/>
      <point x="524" y="-10"/>
    </contour>
  </outline>
</glyph>
<glyph name="Udieresis" format="2">
  <advance width="723"/>
  <unicode hex="00DC"/>
  <outline>
    <contour>
      <point x="342" y="-10" type="curve" smooth="yes"/>
      <point x="148" y="-10"/>
      <point x="47" y="92"/>
      <point x="80" y="293" type="curve" smooth="yes"/>
      <point x="147" y="715" type="line"/>
      <point x="281" y="715" type="line"/>
      <point x="213" y="290" type="line" smooth="yes"/>
      <point x="191" y="153"/>
      <point x="236" y="97"/>
      <point x="346" y="97" type="curve" smooth="yes"/>
      <point x="443" y="97"/>
      <point x="493" y="148"/>
      <point x="513" y="272" type="curve" smooth="yes"/>
      <point x="584" y="715" type="line"/>
      <point x="718" y="715" type="line"/>
      <point x="645" y="258" type="line" smooth="yes"/>
      <point x="618" y="87"/>
      <point x="524" y="-10"/>
    </contour>
    <contour>
      <point x="338" y="777" type="curve" smooth="yes"/>
      <point x="302" y="777"/>
      <point x="272" y="805"/>
      <point x="272" y="841" type="curve" smooth="yes"/>
      <point x="272" y="877"/>
      <point x="303" y="907"/>
      <point x="339" y="907" type="curve" smooth="yes"/>
      <point x="375" y="907"/>
      <point x="404" y="878"/>
      <point x="404" y="842" type="curve" smooth="yes"/>
      <point x="404" y="807"/>
      <point x="374" y="777"/>
    </contour>
    <contour>
      <point x="549" y="777" type="curve" smooth="yes"/>
      <point x="513" y="777"/>
      <point x="483" y="805"/>
      <point x="483" y="841" type="curve" smooth="yes"/>
      <point x="483" y="877"/>
      <point x="513" y="907"/>
      <point x="550" y="907" type="curve" smooth="yes"/>
      <point x="586" y="907"/>
      <point x="615" y="878"/>
      <point x="615" y="842" type="curve" smooth="yes"/>
      <point x="615" y="807"/>
      <point x="585" y="777"/>
    </contour>
  </outline>
</glyph>
<glyph name="Thorn" format="2">
  <advance width="609"/>
  <unicode hex="00DE"/>
  <outline>
    <contour>
      <point x="286" y="715" type="line"/>
      <point x="266" y="587" type="line"/>
      <point x="357" y="587" type="line" smooth="yes"/>
      <point x="503" y="587"/>
      <point x="595" y="521"/>
      <point x="594" y="397" type="curve" smooth="yes"/>
      <point x="594" y="229"/>
      <point x="466" y="153"/>
      <point x="314" y="153" type="curve" smooth="yes"/>
      <point x="197" y="153" type="line"/>
      <point x="173" y="0" type="line"/>
      <point x="40" y="0" type="line"/>
      <point x="153" y="715" type="line"/>
    </contour>
    <contour>
      <point x="342" y="488" type="curve" smooth="yes"/>
      <point x="250" y="488" type="line"/>
      <point x="212" y="250" type="line"/>
      <point x="314" y="250" type="line" smooth="yes"/>
      <point x="412" y="250"/>
      <point x="465" y="301"/>
      <point x="465" y="391" type="curve" smooth="yes"/>
      <point x="466" y="457"/>
      <point x="425" y="488"/>
    </contour>
  </outline>
</glyph>
<glyph name="germandbls" format="2">
  <advance width="609"/>
  <unicode hex="00DF"/>
  <outline>
    <contour>
      <point x="329" y="-9" type="curve" smooth="yes"/>
      <point x="281" y="-9"/>
      <point x="246" y="0"/>
      <point x="218" y="13" type="curve"/>
      <point x="234" y="105" type="line"/>
      <point x="257" y="93"/>
      <point x="283" y="86"/>
      <point x="315" y="86" type="curve" smooth="yes"/>
      <point x="401" y="86"/>
      <point x="445" y="151"/>
      <point x="445" y="240" type="curve" smooth="yes"/>
      <point x="445" y="331"/>
      <point x="389" y="384"/>
      <point x="293" y="383" type="curve"/>
      <point x="308" y="478" type="line"/>
      <point x="386" y="478"/>
      <point x="453" y="510"/>
      <point x="453" y="596" type="curve" smooth="yes"/>
      <point x="453" y="653"/>
      <point x="416" y="686"/>
      <point x="356" y="686" type="curve" smooth="yes"/>
      <point x="292" y="686"/>
      <point x="252" y="643"/>
      <point x="241" y="569" type="curve" smooth="yes"/>
      <point x="151" y="0" type="line"/>
      <point x="30" y="0" type="line"/>
      <point x="120" y="570" type="line" smooth="yes"/>
      <point x="141" y="704"/>
      <point x="237" y="773"/>
      <point x="360" y="773" type="curve" smooth="yes"/>
      <point x="473" y="773"/>
      <point x="567" y="714"/>
      <point x="567" y="598" type="curve" smooth="yes"/>
      <point x="567" y="514"/>
      <point x="510" y="455"/>
      <point x="425" y="430" type="curve"/>
      <point x="512" y="403"/>
      <point x="568" y="331"/>
      <point x="568" y="232" type="curve" smooth="yes"/>
      <point x="568" y="86"/>
      <point x="478" y="-9"/>
    </contour>
  </outline>
</glyph>
<glyph name="agrave" format="2">
  <advance width="554"/>
  <unicode hex="00E0"/>
  <outline>
    <contour>
      <point x="188" y="-10" type="curve" smooth="yes"/>
      <point x="85" y="-10"/>
      <point x="20" y="47"/>
      <point x="20" y="137" type="curve" smooth="yes"/>
      <point x="20" y="269"/>
      <point x="132" y="311"/>
      <point x="282" y="311" type="curve" smooth="yes"/>
      <point x="374" y="311" type="line"/>
      <point x="378" y="339" type="line" smooth="yes"/>
      <point x="389" y="407"/>
      <point x="368" y="443"/>
      <point x="295" y="443" type="curve" smooth="yes"/>
      <point x="235" y="443"/>
      <point x="201" y="414"/>
      <point x="189" y="361" type="curve"/>
      <point x="73" y="361" type="line"/>
      <point x="98" y="487"/>
      <point x="197" y="534"/>
      <point x="300" y="534" type="curve" smooth="yes"/>
      <point x="437" y="534"/>
      <point x="519" y="473"/>
      <point x="496" y="326" type="curve" smooth="yes"/>
      <point x="470" y="159" type="line" smooth="yes"/>
      <point x="459" y="91"/>
      <point x="456" y="44"/>
      <point x="461" y="0" type="curve"/>
      <point x="346" y="0" type="line"/>
      <point x="342" y="26"/>
      <point x="342" y="54"/>
      <point x="344" y="76" type="curve"/>
      <point x="309" y="23"/>
      <point x="256" y="-10"/>
    </contour>
    <contour>
      <point x="222" y="77" type="curve" smooth="yes"/>
      <point x="289" y="77"/>
      <point x="343" y="115"/>
      <point x="354" y="188" type="curve" smooth="yes"/>
      <point x="361" y="235" type="line"/>
      <point x="285" y="235" type="line" smooth="yes"/>
      <point x="186" y="235"/>
      <point x="140" y="212"/>
      <point x="140" y="147" type="curve" smooth="yes"/>
      <point x="140" y="108"/>
      <point x="166" y="77"/>
    </contour>
    <contour>
      <point x="272" y="601" type="line"/>
      <point x="183" y="756" type="line"/>
      <point x="315" y="756" type="line"/>
      <point x="359" y="601" type="line"/>
    </contour>
  </outline>
</glyph>
<glyph name="adieresis" format="2">
  <advance width="554"/>
  <unicode hex="00E4"/>
  <outline>
    <contour>
      <point x="188" y="-10" type="curve" smooth="yes"/>
      <point x="85" y="-10"/>
      <point x="20" y="47"/>
      <point x="20" y="137" type="curve" smooth="yes"/>
      <point x="20" y="269"/>
      <point x="132" y="311"/>
      <point x="282" y="311" type="curve" smooth="yes"/>
      <point x="374" y="311" type="line"/>
      <point x="378" y="339" type="line" smooth="yes"/>
      <point x="389" y="407"/>
      <point x="368" y="443"/>
      <point x="295" y="443" type="curve" smooth="yes"/>
      <point x="235" y="443"/>
      <point x="201" y="414"/>
      <point x="189" y="361" type="curve"/>
      <point x="73" y="361" type="line"/>
      <point x="98" y="487"/>
      <point x="197" y="534"/>
      <point x="300" y="534" type="curve" smooth="yes"/>
      <point x="437" y="534"/>
      <point x="519" y="473"/>
      <point x="496" y="326" type="curve" smooth="yes"/>
      <point x="470" y="159" type="line" smooth="yes"/>
      <point x="459" y="91"/>
      <point x="456" y="44"/>
      <point x="461" y="0" type="curve"/>
      <point x="346" y="0" type="line"/>
      <point x="342" y="26"/>
      <point x="342" y="54"/>
      <point x="344" y="76" type="curve"/>
      <point x="309" y="23"/>
      <point x="256" y="-10"/>
    </contour>
    <contour>
      <point x="222" y="77" type="curve" smooth="yes"/>
      <point x="289" y="77"/>
      <point x="343" y="115"/>
      <point x="354" y="188" type="curve" smooth="yes"/>
      <point x="361" y="235" type="line"/>
      <point x="285" y="235" type="line" smooth="yes"/>
      <point x="186" y="235"/>
      <point x="140" y="212"/>
      <point x="140" y="147" type="curve" smooth="yes"/>
      <point x="140" y="108"/>
      <point x="166" y="77"/>
    </contour>
    <contour>
      <point x="223" y="613" type="curve" smooth="yes"/>
      <point x="186" y="613"/>
      <point x="157" y="641"/>
      <point x="157" y="677" type="curve" smooth="yes"/>
      <point x="157" y="713"/>
      <point x="187" y="743"/>
      <point x="224" y="743" type="curve" smooth="yes"/>
      <point x="260" y="743"/>
      <point x="289" y="714"/>
      <point x="289" y="678" type="curve" smooth="yes"/>
      <point x="289" y="643"/>
      <point x="259" y="613"/>
    </contour>
    <contour>
      <point x="420" y="613" type="curve" smooth="yes"/>
      <point x="384" y="613"/>
      <point x="355" y="641"/>
      <point x="355" y="677" type="curve" smooth="yes"/>
      <point x="355" y="713"/>
      <point x="385" y="743"/>
      <point x="421" y="743" type="curve" smooth="yes"/>
      <point x="458" y="743"/>
      <point x="486" y="714"/>
      <point x="486" y="678" type="curve" smooth="yes"/>
      <point x="486" y="643"/>
      <point x="457" y="613"/>
    </contour>
  </outline>
</glyph>
<glyph name="ccedilla" format="2">
  <advance width="564"/>
  <unicode hex="00E7"/>
  <outline>
    <contour>
      <point x="215" y="-219" type="curve" smooth="yes"/>
      <point x="159" y="-219"/>
      <point x="111" y="-191"/>
      <point x="106" y="-131" type="curve"/>
      <point x="173" y="-131" type="line"/>
      <point x="175" y="-149"/>
      <point x="188" y="-164"/>
      <point x="212" y="-164" type="curve" smooth="yes"/>
      <point x="231" y="-164"/>
      <point x="250" y="-154"/>
      <point x="250" y="-128" type="curve" smooth="yes"/>
      <point x="250" y="-109"/>
      <point x="236" y="-98"/>
      <point x="216" y="-98" type="curve" smooth="yes"/>
      <point x="203" y="-98"/>
      <point x="195" y="-102"/>
      <point x="189" y="-106" type="curve"/>
      <point x="159" y="-73" type="line"/>
      <point x="214" y="-2" type="line"/>
      <point x="101" y="22"/>
      <point x="33" y="107"/>
      <point x="33" y="229" type="curve" smooth="yes"/>
      <point x="33" y="420"/>
      <point x="159" y="533"/>
      <point x="313" y="533" type="curve" smooth="yes"/>
      <point x="436" y="533"/>
      <point x="532" y="473"/>
      <point x="538" y="337" type="curve"/>
      <point x="424" y="337" type="line"/>
      <point x="416" y="413"/>
      <point x="373" y="437"/>
      <point x="309" y="437" type="curve" smooth="yes"/>
      <point x="216" y="437"/>
      <point x="155" y="357"/>
      <point x="155" y="229" type="curve" smooth="yes"/>
      <point x="155" y="136"/>
      <point x="199" y="83"/>
      <point x="289" y="83" type="curve" smooth="yes"/>
      <point x="353" y="83"/>
      <point x="406" y="122"/>
      <point x="419" y="194" type="curve"/>
      <point x="529" y="194" type="line"/>
      <point x="509" y="64"/>
      <point x="415" y="-9"/>
      <point x="286" y="-9" type="curve" smooth="yes"/>
      <point x="270" y="-9" type="line"/>
      <point x="238" y="-50" type="line"/>
      <point x="283" y="-46"/>
      <point x="326" y="-72"/>
      <point x="326" y="-125" type="curve" smooth="yes"/>
      <point x="326" y="-187"/>
      <point x="279" y="-219"/>
    </contour>
  </outline>
</glyph>
<glyph name="egrave" format="2">
  <advance width="570"/>
  <unicode hex="00E8"/>
  <outline>
    <contour>
      <point x="153" y="213" type="line" smooth="yes"/>
      <point x="153" y="132"/>
      <point x="190" y="80"/>
      <point x="279" y="80" type="curve" smooth="yes"/>
      <point x="344" y="80"/>
      <point x="386" y="108"/>
      <point x="403" y="160" type="curve"/>
      <point x="520" y="160" type="line"/>
      <point x="490" y="47"/>
      <point x="394" y="-10"/>
      <point x="275" y="-10" type="curve" smooth="yes"/>
      <point x="129" y="-10"/>
      <point x="32" y="76"/>
      <point x="32" y="219" type="curve" smooth="yes"/>
      <point x="32" y="405"/>
      <point x="154" y="533"/>
      <point x="315" y="533" type="curve" smooth="yes"/>
      <point x="468" y="533"/>
      <point x="563" y="437"/>
      <point x="535" y="257" type="curve"/>
      <point x="531" y="235" type="line"/>
      <point x="153" y="235" type="line"/>
    </contour>
    <contour>
      <point x="312" y="446" type="curve" smooth="yes"/>
      <point x="249" y="446"/>
      <point x="189" y="409"/>
      <point x="165" y="316" type="curve"/>
      <point x="422" y="316" type="line"/>
      <point x="429" y="402"/>
      <point x="394" y="446"/>
    </contour>
    <contour>
      <point x="286" y="601" type="line"/>
      <point x="197" y="756" type="line"/>
      <point x="329" y="756" type="line"/>
      <point x="373" y="601" type="line"/>
    </contour>
  </outline>
</glyph>
<glyph name="ecircumflex" format="2">
  <advance width="570"/>
  <unicode hex="00EA"/>
  <outline>
    <contour>
      <point x="153" y="213" type="line" smooth="yes"/>
      <point x="153" y="132"/>
      <point x="190" y="80"/>
      <point x="279" y="80" type="curve" smooth="yes"/>
      <point x="344" y="80"/>
      <point x="386" y="108"/>
      <point x="403" y="160" type="curve"/>
      <point x="520" y="160" type="line"/>
      <point x="490" y="47"/>
      <point x="394" y="-10"/>
      <point x="275" y="-10" type="curve" smooth="yes"/>
      <point x="129" y="-10"/>
      <point x="32" y="76"/>
      <point x="32" y="219" type="curve" smooth="yes"/>
      <point x="32" y="405"/>
      <point x="154" y="533"/>
      <point x="315" y="533" type="curve" smooth="yes"/>
      <point x="468" y="533"/>
      <point x="563" y="437"/>
      <point x="535" y="257" type="curve"/>
      <point x="531" y="235" type="line"/>
      <point x="153" y="235" type="line"/>
    </contour>
    <contour>
      <point x="312" y="446" type="curve" smooth="yes"/>
      <point x="249" y="446"/>
      <point x="189" y="409"/>
      <point x="165" y="316" type="curve"/>
      <point x="422" y="316" type="line"/>
      <point x="429" y="402"/>
      <point x="394" y="446"/>
    </contour>
    <contour>
      <point x="160" y="602" type="line"/>
      <point x="295" y="753" type="line"/>
      <point x="390" y="753" type="line"/>
      <point x="481" y="602" type="line"/>
      <point x="398" y="602" type="line"/>
      <point x="332" y="670" type="line"/>
      <point x="247" y="602" type="line"/>
    </contour>
  </outline>
</glyph>
<glyph name="edieresis" format="2">
  <advance width="570"/>
  <unicode hex="00EB"/>
  <outline>
    <contour>
      <point x="153" y="213" type="line" smooth="yes"/>
      <point x="153" y="132"/>
      <point x="190" y="80"/>
      <point x="279" y="80" type="curve" smooth="yes"/>
      <point x="344" y="80"/>
      <point x="386" y="108"/>
      <point x="403" y="160" type="curve"/>
      <point x="520" y="160" type="line"/>
      <point x="490" y="47"/>
      <point x="394" y="-10"/>
      <point x="275" y="-10" type="curve" smooth="yes"/>
      <point x="129" y="-10"/>
      <point x="32" y="76"/>
      <point x="32" y="219" type="curve" smooth="yes"/>
      <point x="32" y="405"/>
      <point x="154" y="533"/>
      <point x="315" y="533" type="curve" smooth="yes"/>
      <point x="468" y="533"/>
      <point x="563" y="437"/>
      <point x="535" y="257" type="curve"/>
      <point x="531" y="235" type="line"/>
      <point x="153" y="235" type="line"/>
    </contour>
    <contour>
      <point x="312" y="446" type="curve" smooth="yes"/>
      <point x="249" y="446"/>
      <point x="189" y="409"/>
      <point x="165" y="316" type="curve"/>
      <point x="422" y="316" type="line"/>
      <point x="429" y="402"/>
      <point x="394" y="446"/>
    </contour>
    <contour>
      <point x="239" y="613" type="curve" smooth="yes"/>
      <point x="202" y="613"/>
      <point x="173" y="641"/>
      <point x="173" y="677" type="curve" smooth="yes"/>
      <point x="173" y="713"/>
      <point x="203" y="743"/>
      <point x="240" y="743" type="curve" smooth="yes"/>
      <point x="276" y="743"/>
      <point x="305" y="714"/>
      <point x="305" y="678" type="curve" smooth="yes"/>
      <point x="305" y="643"/>
      <point x="275" y="613"/>
    </contour>
    <contour>
      <point x="436" y="613" type="curve" smooth="yes"/>
      <point x="400" y="613"/>
      <point x="371" y="641"/>
      <point x="371" y="677" type="curve" smooth="yes"/>
      <point x="371" y="713"/>
      <point x="401" y="743"/>
      <point x="437" y="743" type="curve" smooth="yes"/>
      <point x="474" y="743"/>
      <point x="502" y="714"/>
      <point x="502" y="678" type="curve" smooth="yes"/>
      <point x="502" y="643"/>
      <point x="473" y="613"/>
    </contour>
  </outline>
</glyph>
<glyph name="igrave" format="2">
  <advance width="271"/>
  <unicode hex="00EC"/>
  <outline>
    <contour>
      <point x="33" y="0" type="line"/>
      <point x="116" y="523" type="line"/>
      <point x="237" y="523" type="line"/>
      <point x="154" y="0" type="line"/>
    </contour>
    <contour>
      <point x="148" y="601" type="line"/>
      <point x="59" y="756" type="line"/>
      <point x="191" y="756" type="line"/>
      <point x="235" y="601" type="line"/>
    </contour>
  </outline>
</glyph>
<glyph name="iacute" format="2">
  <advance width="271"/>
  <unicode hex="00ED"/>
  <outline>
    <contour>
      <point x="135" y="601" type="line"/>
      <point x="212" y="756" type="line"/>
      <point x="348" y="756" type="line"/>
      <point x="226" y="601" type="line"/>
    </contour>
    <contour>
      <point x="33" y="0" type="line"/>
      <point x="116" y="523" type="line"/>
      <point x="237" y="523" type="line"/>
      <point x="154" y="0" type="line"/>
    </contour>
  </outline>
</glyph>
<glyph name="idieresis" format="2">
  <advance width="271"/>
  <unicode hex="00EF"/>
  <outline>
    <contour>
      <point x="106" y="613" type="curve" smooth="yes"/>
      <point x="70" y="613"/>
      <point x="40" y="641"/>
      <point x="40" y="677" type="curve" smooth="yes"/>
      <point x="40" y="713"/>
      <point x="70" y="743"/>
      <point x="107" y="743" type="curve" smooth="yes"/>
      <point x="143" y="743"/>
      <point x="172" y="714"/>
      <point x="172" y="678" type="curve" smooth="yes"/>
      <point x="172" y="643"/>
      <point x="142" y="613"/>
    </contour>
    <contour>
      <point x="296" y="613" type="curve" smooth="yes"/>
      <point x="260" y="613"/>
      <point x="231" y="641"/>
      <point x="231" y="677" type="curve" smooth="yes"/>
      <point x="231" y="713"/>
      <point x="260" y="743"/>
      <point x="297" y="743" type="curve" smooth="yes"/>
      <point x="333" y="743"/>
      <point x="362" y="714"/>
      <point x="362" y="678" type="curve" smooth="yes"/>
      <point x="362" y="643"/>
      <point x="333" y="613"/>
    </contour>
    <contour>
      <point x="33" y="0" type="line"/>
      <point x="116" y="523" type="line"/>
      <point x="237" y="523" type="line"/>
      <point x="154" y="0" type="line"/>
    </contour>
  </outline>
</glyph>
<glyph name="eth" format="2">
  <advance width="603"/>
  <unicode hex="00F0"/>
  <outline>
    <contour>
      <point x="204" y="567" type="line"/>
      <point x="180" y="619" type="line"/>
      <point x="293" y="670" type="line"/>
      <point x="258" y="704"/>
      <point x="219" y="735"/>
      <point x="178" y="765" type="curve"/>
      <point x="326" y="765" type="line"/>
      <point x="348" y="752"/>
      <point x="371" y="735"/>
      <point x="393" y="715" type="curve"/>
      <point x="494" y="760" type="line"/>
      <point x="518" y="707" type="line"/>
      <point x="437" y="671" type="line"/>
      <point x="509" y="589"/>
      <point x="568" y="472"/>
      <point x="568" y="334" type="curve" smooth="yes"/>
      <point x="568" y="141"/>
      <point x="467" y="-10"/>
      <point x="277" y="-10" type="curve" smooth="yes"/>
      <point x="135" y="-10"/>
      <point x="32" y="78"/>
      <point x="32" y="228" type="curve" smooth="yes"/>
      <point x="32" y="384"/>
      <point x="135" y="531"/>
      <point x="295" y="531" type="curve" smooth="yes"/>
      <point x="354" y="531"/>
      <point x="399" y="511"/>
      <point x="432" y="463" type="curve"/>
      <point x="408" y="525"/>
      <point x="375" y="578"/>
      <point x="335" y="625" type="curve"/>
    </contour>
    <contour>
      <point x="155" y="222" type="curve" smooth="yes"/>
      <point x="155" y="149"/>
      <point x="189" y="84"/>
      <point x="279" y="84" type="curve" smooth="yes"/>
      <point x="387" y="84"/>
      <point x="444" y="188"/>
      <point x="444" y="300" type="curve" smooth="yes"/>
      <point x="444" y="373"/>
      <point x="409" y="439"/>
      <point x="317" y="439" type="curve" smooth="yes"/>
      <point x="211" y="439"/>
      <point x="155" y="338"/>
    </contour>
  </outline>
</glyph>
<glyph name="ntilde" format="2">
  <advance width="604"/>
  <unicode hex="00F1"/>
  <outline>
    <contour>
      <point x="30" y="0" type="line"/>
      <point x="87" y="361" type="line" smooth="yes"/>
      <point x="98" y="434"/>
      <point x="101" y="478"/>
      <point x="103" y="523" type="curve"/>
      <point x="219" y="523" type="line"/>
      <point x="219" y="495"/>
      <point x="217" y="458"/>
      <point x="213" y="425" type="curve"/>
      <point x="250" y="486"/>
      <point x="309" y="534"/>
      <point x="394" y="534" type="curve" smooth="yes"/>
      <point x="499" y="534"/>
      <point x="570" y="472"/>
      <point x="545" y="314" type="curve" smooth="yes"/>
      <point x="495" y="0" type="line"/>
      <point x="374" y="0" type="line"/>
      <point x="424" y="320" type="line" smooth="yes"/>
      <point x="437" y="397"/>
      <point x="410" y="434"/>
      <point x="347" y="434" type="curve" smooth="yes"/>
      <point x="272" y="434"/>
      <point x="211" y="385"/>
      <point x="198" y="298" type="curve" smooth="yes"/>
      <point x="151" y="0" type="line"/>
    </contour>
    <contour>
      <point x="413" y="606" type="curve" smooth="yes"/>
      <point x="362" y="606"/>
      <point x="329" y="646"/>
      <point x="300" y="646" type="curve" smooth="yes"/>
      <point x="282" y="646"/>
      <point x="264" y="630"/>
      <point x="258" y="606" type="curve"/>
      <point x="184" y="606" type="line"/>
      <point x="199" y="691"/>
      <point x="243" y="737"/>
      <point x="299" y="737" type="curve" smooth="yes"/>
      <point x="348" y="737"/>
      <point x="382" y="698"/>
      <point x="413" y="698" type="curve" smooth="yes"/>
      <point x="431" y="698"/>
      <point x="447" y="713"/>
      <point x="453" y="738" type="curve"/>
      <point x="528" y="738" type="line"/>
      <point x="513" y="652"/>
      <point x="468" y="606"/>
    </contour>
  </outline>
</glyph>
<glyph name="ograve" format="2">
  <advance width="599"/>
  <unicode hex="00F2"/>
  <outline>
    <contour>
      <point x="279" y="-10" type="curve" smooth="yes"/>
      <point x="135" y="-10"/>
      <point x="33" y="81"/>
      <point x="33" y="225" type="curve" smooth="yes"/>
      <point x="32" y="401"/>
      <point x="155" y="533"/>
      <point x="320" y="533" type="curve" smooth="yes"/>
      <point x="464" y="533"/>
      <point x="567" y="445"/>
      <point x="567" y="299" type="curve" smooth="yes"/>
      <point x="567" y="119"/>
      <point x="448" y="-10"/>
    </contour>
    <contour>
      <point x="282" y="84" type="curve" smooth="yes"/>
      <point x="385" y="84"/>
      <point x="443" y="177"/>
      <point x="443" y="300" type="curve" smooth="yes"/>
      <point x="443" y="383"/>
      <point x="400" y="439"/>
      <point x="316" y="439" type="curve" smooth="yes"/>
      <point x="217" y="439"/>
      <point x="155" y="347"/>
      <point x="155" y="225" type="curve" smooth="yes"/>
      <point x="155" y="143"/>
      <point x="194" y="84"/>
    </contour>
    <contour>
      <point x="295" y="601" type="line"/>
      <point x="206" y="756" type="line"/>
      <point x="338" y="756" type="line"/>
      <point x="382" y="601" type="line"/>
    </contour>
  </outline>
</glyph>
<glyph name="otilde" format="2">
  <advance width="599"/>
  <unicode hex="00F5"/>
  <outline>
    <contour>
      <point x="279" y="-10" type="curve" smooth="yes"/>
      <point x="135" y="-10"/>
      <point x="33" y="81"/>
      <point x="33" y="225" type="curve" smooth="yes"/>
      <point x="32" y="401"/>
      <point x="155" y="533"/>
      <point x="320" y="533" type="curve" smooth="yes"/>
      <point x="464" y="533"/>
      <point x="567" y="445"/>
      <point x="567" y="299" type="curve" smooth="yes"/>
      <point x="567" y="119"/>
      <point x="448" y="-10"/>
    </contour>
    <contour>
      <point x="282" y="84" type="curve" smooth="yes"/>
      <point x="385" y="84"/>
      <point x="443" y="177"/>
      <point x="443" y="300" type="curve" smooth="yes"/>
      <point x="443" y="383"/>
      <point x="400" y="439"/>
      <point x="316" y="439" type="curve" smooth="yes"/>
      <point x="217" y="439"/>
      <point x="155" y="347"/>
      <point x="155" y="225" type="curve" smooth="yes"/>
      <point x="155" y="143"/>
      <point x="194" y="84"/>
    </contour>
    <contour>
      <point x="400" y="606" type="curve" smooth="yes"/>
      <point x="349" y="606"/>
      <point x="316" y="646"/>
      <point x="287" y="646" type="curve" smooth="yes"/>
      <point x="269" y="646"/>
      <point x="251" y="630"/>
      <point x="245" y="606" type="curve"/>
      <point x="171" y="606" type="line"/>
      <point x="186" y="691"/>
      <point x="230" y="737"/>
      <point x="286" y="737" type="curve" smooth="yes"/>
      <point x="335" y="737"/>
      <point x="369" y="698"/>
      <point x="400" y="698" type="curve" smooth="yes"/>
      <point x="418" y="698"/>
      <point x="434" y="713"/>
      <point x="440" y="738" type="curve"/>
      <point x="515" y="738" type="line"/>
      <point x="500" y="652"/>
      <point x="455" y="606"/>
    </contour>
  </outline>
</glyph>
<glyph name="odieresis" format="2">
  <advance width="599"/>
  <unicode hex="00F6"/>
  <outline>
    <contour>
      <point x="245" y="613" type="curve" smooth="yes"/>
      <point x="208" y="613"/>
      <point x="179" y="641"/>
      <point x="179" y="677" type="curve" smooth="yes"/>
      <point x="179" y="713"/>
      <point x="209" y="743"/>
      <point x="246" y="743" type="curve" smooth="yes"/>
      <point x="282" y="743"/>
      <point x="311" y="714"/>
      <point x="311" y="678" type="curve" smooth="yes"/>
      <point x="311" y="643"/>
      <point x="281" y="613"/>
    </contour>
    <contour>
      <point x="442" y="613" type="curve" smooth="yes"/>
      <point x="406" y="613"/>
      <point x="377" y="641"/>
      <point x="377" y="677" type="curve" smooth="yes"/>
      <point x="377" y="713"/>
      <point x="407" y="743"/>
      <point x="443" y="743" type="curve" smooth="yes"/>
      <point x="480" y="743"/>
      <point x="508" y="714"/>
      <point x="508" y="678" type="curve" smooth="yes"/>
      <point x="508" y="643"/>
      <point x="479" y="613"/>
    </contour>
    <contour>
      <point x="279" y="-10" type="curve" smooth="yes"/>
      <point x="135" y="-10"/>
      <point x="33" y="81"/>
      <point x="33" y="225" type="curve" smooth="yes"/>
      <point x="32" y="401"/>
      <point x="155" y="533"/>
      <point x="320" y="533" type="curve" smooth="yes"/>
      <point x="464" y="533"/>
      <point x="567" y="445"/>
      <point x="567" y="299" type="curve" smooth="yes"/>
      <point x="567" y="119"/>
      <point x="448" y="-10"/>
    </contour>
    <contour>
      <point x="282" y="84" type="curve" smooth="yes"/>
      <point x="385" y="84"/>
      <point x="443" y="177"/>
      <point x="443" y="300" type="curve" smooth="yes"/>
      <point x="443" y="383"/>
      <point x="400" y="439"/>
      <point x="316" y="439" type="curve" smooth="yes"/>
      <point x="217" y="439"/>
      <point x="155" y="347"/>
      <point x="155" y="225" type="curve" smooth="yes"/>
      <point x="155" y="143"/>
      <point x="194" y="84"/>
    </contour>
  </outline>
</glyph>
<glyph name="divide" format="2">
  <advance width="540"/>
  <unicode hex="00F7"/>
  <outline>
    <contour>
      <point x="41" y="296" type="line"/>
      <point x="55" y="387" type="line"/>
      <point x="522" y="387" type="line"/>
      <point x="508" y="296" type="line"/>
    </contour>
    <contour>
      <point x="257" y="71" type="curve" smooth="yes"/>
      <point x="215" y="71"/>
      <point x="181" y="104"/>
      <point x="181" y="146" type="curve" smooth="yes"/>
      <point x="181" y="188"/>
      <point x="215" y="221"/>
      <point x="257" y="221" type="curve" smooth="yes"/>
      <point x="300" y="221"/>
      <point x="334" y="188"/>
      <point x="334" y="146" type="curve" smooth="yes"/>
      <point x="334" y="104"/>
      <point x="300" y="71"/>
    </contour>
    <contour>
      <point x="305" y="461" type="curve" smooth="yes"/>
      <point x="263" y="461"/>
      <point x="229" y="494"/>
      <point x="229" y="536" type="curve" smooth="yes"/>
      <point x="229" y="578"/>
      <point x="263" y="612"/>
      <point x="305" y="612" type="curve" smooth="yes"/>
      <point x="348" y="612"/>
      <point x="382" y="578"/>
      <point x="382" y="536" type="curve" smooth="yes"/>
      <point x="382" y="494"/>
      <point x="348" y="461"/>
    </contour>
  </outline>
</glyph>
<glyph name="ugrave" format="2">
  <advance width="601"/>
  <unicode hex="00F9"/>
  <outline>
    <contour>
      <point x="569" y="523" type="line"/>
      <point x="512" y="159" type="line" smooth="yes"/>
      <point x="501" y="89"/>
      <point x="498" y="43"/>
      <point x="500" y="0" type="curve"/>
      <point x="383" y="0" type="line"/>
      <point x="381" y="28"/>
      <point x="382" y="61"/>
      <point x="387" y="94" type="curve"/>
      <point x="349" y="35"/>
      <point x="294" y="-10"/>
      <point x="211" y="-10" type="curve" smooth="yes"/>
      <point x="102" y="-10"/>
      <point x="33" y="56"/>
      <point x="58" y="209" type="curve" smooth="yes"/>
      <point x="108" y="523" type="line"/>
      <point x="229" y="523" type="line"/>
      <point x="177" y="199" type="line" smooth="yes"/>
      <point x="166" y="126"/>
      <point x="191" y="85"/>
      <point x="253" y="85" type="curve" smooth="yes"/>
      <point x="328" y="85"/>
      <point x="387" y="134"/>
      <point x="401" y="221" type="curve" smooth="yes"/>
      <point x="448" y="523" type="line"/>
    </contour>
    <contour>
      <point x="307" y="601" type="line"/>
      <point x="218" y="756" type="line"/>
      <point x="350" y="756" type="line"/>
      <point x="394" y="601" type="line"/>
    </contour>
  </outline>
</glyph>
<glyph name="udieresis" format="2">
  <advance width="601"/>
  <unicode hex="00FC"/>
  <outline>
    <contour>
      <point x="254" y="613" type="curve" smooth="yes"/>
      <point x="217" y="613"/>
      <point x="188" y="641"/>
      <point x="188" y="677" type="curve" smooth="yes"/>
      <point x="188" y="713"/>
      <point x="218" y="743"/>
      <point x="255" y="743" type="curve" smooth="yes"/>
      <point x="291" y="743"/>
      <point x="320" y="714"/>
      <point x="320" y="678" type="curve" smooth="yes"/>
      <point x="320" y="643"/>
      <point x="290" y="613"/>
    </contour>
    <contour>
      <point x="451" y="613" type="curve" smooth="yes"/>
      <point x="415" y="613"/>
      <point x="386" y="641"/>
      <point x="386" y="677" type="curve" smooth="yes"/>
      <point x="386" y="713"/>
      <point x="416" y="743"/>
      <point x="452" y="743" type="curve" smooth="yes"/>
      <point x="489" y="743"/>
      <point x="517" y="714"/>
      <point x="517" y="678" type="curve" smooth="yes"/>
      <point x="517" y="643"/>
      <point x="488" y="613"/>
    </contour>
    <contour>
      <point x="569" y="523" type="line"/>
      <point x="512" y="159" type="line" smooth="yes"/>
      <point x="501" y="89"/>
      <point x="498" y="43"/>
      <point x="500" y="0" type="curve"/>
      <point x="383" y="0" type="line"/>
      <point x="381" y="28"/>
      <point x="382" y="61"/>
      <point x="387" y="94" type="curve"/>
      <point x="349" y="35"/>
      <point x="294" y="-10"/>
      <point x="211" y="-10" type="curve" smooth="yes"/>
      <point x="102" y="-10"/>
      <point x="33" y="56"/>
      <point x="58" y="209" type="curve" smooth="yes"/>
      <point x="108" y="523" type="line"/>
      <point x="229" y="523" type="line"/>
      <point x="177" y="199" type="line" smooth="yes"/>
      <point x="166" y="126"/>
      <point x="191" y="85"/>
      <point x="253" y="85" type="curve" smooth="yes"/>
      <point x="328" y="85"/>
      <point x="387" y="134"/>
      <point x="401" y="221" type="curve" smooth="yes"/>
      <point x="448" y="523" type="line"/>
    </contour>
  </outline>
</glyph>
<glyph name="yacute" format="2">
  <advance width="533"/>
  <unicode hex="00FD"/>
  <outline>
    <contour>
      <point x="45" y="-179" type="line"/>
      <point x="180" y="59" type="line"/>
      <point x="55" y="523" type="line"/>
      <point x="179" y="523" type="line"/>
      <point x="260" y="185" type="line"/>
      <point x="436" y="523" type="line"/>
      <point x="560" y="523" type="line"/>
      <point x="169" y="-179" type="line"/>
    </contour>
    <contour>
      <point x="266" y="601" type="line"/>
      <point x="343" y="756" type="line"/>
      <point x="479" y="756" type="line"/>
      <point x="357" y="601" type="line"/>
    </contour>
  </outline>
</glyph>
<glyph name="thorn" format="2">
  <advance width="636"/>
  <unicode hex="00FE"/>
  <outline>
    <contour>
      <point x="1" y="-179" type="line"/>
      <point x="150" y="765" type="line"/>
      <point x="271" y="765" type="line"/>
      <point x="219" y="435" type="line"/>
      <point x="254" y="492"/>
      <point x="321" y="534"/>
      <point x="399" y="534" type="curve" smooth="yes"/>
      <point x="514" y="534"/>
      <point x="599" y="449"/>
      <point x="599" y="305" type="curve" smooth="yes"/>
      <point x="599" y="125"/>
      <point x="499" y="-10"/>
      <point x="342" y="-10" type="curve" smooth="yes"/>
      <point x="244" y="-10"/>
      <point x="187" y="40"/>
      <point x="166" y="94" type="curve"/>
      <point x="122" y="-179" type="line"/>
    </contour>
    <contour>
      <point x="319" y="84" type="curve" smooth="yes"/>
      <point x="416" y="84"/>
      <point x="473" y="174"/>
      <point x="473" y="297" type="curve" smooth="yes"/>
      <point x="473" y="389"/>
      <point x="429" y="440"/>
      <point x="356" y="440" type="curve" smooth="yes"/>
      <point x="259" y="440"/>
      <point x="185" y="356"/>
      <point x="185" y="225" type="curve" smooth="yes"/>
      <point x="185" y="137"/>
      <point x="235" y="84"/>
    </contour>
  </outline>
</glyph>
<glyph name="ydieresis" format="2">
  <advance width="533"/>
  <unicode hex="00FF"/>
  <outline>
    <contour>
      <point x="45" y="-179" type="line"/>
      <point x="180" y="59" type="line"/>
      <point x="55" y="523" type="line"/>
      <point x="179" y="523" type="line"/>
      <point x="260" y="185" type="line"/>
      <point x="436" y="523" type="line"/>
      <point x="560" y="523" type="line"/>
      <point x="169" y="-179" type="line"/>
    </contour>
    <contour>
      <point x="231" y="613" type="curve" smooth="yes"/>
      <point x="194" y="613"/>
      <point x="165" y="641"/>
      <point x="165" y="677" type="curve" smooth="yes"/>
      <point x="165" y="713"/>
      <point x="195" y="743"/>
      <point x="232" y="743" type="curve" smooth="yes"/>
      <point x="268" y="743"/>
      <point x="297" y="714"/>
      <point x="297" y="678" type="curve" smooth="yes"/>
      <point x="297" y="643"/>
      <point x="267" y="613"/>
    </contour>
    <contour>
      <point x="428" y="613" type="curve" smooth="yes"/>
      <point x="392" y="613"/>
      <point x="363" y="641"/>
      <point x="363" y="677" type="curve" smooth="yes"/>
      <point x="363" y="713"/>
      <point x="393" y="743"/>
      <point x="429" y="743" type="curve" smooth="yes"/>
      <point x="466" y="743"/>
      <point x="494" y="714"/>
      <point x="494" y="678" type="curve" smooth="yes"/>
      <point x="494" y="643"/>
      <point x="465" y="613"/>
    </contour>
  </outline>
</glyph>
<glyph name="Amacron" format="2">
  <advance width="685"/>
  <unicode hex="0100"/>
  <outline>
    <contour>
      <point x="490" y="0" type="line"/>
      <point x="461" y="177" type="line"/>
      <point x="188" y="177" type="line"/>
      <point x="104" y="0" type="line"/>
      <point x="-24" y="0" type="line"/>
      <point x="328" y="715" type="line"/>
      <point x="502" y="715" type="line"/>
      <point x="625" y="0" type="line"/>
    </contour>
    <contour>
      <point x="393" y="606" type="line"/>
      <point x="234" y="274" type="line"/>
      <point x="446" y="274" type="line"/>
    </contour>
    <contour>
      <point x="277" y="780" type="line"/>
      <point x="290" y="861" type="line"/>
      <point x="578" y="861" type="line"/>
      <point x="565" y="780" type="line"/>
    </contour>
  </outline>
</glyph>
<glyph name="Abreve" format="2">
  <advance width="685"/>
  <unicode hex="0102"/>
  <outline>
    <contour>
      <point x="490" y="0" type="line"/>
      <point x="461" y="177" type="line"/>
      <point x="188" y="177" type="line"/>
      <point x="104" y="0" type="line"/>
      <point x="-24" y="0" type="line"/>
      <point x="328" y="715" type="line"/>
      <point x="502" y="715" type="line"/>
      <point x="625" y="0" type="line"/>
    </contour>
    <contour>
      <point x="393" y="606" type="line"/>
      <point x="234" y="274" type="line"/>
      <point x="446" y="274" type="line"/>
    </contour>
    <contour>
      <point x="423" y="761" type="curve" smooth="yes"/>
      <point x="338" y="761"/>
      <point x="281" y="817"/>
      <point x="281" y="901" type="curve"/>
      <point x="366" y="901" type="line"/>
      <point x="370" y="865"/>
      <point x="388" y="845"/>
      <point x="425" y="845" type="curve" smooth="yes"/>
      <point x="462" y="845"/>
      <point x="483" y="864"/>
      <point x="490" y="901" type="curve"/>
      <point x="574" y="901" type="line"/>
      <point x="565" y="816"/>
      <point x="501" y="761"/>
    </contour>
  </outline>
</glyph>
<glyph name="Aogonek" format="2">
  <advance width="685"/>
  <unicode hex="0104"/>
  <outline>
    <contour>
      <point x="490" y="0" type="line"/>
      <point x="461" y="177" type="line"/>
      <point x="188" y="177" type="line"/>
      <point x="104" y="0" type="line"/>
      <point x="-24" y="0" type="line"/>
      <point x="328" y="715" type="line"/>
      <point x="502" y="715" type="line"/>
      <point x="624" y="4" type="line"/>
      <point x="591" y="-17"/>
      <point x="547" y="-42"/>
      <point x="547" y="-82" type="curve" smooth="yes"/>
      <point x="547" y="-101"/>
      <point x="559" y="-110"/>
      <point x="581" y="-110" type="curve" smooth="yes"/>
      <point x="595" y="-110"/>
      <point x="610" y="-107"/>
      <point x="621" y="-102" type="curve"/>
      <point x="611" y="-170" type="line"/>
      <point x="596" y="-175"/>
      <point x="576" y="-182"/>
      <point x="545" y="-182" type="curve" smooth="yes"/>
      <point x="490" y="-182"/>
      <point x="440" y="-161"/>
      <point x="441" y="-102" type="curve" smooth="yes"/>
      <point x="441" y="-52"/>
      <point x="488" y="-18"/>
      <point x="531" y="0" type="curve"/>
    </contour>
    <contour>
      <point x="393" y="606" type="line"/>
      <point x="234" y="274" type="line"/>
      <point x="446" y="274" type="line"/>
    </contour>
  </outline>
</glyph>
<glyph name="ccircumflex" format="2">
  <advance width="564"/>
  <unicode hex="0109"/>
  <outline>
    <contour>
      <point x="159" y="602" type="line"/>
      <point x="294" y="753" type="line"/>
      <point x="389" y="753" type="line"/>
      <point x="480" y="602" type="line"/>
      <point x="397" y="602" type="line"/>
      <point x="331" y="670" type="line"/>
      <point x="246" y="602" type="line"/>
    </contour>
    <contour>
      <point x="286" y="-9" type="curve" smooth="yes"/>
      <point x="130" y="-9"/>
      <point x="33" y="83"/>
      <point x="33" y="229" type="curve" smooth="yes"/>
      <point x="33" y="420"/>
      <point x="159" y="533"/>
      <point x="313" y="533" type="curve" smooth="yes"/>
      <point x="436" y="533"/>
      <point x="532" y="473"/>
      <point x="538" y="337" type="curve"/>
      <point x="424" y="337" type="line"/>
      <point x="416" y="413"/>
      <point x="373" y="437"/>
      <point x="309" y="437" type="curve" smooth="yes"/>
      <point x="216" y="437"/>
      <point x="155" y="357"/>
      <point x="155" y="229" type="curve" smooth="yes"/>
      <point x="155" y="136"/>
      <point x="199" y="83"/>
      <point x="289" y="83" type="curve" smooth="yes"/>
      <point x="353" y="83"/>
      <point x="406" y="122"/>
      <point x="419" y="194" type="curve"/>
      <point x="529" y="194" type="line"/>
      <point x="509" y="64"/>
      <point x="415" y="-9"/>
    </contour>
  </outline>
</glyph>
<glyph name="cdotaccent" format="2">
  <advance width="564"/>
  <unicode hex="010B"/>
  <outline>
    <contour>
      <point x="286" y="-9" type="curve" smooth="yes"/>
      <point x="130" y="-9"/>
      <point x="33" y="83"/>
      <point x="33" y="229" type="curve" smooth="yes"/>
      <point x="33" y="420"/>
      <point x="159" y="533"/>
      <point x="313" y="533" type="curve" smooth="yes"/>
      <point x="436" y="533"/>
      <point x="532" y="473"/>
      <point x="538" y="337" type="curve"/>
      <point x="424" y="337" type="line"/>
      <point x="416" y="413"/>
      <point x="373" y="437"/>
      <point x="309" y="437" type="curve" smooth="yes"/>
      <point x="216" y="437"/>
      <point x="155" y="357"/>
      <point x="155" y="229" type="curve" smooth="yes"/>
      <point x="155" y="136"/>
      <point x="199" y="83"/>
      <point x="289" y="83" type="curve" smooth="yes"/>
      <point x="353" y="83"/>
      <point x="406" y="122"/>
      <point x="419" y="194" type="curve"/>
      <point x="529" y="194" type="line"/>
      <point x="509" y="64"/>
      <point x="415" y="-9"/>
    </contour>
    <contour>
      <point x="338" y="611" type="curve" smooth="yes"/>
      <point x="298" y="611"/>
      <point x="267" y="640"/>
      <point x="267" y="678" type="curve" smooth="yes"/>
      <point x="267" y="717"/>
      <point x="299" y="748"/>
      <point x="339" y="748" type="curve" smooth="yes"/>
      <point x="378" y="748"/>
      <point x="409" y="718"/>
      <point x="409" y="680" type="curve" smooth="yes"/>
      <point x="409" y="642"/>
      <point x="377" y="611"/>
    </contour>
  </outline>
</glyph>
<glyph name="Ccaron" format="2">
  <advance width="741"/>
  <unicode hex="010C"/>
  <outline>
    <contour>
      <point x="628" y="901" type="line"/>
      <point x="501" y="766" type="line"/>
      <point x="396" y="766" type="line"/>
      <point x="305" y="901" type="line"/>
      <point x="389" y="901" type="line"/>
      <point x="456" y="846" type="line"/>
      <point x="538" y="901" type="line"/>
    </contour>
    <contour>
      <point x="389" y="-10" type="curve" smooth="yes"/>
      <point x="186" y="-10"/>
      <point x="59" y="107"/>
      <point x="59" y="303" type="curve" smooth="yes"/>
      <point x="59" y="542"/>
      <point x="213" y="726"/>
      <point x="446" y="726" type="curve" smooth="yes"/>
      <point x="607" y="726"/>
      <point x="722" y="642"/>
      <point x="731" y="476" type="curve"/>
      <point x="601" y="476" type="line"/>
      <point x="587" y="570"/>
      <point x="540" y="621"/>
      <point x="442" y="621" type="curve" smooth="yes"/>
      <point x="286" y="621"/>
      <point x="198" y="480"/>
      <point x="198" y="307" type="curve" smooth="yes"/>
      <point x="197" y="177"/>
      <point x="259" y="96"/>
      <point x="390" y="96" type="curve" smooth="yes"/>
      <point x="488" y="96"/>
      <point x="554" y="155"/>
      <point x="582" y="249" type="curve"/>
      <point x="712" y="249" type="line"/>
      <point x="678" y="85"/>
      <point x="549" y="-10"/>
    </contour>
  </outline>
</glyph>
<glyph name="dcroat" format="2">
  <advance width="629"/>
  <unicode hex="0111"/>
  <outline>
    <contour>
      <point x="325" y="604" type="line"/>
      <point x="337" y="679" type="line"/>
      <point x="505" y="679" type="line"/>
      <point x="519" y="765" type="line"/>
      <point x="640" y="765" type="line"/>
      <point x="626" y="679" type="line"/>
      <point x="694" y="679" type="line"/>
      <point x="682" y="604" type="line"/>
      <point x="615" y="604" type="line"/>
      <point x="545" y="159" type="line" smooth="yes"/>
      <point x="534" y="89"/>
      <point x="531" y="43"/>
      <point x="534" y="0" type="curve"/>
      <point x="416" y="0" type="line"/>
      <point x="414" y="27"/>
      <point x="415" y="59"/>
      <point x="418" y="89" type="curve"/>
      <point x="380" y="27"/>
      <point x="321" y="-10"/>
      <point x="243" y="-10" type="curve" smooth="yes"/>
      <point x="120" y="-10"/>
      <point x="33" y="75"/>
      <point x="33" y="220" type="curve" smooth="yes"/>
      <point x="33" y="400"/>
      <point x="139" y="534"/>
      <point x="300" y="534" type="curve" smooth="yes"/>
      <point x="392" y="534"/>
      <point x="443" y="489"/>
      <point x="467" y="437" type="curve"/>
      <point x="493" y="604" type="line"/>
    </contour>
    <contour>
      <point x="319" y="440" type="curve" smooth="yes"/>
      <point x="219" y="440"/>
      <point x="159" y="351"/>
      <point x="159" y="227" type="curve" smooth="yes"/>
      <point x="159" y="136"/>
      <point x="201" y="84"/>
      <point x="280" y="84" type="curve" smooth="yes"/>
      <point x="375" y="84"/>
      <point x="447" y="161"/>
      <point x="447" y="303" type="curve" smooth="yes"/>
      <point x="447" y="391"/>
      <point x="397" y="440"/>
    </contour>
  </outline>
</glyph>
<glyph name="Emacron" format="2">
  <advance width="588"/>
  <unicode hex="0112"/>
  <outline>
    <contour>
      <point x="40" y="0" type="line"/>
      <point x="153" y="715" type="line"/>
      <point x="597" y="715" type="line"/>
      <point x="580" y="610" type="line"/>
      <point x="269" y="610" type="line"/>
      <point x="238" y="414" type="line"/>
      <point x="490" y="414" type="line"/>
      <point x="475" y="314" type="line"/>
      <point x="223" y="314" type="line"/>
      <point x="189" y="105" type="line"/>
      <point x="521" y="105" type="line"/>
      <point x="504" y="0" type="line"/>
    </contour>
    <contour>
      <point x="237" y="780" type="line"/>
      <point x="250" y="861" type="line"/>
      <point x="538" y="861" type="line"/>
      <point x="525" y="780" type="line"/>
    </contour>
  </outline>
</glyph>
<glyph name="Ebreve" format="2">
  <advance width="588"/>
  <unicode hex="0114"/>
  <outline>
    <contour>
      <point x="40" y="0" type="line"/>
      <point x="153" y="715" type="line"/>
      <point x="597" y="715" type="line"/>
      <point x="580" y="610" type="line"/>
      <point x="269" y="610" type="line"/>
      <point x="238" y="414" type="line"/>
      <point x="490" y="414" type="line"/>
      <point x="475" y="314" type="line"/>
      <point x="223" y="314" type="line"/>
      <point x="189" y="105" type="line"/>
      <point x="521" y="105" type="line"/>
      <point x="504" y="0" type="line"/>
    </contour>
    <contour>
      <point x="382" y="761" type="curve" smooth="yes"/>
      <point x="297" y="761"/>
      <point x="240" y="817"/>
      <point x="240" y="901" type="curve"/>
      <point x="325" y="901" type="line"/>
      <point x="329" y="865"/>
      <point x="347" y="845"/>
      <point x="384" y="845" type="curve" smooth="yes"/>
      <point x="421" y="845"/>
      <point x="442" y="864"/>
      <point x="449" y="901" type="curve"/>
      <point x="533" y="901" type="line"/>
      <point x="524" y="816"/>
      <point x="460" y="761"/>
    </contour>
  </outline>
</glyph>
<glyph name="Edotaccent" format="2">
  <advance width="588"/>
  <unicode hex="0116"/>
  <outline>
    <contour>
      <point x="385" y="775" type="curve" smooth="yes"/>
      <point x="345" y="775"/>
      <point x="314" y="805"/>
      <point x="314" y="843" type="curve" smooth="yes"/>
      <point x="314" y="881"/>
      <point x="346" y="912"/>
      <point x="385" y="912" type="curve" smooth="yes"/>
      <point x="425" y="912"/>
      <point x="456" y="883"/>
      <point x="456" y="844" type="curve" smooth="yes"/>
      <point x="456" y="806"/>
      <point x="424" y="775"/>
    </contour>
    <contour>
      <point x="40" y="0" type="line"/>
      <point x="153" y="715" type="line"/>
      <point x="597" y="715" type="line"/>
      <point x="580" y="610" type="line"/>
      <point x="269" y="610" type="line"/>
      <point x="238" y="414" type="line"/>
      <point x="490" y="414" type="line"/>
      <point x="475" y="314" type="line"/>
      <point x="223" y="314" type="line"/>
      <point x="189" y="105" type="line"/>
      <point x="521" y="105" type="line"/>
      <point x="504" y="0" type="line"/>
    </contour>
  </outline>
</glyph>
<glyph name="Eogonek" format="2">
  <advance width="588"/>
  <unicode hex="0118"/>
  <outline>
    <contour>
      <point x="40" y="0" type="line"/>
      <point x="153" y="715" type="line"/>
      <point x="597" y="715" type="line"/>
      <point x="580" y="610" type="line"/>
      <point x="269" y="610" type="line"/>
      <point x="238" y="414" type="line"/>
      <point x="490" y="414" type="line"/>
      <point x="475" y="314" type="line"/>
      <point x="223" y="314" type="line"/>
      <point x="189" y="105" type="line"/>
      <point x="521" y="105" type="line"/>
      <point x="504" y="0" type="line"/>
      <point x="471" y="0" type="line"/>
      <point x="444" y="-17"/>
      <point x="399" y="-42"/>
      <point x="399" y="-83" type="curve" smooth="yes"/>
      <point x="399" y="-101"/>
      <point x="411" y="-110"/>
      <point x="433" y="-110" type="curve" smooth="yes"/>
      <point x="447" y="-110"/>
      <point x="462" y="-107"/>
      <point x="473" y="-102" type="curve"/>
      <point x="463" y="-170" type="line"/>
      <point x="448" y="-175"/>
      <point x="428" y="-182"/>
      <point x="397" y="-182" type="curve" smooth="yes"/>
      <point x="342" y="-182"/>
      <point x="292" y="-161"/>
      <point x="293" y="-105" type="curve" smooth="yes"/>
      <point x="293" y="-54"/>
      <point x="338" y="-19"/>
      <point x="378" y="0" type="curve"/>
    </contour>
  </outline>
</glyph>
<glyph name="eogonek" format="2">
  <advance width="570"/>
  <unicode hex="0119"/>
  <outline>
    <contour>
      <point x="275" y="-10" type="curve" smooth="yes"/>
      <point x="129" y="-10"/>
      <point x="32" y="76"/>
      <point x="32" y="219" type="curve" smooth="yes"/>
      <point x="32" y="405"/>
      <point x="154" y="533"/>
      <point x="315" y="533" type="curve" smooth="yes"/>
      <point x="468" y="533"/>
      <point x="563" y="437"/>
      <point x="535" y="257" type="curve"/>
      <point x="531" y="235" type="line"/>
      <point x="153" y="235" type="line"/>
      <point x="153" y="213" type="line" smooth="yes"/>
      <point x="153" y="132"/>
      <point x="190" y="80"/>
      <point x="279" y="80" type="curve" smooth="yes"/>
      <point x="344" y="80"/>
      <point x="386" y="108"/>
      <point x="403" y="160" type="curve"/>
      <point x="520" y="160" type="line"/>
      <point x="508" y="114"/>
      <point x="488" y="81"/>
      <point x="455" y="50" type="curve" smooth="yes"/>
      <point x="413" y="9"/>
      <point x="327" y="-29"/>
      <point x="327" y="-82" type="curve" smooth="yes"/>
      <point x="327" y="-101"/>
      <point x="338" y="-110"/>
      <point x="361" y="-110" type="curve" smooth="yes"/>
      <point x="374" y="-110"/>
      <point x="389" y="-107"/>
      <point x="401" y="-102" type="curve"/>
      <point x="391" y="-170" type="line"/>
      <point x="376" y="-176"/>
      <point x="356" y="-182"/>
      <point x="325" y="-182" type="curve" smooth="yes"/>
      <point x="270" y="-182"/>
      <point x="220" y="-161"/>
      <point x="221" y="-103" type="curve" smooth="yes"/>
      <point x="221" y="-58"/>
      <point x="262" y="-28"/>
      <point x="300" y="-9" type="curve"/>
      <point x="292" y="-10"/>
      <point x="283" y="-10"/>
    </contour>
    <contour>
      <point x="312" y="446" type="curve" smooth="yes"/>
      <point x="249" y="446"/>
      <point x="189" y="409"/>
      <point x="165" y="316" type="curve"/>
      <point x="422" y="316" type="line"/>
      <point x="429" y="402"/>
      <point x="394" y="446"/>
    </contour>
  </outline>
</glyph>
<glyph name="Gbreve" format="2">
  <advance width="777"/>
  <unicode hex="011E"/>
  <outline>
    <contour>
      <point x="454" y="761" type="curve" smooth="yes"/>
      <point x="369" y="761"/>
      <point x="312" y="817"/>
      <point x="312" y="901" type="curve"/>
      <point x="397" y="901" type="line"/>
      <point x="401" y="865"/>
      <point x="419" y="845"/>
      <point x="456" y="845" type="curve" smooth="yes"/>
      <point x="493" y="845"/>
      <point x="514" y="864"/>
      <point x="521" y="901" type="curve"/>
      <point x="605" y="901" type="line"/>
      <point x="596" y="816"/>
      <point x="532" y="761"/>
    </contour>
    <contour>
      <point x="397" y="-10" type="curve" smooth="yes"/>
      <point x="185" y="-10"/>
      <point x="60" y="119"/>
      <point x="60" y="311" type="curve" smooth="yes"/>
      <point x="60" y="541"/>
      <point x="221" y="725"/>
      <point x="446" y="724" type="curve" smooth="yes"/>
      <point x="600" y="724"/>
      <point x="731" y="651"/>
      <point x="741" y="485" type="curve"/>
      <point x="608" y="485" type="line"/>
      <point x="600" y="576"/>
      <point x="536" y="619"/>
      <point x="441" y="619" type="curve" smooth="yes"/>
      <point x="288" y="619"/>
      <point x="198" y="479"/>
      <point x="198" y="312" type="curve" smooth="yes"/>
      <point x="198" y="179"/>
      <point x="265" y="94"/>
      <point x="400" y="94" type="curve" smooth="yes"/>
      <point x="522" y="94"/>
      <point x="584" y="170"/>
      <point x="602" y="274" type="curve"/>
      <point x="422" y="274" type="line"/>
      <point x="438" y="374" type="line"/>
      <point x="749" y="374" type="line"/>
      <point x="730" y="111"/>
      <point x="608" y="-10"/>
    </contour>
  </outline>
</glyph>
<glyph name="Gcommaaccent" format="2">
  <advance width="777"/>
  <unicode hex="0122"/>
  <outline>
    <contour>
      <point x="299" y="-225" type="line"/>
      <point x="231" y="-198" type="line"/>
      <point x="294" y="-33" type="line"/>
      <point x="404" y="-55" type="line"/>
    </contour>
    <contour>
      <point x="397" y="-10" type="curve" smooth="yes"/>
      <point x="185" y="-10"/>
      <point x="60" y="119"/>
      <point x="60" y="311" type="curve" smooth="yes"/>
      <point x="60" y="541"/>
      <point x="221" y="725"/>
      <point x="446" y="724" type="curve" smooth="yes"/>
      <point x="600" y="724"/>
      <point x="731" y="651"/>
      <point x="741" y="485" type="curve"/>
      <point x="608" y="485" type="line"/>
      <point x="600" y="576"/>
      <point x="536" y="619"/>
      <point x="441" y="619" type="curve" smooth="yes"/>
      <point x="288" y="619"/>
      <point x="198" y="479"/>
      <point x="198" y="312" type="curve" smooth="yes"/>
      <point x="198" y="179"/>
      <point x="265" y="94"/>
      <point x="400" y="94" type="curve" smooth="yes"/>
      <point x="522" y="94"/>
      <point x="584" y="170"/>
      <point x="602" y="274" type="curve"/>
      <point x="422" y="274" type="line"/>
      <point x="438" y="374" type="line"/>
      <point x="749" y="374" type="line"/>
      <point x="730" y="111"/>
      <point x="608" y="-10"/>
    </contour>
  </outline>
</glyph>
<glyph name="gcommaaccent" format="2">
  <advance width="630"/>
  <unicode hex="0123"/>
  <outline>
    <contour>
      <point x="381" y="779" type="line"/>
      <point x="450" y="753" type="line"/>
      <point x="386" y="588" type="line"/>
      <point x="277" y="610" type="line"/>
    </contour>
    <contour>
      <point x="281" y="114" type="curve" smooth="yes"/>
      <point x="373" y="114"/>
      <point x="447" y="190"/>
      <point x="447" y="310" type="curve" smooth="yes"/>
      <point x="447" y="391"/>
      <point x="394" y="440"/>
      <point x="318" y="440" type="curve" smooth="yes"/>
      <point x="220" y="440"/>
      <point x="163" y="350"/>
      <point x="163" y="251" type="curve" smooth="yes"/>
      <point x="163" y="170"/>
      <point x="203" y="114"/>
    </contour>
    <contour>
      <point x="601" y="523" type="line"/>
      <point x="523" y="28" type="line" smooth="yes"/>
      <point x="500" y="-119"/>
      <point x="413" y="-192"/>
      <point x="253" y="-192" type="curve" smooth="yes"/>
      <point x="75" y="-192"/>
      <point x="12" y="-105"/>
      <point x="4" y="-18" type="curve"/>
      <point x="125" y="-18" type="line"/>
      <point x="133" y="-63"/>
      <point x="169" y="-100"/>
      <point x="250" y="-100" type="curve" smooth="yes"/>
      <point x="348" y="-100"/>
      <point x="389" y="-51"/>
      <point x="403" y="33" type="curve" smooth="yes"/>
      <point x="415" y="107" type="line"/>
      <point x="377" y="52"/>
      <point x="323" y="22"/>
      <point x="248" y="22" type="curve" smooth="yes"/>
      <point x="125" y="22"/>
      <point x="38" y="107"/>
      <point x="38" y="244" type="curve" smooth="yes"/>
      <point x="38" y="406"/>
      <point x="147" y="534"/>
      <point x="298" y="534" type="curve" smooth="yes"/>
      <point x="390" y="534"/>
      <point x="442" y="489"/>
      <point x="467" y="437" type="curve"/>
      <point x="481" y="523" type="line"/>
    </contour>
  </outline>
</glyph>
<glyph name="Hcircumflex" format="2">
  <advance width="751"/>
  <unicode hex="0124"/>
  <outline>
    <contour>
      <point x="40" y="0" type="line"/>
      <point x="153" y="715" type="line"/>
      <point x="286" y="715" type="line"/>
      <point x="238" y="411" type="line"/>
      <point x="558" y="411" type="line"/>
      <point x="607" y="715" type="line"/>
      <point x="741" y="715" type="line"/>
      <point x="628" y="0" type="line"/>
      <point x="494" y="0" type="line"/>
      <point x="542" y="304" type="line"/>
      <point x="221" y="304" type="line"/>
      <point x="173" y="0" type="line"/>
    </contour>
    <contour>
      <point x="288" y="766" type="line"/>
      <point x="414" y="901" type="line"/>
      <point x="519" y="901" type="line"/>
      <point x="611" y="766" type="line"/>
      <point x="526" y="766" type="line"/>
      <point x="459" y="821" type="line"/>
      <point x="377" y="766" type="line"/>
    </contour>
  </outline>
</glyph>
<glyph name="Hbar" format="2">
  <advance width="751"/>
  <unicode hex="0126"/>
  <outline>
    <contour>
      <point x="53" y="504" type="line"/>
      <point x="65" y="582" type="line"/>
      <point x="132" y="582" type="line"/>
      <point x="153" y="715" type="line"/>
      <point x="286" y="715" type="line"/>
      <point x="265" y="582" type="line"/>
      <point x="585" y="582" type="line"/>
      <point x="607" y="715" type="line"/>
      <point x="741" y="715" type="line"/>
      <point x="720" y="582" type="line"/>
      <point x="785" y="582" type="line"/>
      <point x="773" y="504" type="line"/>
      <point x="707" y="504" type="line"/>
      <point x="628" y="0" type="line"/>
      <point x="494" y="0" type="line"/>
      <point x="542" y="304" type="line"/>
      <point x="221" y="304" type="line"/>
      <point x="173" y="0" type="line"/>
      <point x="40" y="0" type="line"/>
      <point x="119" y="504" type="line"/>
    </contour>
    <contour>
      <point x="238" y="411" type="line"/>
      <point x="558" y="411" type="line"/>
      <point x="573" y="504" type="line"/>
      <point x="252" y="504" type="line"/>
    </contour>
  </outline>
</glyph>
<glyph name="Itilde" format="2">
  <advance width="308"/>
  <unicode hex="0128"/>
  <outline>
    <contour>
      <point x="44" y="0" type="line"/>
      <point x="157" y="715" type="line"/>
      <point x="291" y="715" type="line"/>
      <point x="178" y="0" type="line"/>
    </contour>
    <contour>
      <point x="302" y="768" type="curve" smooth="yes"/>
      <point x="251" y="768"/>
      <point x="217" y="807"/>
      <point x="188" y="807" type="curve" smooth="yes"/>
      <point x="170" y="807"/>
      <point x="152" y="792"/>
      <point x="146" y="767" type="curve"/>
      <point x="69" y="767" type="line"/>
      <point x="85" y="853"/>
      <point x="131" y="898"/>
      <point x="187" y="898" type="curve" smooth="yes"/>
      <point x="237" y="898"/>
      <point x="271" y="858"/>
      <point x="302" y="858" type="curve" smooth="yes"/>
      <point x="320" y="858"/>
      <point x="336" y="873"/>
      <point x="343" y="898" type="curve"/>
      <point x="419" y="898" type="line"/>
      <point x="403" y="813"/>
      <point x="356" y="768"/>
    </contour>
  </outline>
</glyph>
<glyph name="itilde" format="2">
  <advance width="271"/>
  <unicode hex="0129"/>
  <outline>
    <contour>
      <point x="33" y="0" type="line"/>
      <point x="116" y="523" type="line"/>
      <point x="237" y="523" type="line"/>
      <point x="154" y="0" type="line"/>
    </contour>
    <contour>
      <point x="256" y="606" type="curve" smooth="yes"/>
      <point x="205" y="606"/>
      <point x="172" y="646"/>
      <point x="143" y="646" type="curve" smooth="yes"/>
      <point x="125" y="646"/>
      <point x="107" y="630"/>
      <point x="101" y="606" type="curve"/>
      <point x="27" y="606" type="line"/>
      <point x="42" y="691"/>
      <point x="86" y="737"/>
      <point x="142" y="737" type="curve" smooth="yes"/>
      <point x="191" y="737"/>
      <point x="225" y="698"/>
      <point x="256" y="698" type="curve" smooth="yes"/>
      <point x="274" y="698"/>
      <point x="290" y="713"/>
      <point x="296" y="738" type="curve"/>
      <point x="371" y="738" type="line"/>
      <point x="356" y="652"/>
      <point x="311" y="606"/>
    </contour>
  </outline>
</glyph>
<glyph name="imacron" format="2">
  <advance width="271"/>
  <unicode hex="012B"/>
  <outline>
    <contour>
      <point x="87" y="634" type="line"/>
      <point x="99" y="712" type="line"/>
      <point x="313" y="712" type="line"/>
      <point x="301" y="634" type="line"/>
    </contour>
    <contour>
      <point x="33" y="0" type="line"/>
      <point x="116" y="523" type="line"/>
      <point x="237" y="523" type="line"/>
      <point x="154" y="0" type="line"/>
    </contour>
  </outline>
</glyph>
<glyph name="Ibreve" format="2">
  <advance width="308"/>
  <unicode hex="012C"/>
  <outline>
    <contour>
      <point x="44" y="0" type="line"/>
      <point x="157" y="715" type="line"/>
      <point x="291" y="715" type="line"/>
      <point x="178" y="0" type="line"/>
    </contour>
    <contour>
      <point x="237" y="761" type="curve" smooth="yes"/>
      <point x="152" y="761"/>
      <point x="95" y="817"/>
      <point x="95" y="901" type="curve"/>
      <point x="180" y="901" type="line"/>
      <point x="184" y="865"/>
      <point x="202" y="845"/>
      <point x="239" y="845" type="curve" smooth="yes"/>
      <point x="276" y="845"/>
      <point x="297" y="864"/>
      <point x="304" y="901" type="curve"/>
      <point x="388" y="901" type="line"/>
      <point x="379" y="816"/>
      <point x="315" y="761"/>
    </contour>
  </outline>
</glyph>
<glyph name="ibreve" format="2">
  <advance width="271"/>
  <unicode hex="012D"/>
  <outline>
    <contour>
      <point x="33" y="0" type="line"/>
      <point x="116" y="523" type="line"/>
      <point x="237" y="523" type="line"/>
      <point x="154" y="0" type="line"/>
    </contour>
    <contour>
      <point x="194" y="606" type="curve" smooth="yes"/>
      <point x="110" y="606"/>
      <point x="51" y="662"/>
      <point x="53" y="749" type="curve"/>
      <point x="136" y="749" type="line"/>
      <point x="140" y="711"/>
      <point x="158" y="691"/>
      <point x="195" y="691" type="curve" smooth="yes"/>
      <point x="233" y="691"/>
      <point x="255" y="711"/>
      <point x="261" y="749" type="curve"/>
      <point x="344" y="749" type="line"/>
      <point x="335" y="661"/>
      <point x="272" y="606"/>
    </contour>
  </outline>
</glyph>
<glyph name="Iogonek" format="2">
  <advance width="308"/>
  <unicode hex="012E"/>
  <outline>
    <contour>
      <point x="98" y="-182" type="curve" smooth="yes"/>
      <point x="43" y="-182"/>
      <point x="-7" y="-161"/>
      <point x="-7" y="-102" type="curve" smooth="yes"/>
      <point x="-7" y="-52"/>
      <point x="42" y="-18"/>
      <point x="84" y="0" type="curve"/>
      <point x="44" y="0" type="line"/>
      <point x="157" y="715" type="line"/>
      <point x="291" y="715" type="line"/>
      <point x="180" y="9" type="line"/>
      <point x="144" y="-15"/>
      <point x="100" y="-46"/>
      <point x="100" y="-82" type="curve" smooth="yes"/>
      <point x="100" y="-101"/>
      <point x="111" y="-110"/>
      <point x="134" y="-110" type="curve" smooth="yes"/>
      <point x="147" y="-110"/>
      <point x="162" y="-107"/>
      <point x="174" y="-102" type="curve"/>
      <point x="163" y="-170" type="line"/>
      <point x="149" y="-175"/>
      <point x="128" y="-182"/>
    </contour>
  </outline>
</glyph>
<glyph name="iogonek" format="2">
  <advance width="271"/>
  <unicode hex="012F"/>
  <outline>
    <contour>
      <point x="33" y="0" type="line"/>
      <point x="116" y="523" type="line"/>
      <point x="237" y="523" type="line"/>
      <point x="155" y="9" type="line"/>
      <point x="120" y="-14"/>
      <point x="77" y="-42"/>
      <point x="77" y="-82" type="curve" smooth="yes"/>
      <point x="77" y="-101"/>
      <point x="89" y="-110"/>
      <point x="109" y="-110" type="curve" smooth="yes"/>
      <point x="123" y="-110"/>
      <point x="138" y="-107"/>
      <point x="149" y="-102" type="curve"/>
      <point x="139" y="-170" type="line"/>
      <point x="124" y="-175"/>
      <point x="104" y="-182"/>
      <point x="73" y="-182" type="curve" smooth="yes"/>
      <point x="20" y="-182"/>
      <point x="-31" y="-161"/>
      <point x="-30" y="-102" type="curve" smooth="yes"/>
      <point x="-30" y="-52"/>
      <point x="18" y="-18"/>
      <point x="58" y="0" type="curve"/>
    </contour>
    <contour>
      <point x="198" y="609" type="curve" smooth="yes"/>
      <point x="158" y="609"/>
      <point x="127" y="639"/>
      <point x="127" y="678" type="curve" smooth="yes"/>
      <point x="127" y="717"/>
      <point x="159" y="748"/>
      <point x="199" y="748" type="curve" smooth="yes"/>
      <point x="239" y="748"/>
      <point x="270" y="718"/>
      <point x="270" y="679" type="curve" smooth="yes"/>
      <point x="270" y="640"/>
      <point x="238" y="609"/>
    </contour>
  </outline>
</glyph>
<glyph name="Idotaccent" format="2">
  <advance width="308"/>
  <unicode hex="0130"/>
  <outline>
    <contour>
      <point x="44" y="0" type="line"/>
      <point x="157" y="715" type="line"/>
      <point x="291" y="715" type="line"/>
      <point x="178" y="0" type="line"/>
    </contour>
    <contour>
      <point x="239" y="775" type="curve" smooth="yes"/>
      <point x="199" y="775"/>
      <point x="168" y="805"/>
      <point x="168" y="843" type="curve" smooth="yes"/>
      <point x="168" y="881"/>
      <point x="200" y="912"/>
      <point x="239" y="912" type="curve" smooth="yes"/>
      <point x="279" y="912"/>
      <point x="310" y="883"/>
      <point x="310" y="844" type="curve" smooth="yes"/>
      <point x="310" y="806"/>
      <point x="278" y="775"/>
    </contour>
  </outline>
</glyph>
<glyph name="IJ" format="2">
  <advance width="715"/>
  <unicode hex="0132"/>
  <outline>
    <contour>
      <point x="13" y="0" type="line"/>
      <point x="126" y="715" type="line"/>
      <point x="260" y="715" type="line"/>
      <point x="147" y="0" type="line"/>
    </contour>
    <contour>
      <point x="366" y="-9" type="curve" smooth="yes"/>
      <point x="293" y="-9"/>
      <point x="258" y="7"/>
      <point x="236" y="19" type="curve"/>
      <point x="252" y="121" type="line"/>
      <point x="277" y="110"/>
      <point x="306" y="98"/>
      <point x="350" y="98" type="curve" smooth="yes"/>
      <point x="414" y="98"/>
      <point x="454" y="130"/>
      <point x="466" y="209" type="curve" smooth="yes"/>
      <point x="546" y="715" type="line"/>
      <point x="680" y="715" type="line"/>
      <point x="598" y="201" type="line" smooth="yes"/>
      <point x="575" y="55"/>
      <point x="487" y="-9"/>
    </contour>
  </outline>
</glyph>
<glyph name="ij" format="2">
  <advance width="542"/>
  <unicode hex="0133"/>
  <outline>
    <contour>
      <point x="198" y="609" type="curve" smooth="yes"/>
      <point x="158" y="609"/>
      <point x="127" y="639"/>
      <point x="127" y="678" type="curve" smooth="yes"/>
      <point x="127" y="717"/>
      <point x="159" y="748"/>
      <point x="199" y="748" type="curve" smooth="yes"/>
      <point x="239" y="748"/>
      <point x="270" y="718"/>
      <point x="270" y="679" type="curve" smooth="yes"/>
      <point x="270" y="640"/>
      <point x="238" y="609"/>
    </contour>
    <contour>
      <point x="33" y="0" type="line"/>
      <point x="116" y="523" type="line"/>
      <point x="237" y="523" type="line"/>
      <point x="154" y="0" type="line"/>
    </contour>
    <contour>
      <point x="202" y="-187" type="curve"/>
      <point x="216" y="-95" type="line"/>
      <point x="270" y="-92"/>
      <point x="292" y="-68"/>
      <point x="299" y="-23" type="curve" smooth="yes"/>
      <point x="386" y="523" type="line"/>
      <point x="506" y="523" type="line"/>
      <point x="418" y="-33" type="line" smooth="yes"/>
      <point x="404" y="-127"/>
      <point x="348" y="-191"/>
    </contour>
    <contour>
      <point x="468" y="609" type="curve" smooth="yes"/>
      <point x="428" y="609"/>
      <point x="397" y="639"/>
      <point x="397" y="678" type="curve" smooth="yes"/>
      <point x="397" y="717"/>
      <point x="429" y="748"/>
      <point x="469" y="748" type="curve" smooth="yes"/>
      <point x="509" y="748"/>
      <point x="540" y="718"/>
      <point x="540" y="679" type="curve" smooth="yes"/>
      <point x="540" y="640"/>
      <point x="508" y="609"/>
    </contour>
  </outline>
</glyph>
<glyph name="jcircumflex" format="2">
  <advance width="271"/>
  <unicode hex="0135"/>
  <outline>
    <contour>
      <point x="-68" y="-187" type="curve"/>
      <point x="-54" y="-95" type="line"/>
      <point x="0" y="-92"/>
      <point x="22" y="-68"/>
      <point x="29" y="-23" type="curve" smooth="yes"/>
      <point x="116" y="523" type="line"/>
      <point x="236" y="523" type="line"/>
      <point x="148" y="-33" type="line" smooth="yes"/>
      <point x="134" y="-127"/>
      <point x="78" y="-191"/>
    </contour>
    <contour>
      <point x="20" y="602" type="line"/>
      <point x="155" y="753" type="line"/>
      <point x="250" y="753" type="line"/>
      <point x="341" y="602" type="line"/>
      <point x="258" y="602" type="line"/>
      <point x="192" y="670" type="line"/>
      <point x="107" y="602" type="line"/>
    </contour>
  </outline>
</glyph>
<glyph name="kcommaaccent" format="2">
  <advance width="536"/>
  <unicode hex="0137"/>
  <outline>
    <contour>
      <point x="30" y="0" type="line"/>
      <point x="150" y="765" type="line"/>
      <point x="271" y="765" type="line"/>
      <point x="198" y="299" type="line"/>
      <point x="418" y="523" type="line"/>
      <point x="557" y="523" type="line"/>
      <point x="312" y="282" type="line"/>
      <point x="485" y="0" type="line"/>
      <point x="351" y="0" type="line"/>
      <point x="192" y="265" type="line"/>
      <point x="151" y="0" type="line"/>
    </contour>
    <contour>
      <point x="200" y="-225" type="line"/>
      <point x="132" y="-198" type="line"/>
      <point x="195" y="-33" type="line"/>
      <point x="305" y="-55" type="line"/>
    </contour>
  </outline>
</glyph>
<glyph name="Lacute" format="2">
  <advance width="551"/>
  <unicode hex="0139"/>
  <outline>
    <contour>
      <point x="173" y="766" type="line"/>
      <point x="240" y="901" type="line"/>
      <point x="378" y="901" type="line"/>
      <point x="267" y="766" type="line"/>
    </contour>
    <contour>
      <point x="40" y="0" type="line"/>
      <point x="153" y="715" type="line"/>
      <point x="286" y="715" type="line"/>
      <point x="190" y="106" type="line"/>
      <point x="495" y="106" type="line"/>
      <point x="478" y="0" type="line"/>
    </contour>
  </outline>
</glyph>
<glyph name="lacute" format="2">
  <advance width="271"/>
  <unicode hex="013A"/>
  <outline>
    <contour>
      <point x="168" y="809" type="line"/>
      <point x="235" y="944" type="line"/>
      <point x="373" y="944" type="line"/>
      <point x="262" y="809" type="line"/>
    </contour>
    <contour>
      <point x="33" y="0" type="line"/>
      <point x="154" y="765" type="line"/>
      <point x="275" y="765" type="line"/>
      <point x="154" y="0" type="line"/>
    </contour>
  </outline>
</glyph>
<glyph name="Lcommaaccent" format="2">
  <advance width="551"/>
  <unicode hex="013B"/>
  <outline>
    <contour>
      <point x="205" y="-225" type="line"/>
      <point x="137" y="-198" type="line"/>
      <point x="200" y="-33" type="line"/>
      <point x="310" y="-55" type="line"/>
    </contour>
    <contour>
      <point x="40" y="0" type="line"/>
      <point x="153" y="715" type="line"/>
      <point x="286" y="715" type="line"/>
      <point x="190" y="106" type="line"/>
      <point x="495" y="106" type="line"/>
      <point x="478" y="0" type="line"/>
    </contour>
  </outline>
</glyph>
<glyph name="lcommaaccent" format="2">
  <advance width="271"/>
  <unicode hex="013C"/>
  <outline>
    <contour>
      <point x="42" y="-225" type="line"/>
      <point x="-26" y="-198" type="line"/>
      <point x="37" y="-33" type="line"/>
      <point x="147" y="-55" type="line"/>
    </contour>
    <contour>
      <point x="33" y="0" type="line"/>
      <point x="154" y="765" type="line"/>
      <point x="275" y="765" type="line"/>
      <point x="154" y="0" type="line"/>
    </contour>
  </outline>
</glyph>
<glyph name="Lcaron" format="2">
  <advance width="551"/>
  <unicode hex="013D"/>
  <outline>
    <contour>
      <point x="392" y="550" type="line"/>
      <point x="435" y="715" type="line"/>
      <point x="551" y="715" type="line"/>
      <point x="468" y="550" type="line"/>
    </contour>
    <contour>
      <point x="40" y="0" type="line"/>
      <point x="153" y="715" type="line"/>
      <point x="286" y="715" type="line"/>
      <point x="190" y="106" type="line"/>
      <point x="495" y="106" type="line"/>
      <point x="478" y="0" type="line"/>
    </contour>
  </outline>
</glyph>
<glyph name="lcaron" format="2">
  <advance width="271"/>
  <unicode hex="013E"/>
  <outline>
    <contour>
      <point x="292" y="590" type="line"/>
      <point x="329" y="765" type="line"/>
      <point x="436" y="765" type="line"/>
      <point x="364" y="590" type="line"/>
    </contour>
    <contour>
      <point x="33" y="0" type="line"/>
      <point x="154" y="765" type="line"/>
      <point x="275" y="765" type="line"/>
      <point x="154" y="0" type="line"/>
    </contour>
  </outline>
</glyph>
<glyph name="Ldot" format="2">
  <advance width="561"/>
  <unicode hex="013F"/>
  <outline>
    <contour>
      <point x="40" y="0" type="line"/>
      <point x="153" y="715" type="line"/>
      <point x="286" y="715" type="line"/>
      <point x="190" y="106" type="line"/>
      <point x="495" y="106" type="line"/>
      <point x="478" y="0" type="line"/>
    </contour>
    <contour>
      <point x="470" y="312" type="curve" smooth="yes"/>
      <point x="426" y="312"/>
      <point x="391" y="347"/>
      <point x="391" y="391" type="curve" smooth="yes"/>
      <point x="391" y="435"/>
      <point x="425" y="469"/>
      <point x="469" y="469" type="curve" smooth="yes"/>
      <point x="514" y="469"/>
      <point x="550" y="435"/>
      <point x="550" y="391" type="curve" smooth="yes"/>
      <point x="550" y="347"/>
      <point x="515" y="312"/>
    </contour>
  </outline>
</glyph>
<glyph name="ldot" format="2">
  <advance width="378"/>
  <unicode hex="0140"/>
  <outline>
    <contour>
      <point x="33" y="0" type="line"/>
      <point x="154" y="765" type="line"/>
      <point x="275" y="765" type="line"/>
      <point x="154" y="0" type="line"/>
    </contour>
    <contour>
      <point x="338" y="285" type="curve" smooth="yes"/>
      <point x="294" y="285"/>
      <point x="259" y="320"/>
      <point x="259" y="364" type="curve" smooth="yes"/>
      <point x="259" y="408"/>
      <point x="293" y="442"/>
      <point x="337" y="442" type="curve" smooth="yes"/>
      <point x="382" y="442"/>
      <point x="418" y="408"/>
      <point x="418" y="364" type="curve" smooth="yes"/>
      <point x="418" y="320"/>
      <point x="383" y="285"/>
    </contour>
  </outline>
</glyph>
<glyph name="Lslash" format="2">
  <advance width="570"/>
  <unicode hex="0141"/>
  <outline>
    <contour>
      <point x="31" y="240" type="line"/>
      <point x="44" y="327" type="line"/>
      <point x="114" y="350" type="line"/>
      <point x="172" y="715" type="line"/>
      <point x="306" y="715" type="line"/>
      <point x="255" y="398" type="line"/>
      <point x="458" y="466" type="line"/>
      <point x="444" y="379" type="line"/>
      <point x="241" y="311" type="line"/>
      <point x="209" y="106" type="line"/>
      <point x="514" y="106" type="line"/>
      <point x="498" y="0" type="line"/>
      <point x="59" y="0" type="line"/>
      <point x="100" y="263" type="line"/>
    </contour>
  </outline>
</glyph>
